<svg viewBox="-7.5 0 607.5 599.9999999999999" fill="none" xmlns="http://www.w3.org/2000/svg" xmlns:xlink="http://www.w3.org/1999/xlink" overflow="visible" width="607.5px" height="599.9999999999999px"><g id="Master/Spot Illustrations/Grip"><g id="Background" style="mix-blend-mode:soft-light" transform="scale(1 1)"><g id="Background/Sun"><path id="Path" d="M377.85 200.5C358.3 192.1 340.31 187.68 322.85 187C300.427 186.302 278.2 191.374 258.3 201.73V201.73C219.25 221.73 194.53 256.85 190.48 298.1C187.75 325.94 192.42 350.62 204.37 371.44C216.07 391.84 234.08 407.44 257.89 417.87C272.82 424.39 293.74 428.28 315.89 428.28C338.75 428.28 362.89 424.13 383.08 414.45C406.9 403.03 422.68 385.16 428.74 362.78C445.22 301.8 433 224.21 377.85 200.5Z" fill="#EAF3F3"/><path id="Path_2" d="M181.82 161.2C177.48 156.32 164.92 143.78 153.14 132.87C127.56 109.19 120.91 107 117.71 106C112.973 104.392 107.737 105.434 103.976 108.733C100.215 112.032 98.5 117.086 99.4764 121.993C100.453 126.899 103.973 130.912 108.71 132.52C117.04 136.43 152.08 169.96 160.89 179.85C164.206 183.617 169.286 185.321 174.203 184.316C179.121 183.31 183.123 179.749 184.695 174.983C186.266 170.216 185.165 164.972 181.81 161.24L181.82 161.2Z" fill="#EAF3F3"/><path id="Path_3" d="M68.0001 252.54C77.8701 252.54 113.06 254.17 122.27 255.24C122.815 255.3 123.362 255.33 123.91 255.33C131.304 255.294 137.395 249.514 137.818 242.132C138.242 234.75 132.851 228.312 125.51 227.43C115.15 226.22 79.0201 224.59 68.1201 224.54H68.0601C60.3281 224.524 54.0466 230.778 54.0301 238.51C54.0135 246.242 60.2681 252.524 68.0001 252.54Z" fill="#EAF3F3"/><path id="Path_4" d="M114.72 347.19C122.416 346.439 128.046 339.591 127.295 331.895C126.544 324.199 119.696 318.569 112 319.32C96.29 320.85 60.17 329.32 45.37 334.87C40.6002 336.571 37.1204 340.714 36.2699 345.706C35.4195 350.698 37.3311 355.76 41.2689 358.944C45.2067 362.128 50.5568 362.937 55.26 361.06C67.93 356.28 101.27 348.5 114.72 347.19Z" fill="#EAF3F3"/><path id="Path_5" d="M123.39 417.32C106.11 426.46 68.2801 461.86 57.5601 474.07C52.9076 479.91 53.6575 488.374 59.2643 493.305C64.8712 498.237 73.3615 497.9 78.5601 492.54C88.7901 480.89 123.82 448.75 136.44 442.07C140.918 439.762 143.811 435.227 144.016 430.194C144.22 425.161 141.705 420.406 137.43 417.742C133.154 415.079 127.778 414.917 123.35 417.32H123.39Z" fill="#EAF3F3"/><path id="Path_6" d="M220.73 486.59C217.652 484.511 213.875 483.74 210.229 484.448C206.583 485.155 203.368 487.281 201.29 490.36C191.88 504.31 181.01 520.13 179.09 522.49C174.31 528.425 175.155 537.093 180.992 541.993C186.828 546.893 195.512 546.225 200.53 540.49C203.77 536.63 218.38 515.09 224.53 506.01C228.839 499.597 227.138 490.905 220.73 486.59V486.59Z" fill="#EAF3F3"/><path id="Path_7" d="M545.42 308.36C533.21 305.7 518.6 302.36 516.19 301.66C508.911 299.448 501.198 303.453 498.82 310.679C496.443 317.905 500.27 325.708 507.44 328.25C511.15 329.49 529.09 333.46 539.44 335.72C546.995 337.377 554.463 332.595 556.12 325.04C557.777 317.485 552.995 310.017 545.44 308.36H545.42Z" fill="#EAF3F3"/><path id="Path_8" d="M346.43 500.93C346.585 495.928 344.061 491.224 339.807 488.588C335.553 485.953 330.216 485.787 325.807 488.153C321.397 490.519 318.585 495.058 318.43 500.06C318.29 504.59 318.43 511.61 318.59 519.75C318.8 530.75 319.07 544.34 318.49 550.05C317.71 557.74 323.31 564.607 331 565.39C331.475 565.438 331.953 565.461 332.43 565.46C339.609 565.45 345.617 560.012 346.34 552.87C347.09 545.48 346.83 532.12 346.57 519.19C346.44 511.77 346.31 504.75 346.43 500.93Z" fill="#EAF3F3"/><path id="Path_9" d="M466.69 500.78C462.05 496.58 456.28 491.35 454.52 489.03C449.826 482.875 441.03 481.69 434.875 486.385C428.72 491.079 427.536 499.875 432.23 506.03C435.56 510.41 441.23 515.59 447.89 521.58C453.22 526.41 461.27 533.71 463.24 536.77C465.934 540.998 470.684 543.462 475.692 543.231C480.7 543 485.202 540.109 487.495 535.651C489.789 531.193 489.524 525.849 486.8 521.64C482.83 515.4 475 508.3 466.69 500.78Z" fill="#EAF3F3"/><path id="Path_10" d="M545.38 417.15C535.56 412.29 510.26 404.93 490.76 399.61C483.4 397.833 475.961 402.228 473.968 409.532C471.974 416.836 476.148 424.402 483.39 426.61C508.14 433.36 527.14 439.34 532.96 442.23C539.891 445.66 548.29 442.821 551.72 435.89C555.15 428.959 552.311 420.56 545.38 417.13V417.15Z" fill="#EAF3F3"/><path id="Shape" fill-rule="evenodd" clip-rule="evenodd" d="M548.79 210.83C556.505 210.334 563.162 216.185 563.66 223.9C564.113 231.273 558.76 237.73 551.43 238.65C551.32 238.674 551.201 238.7 551.074 238.73L550.58 238.77C550.607 238.769 550.636 238.767 550.666 238.765C550.777 238.759 550.907 238.752 551.029 238.74C544.149 240.359 513.818 250.744 508.48 253.33C506.329 254.632 503.864 255.324 501.35 255.33C495.179 255.333 489.734 251.295 487.945 245.389C486.156 239.483 488.445 233.102 493.58 229.68C494.86 228.83 497.86 226.85 520.79 219C543.72 211.15 547.14 210.93 548.79 210.83ZM551.029 238.74C551.085 238.735 551.14 238.728 551.19 238.72L551.074 238.73C551.059 238.733 551.044 238.737 551.029 238.74Z" fill="#EAF3F3"/><path id="Path_11" d="M436.79 181.93C443.098 186.395 451.83 184.905 456.3 178.6C463.07 169.05 474.19 162.6 485.96 155.71C496.02 149.85 506.42 143.78 515.02 135.23C518.685 131.73 520.173 126.523 518.91 121.615C517.646 116.707 513.83 112.865 508.93 111.57C504.031 110.275 498.814 111.728 495.29 115.37C489.22 121.37 480.79 126.31 471.85 131.52C458.67 139.21 443.74 147.92 433.46 162.41C431.312 165.44 430.457 169.199 431.081 172.86C431.706 176.521 433.759 179.784 436.79 181.93V181.93Z" fill="#EAF3F3"/><path id="Path_12" d="M352.87 127.34C359.823 130.719 368.2 127.823 371.58 120.87C374.03 115.82 377.37 107.64 380.9 98.9801C385.41 87.9101 391.03 74.1401 394.36 68.2901C396.836 63.9387 396.802 58.5969 394.272 54.277C391.741 49.9571 387.098 47.3154 382.092 47.347C377.085 47.3786 372.476 50.0787 370 54.4301C365.75 61.8701 360.25 75.3601 354.93 88.4301C351.58 96.6601 348.41 104.43 346.35 108.66C342.998 115.619 345.916 123.978 352.87 127.34V127.34Z" fill="#EAF3F3"/><path id="Path_13" d="M238.47 130.42C240.105 136.548 245.657 140.812 252 140.81C253.219 140.812 254.433 140.651 255.61 140.33C263.079 138.338 267.519 130.669 265.53 123.2C262.9 113.32 241.53 52.8 234.02 41.04C229.829 34.6327 221.268 32.7806 214.803 36.8826C208.338 40.9847 206.368 49.5191 210.38 56.04C214.94 63.25 235.47 119.18 238.47 130.42Z" fill="#EAF3F3"/></g></g><g id="Master/Hands/Grip" transform="scale(1 1)"><g id="Master/Hands/Grip"><g id="base"><path id="Path" d="M430.329 363.52C431.521 352.207 431.602 340.433 430.969 323.067C430.954 322.66 430.94 322.227 430.922 321.665C430.706 314.993 430.591 312.61 430.21 308.966C429.366 300.87 427.621 294.757 424.4 290.537C418.16 282.371 407.703 280.651 390.926 282.57C388.553 282.841 386.288 283.147 382.722 283.66C374.243 284.881 371.066 285.287 367.93 285.392C365.656 279.659 360.977 275.308 353.783 272.949C349.857 271.661 345.836 270.614 341.601 269.754C334.201 268.251 327.95 267.522 315.02 266.41C314.915 266.401 313.291 266.261 312.814 266.22C311.968 266.147 311.268 266.087 310.595 266.028C302.93 265.353 294.766 265.14 284.341 265.23C280.967 265.26 278.181 265.305 272.277 265.418C268.074 265.498 266.385 265.528 264.161 265.56C255.979 265.684 244.854 266.732 221.599 269.329C220.835 269.414 220.835 269.414 220.071 269.5C195.459 272.251 186.967 273.101 179.359 273.371C171.737 273.646 160.086 274.011 145.306 274.443C142.939 274.512 140.503 274.583 138.003 274.654C126.778 274.977 29.7506 275.312 17.7234 275.639C13.5138 275.754 9.60495 275.859 6.09702 275.953C4.86926 275.986 3.77933 276.015 2.83975 276.04C1.88768 276.065 1.88768 276.065 1.68735 276.071C0.603761 276.099 -0.259766 276.986 -0.259766 278.07V424.4C-0.259766 425.489 0.612036 426.378 1.70117 426.4L185.501 428.33C195.18 428.512 202.732 428.7 220.642 429.182C241.101 429.733 250.568 429.96 262.141 430.14C299.403 430.717 328.448 429.99 356.092 427.321C361.018 426.846 364.784 426.492 373.902 425.643C400.687 423.148 412.836 421.918 427.818 420.045C438.477 418.82 448.966 416.293 459.032 412.523C471.082 407.949 473.607 388.582 462.584 384.504C458.348 382.938 452.319 381.833 446.073 381.258C445.084 381.167 444.031 381.066 442.735 380.938C441.985 380.864 439.337 380.6 439.27 380.593C436.728 380.341 434.965 380.172 433.188 380.015C429.331 379.675 426.014 379.453 423.05 379.357C427.166 375.669 429.585 370.554 430.329 363.52Z" fill="#fcb7a0"/><path id="Path" d="M426.43 310.48C422.175 312.479 417.811 314.237 413.358 315.746C400.8 320.3 391.081 323.035 370.624 328.16C369.553 328.428 368.902 329.515 369.17 330.586C369.439 331.657 370.525 332.308 371.596 332.04C392.179 326.884 401.999 324.12 414.682 319.52C419.237 317.977 423.74 316.163 428.131 314.1C429.131 313.63 429.56 312.439 429.091 311.439C428.621 310.44 427.43 310.01 426.43 310.48Z" fill="#dc8173"/><path id="Path" d="M368.24 364.694C375.178 363.571 381.765 362.304 388.135 360.85C399.581 358.262 412.38 353.928 429.016 347.454C430.045 347.053 430.555 345.894 430.154 344.865C429.753 343.835 428.594 343.326 427.565 343.726C411.102 350.134 398.455 354.416 387.249 356.949C380.962 358.385 374.457 359.636 367.601 360.746C366.51 360.922 365.769 361.949 365.946 363.04C366.122 364.13 367.149 364.871 368.24 364.694Z" fill="#dc8173"/><path id="Path" d="M319.457 369.875C325.362 369.471 330.406 369.086 335.216 368.662C336.316 368.565 337.13 367.595 337.033 366.494C336.936 365.394 335.965 364.581 334.865 364.678C330.084 365.099 325.065 365.482 319.184 365.885C318.082 365.96 317.25 366.914 317.325 368.016C317.4 369.118 318.355 369.951 319.457 369.875Z" fill="#dc8173"/><path id="Path" d="M245.207 368.766C246.33 371.039 246.278 373.095 245.349 378.148C245.255 378.654 245.211 378.897 245.159 379.19C245.075 379.659 245.006 380.067 244.944 380.46C244.773 381.551 245.519 382.575 246.61 382.746C247.702 382.917 248.725 382.171 248.896 381.08C248.953 380.718 249.018 380.336 249.097 379.892C249.147 379.609 249.191 379.371 249.282 378.871C250.367 372.977 250.434 370.316 248.793 366.994C248.304 366.004 247.105 365.598 246.115 366.087C245.124 366.576 244.718 367.775 245.207 368.766Z" fill="#dc8173"/><path id="Path" d="M421.849 379.035C416.236 382.03 403.557 386.3 395.696 387.837C394.39 388.095 389.71 389.035 389.779 389.021C379.643 391.046 373.542 392.055 367.023 392.598C354.047 393.679 343.471 392.194 334.403 387.346C328.779 384.345 324.599 377.978 321.63 368.613C319.262 361.142 317.819 352.517 316.7 341.193C316.592 340.094 315.613 339.291 314.514 339.4C313.414 339.508 312.611 340.487 312.72 341.586C313.863 353.165 315.347 362.026 317.817 369.822C321.071 380.087 325.8 387.289 332.519 390.874C342.357 396.134 353.676 397.724 367.355 396.585C374.067 396.025 380.286 394.997 390.562 392.943C390.498 392.956 395.173 392.018 396.468 391.762C404.695 390.154 417.747 385.758 423.732 382.564C424.706 382.044 425.075 380.833 424.555 379.858C424.035 378.884 422.823 378.515 421.849 379.035Z" fill="#dc8173"/><path id="Path" d="M324.724 332.149C324.755 332.526 324.787 332.909 324.821 333.298C325.288 338.634 325.973 343.973 326.918 348.969C328.63 358.021 330.993 364.941 334.248 369.018C340.115 376.35 358.706 378.38 365.795 371.94C368.833 369.183 370.34 363.336 371.143 354.44C371.314 352.548 371.447 350.566 371.565 348.3C371.61 347.434 371.651 346.565 371.7 345.473C371.703 345.416 371.789 343.448 371.813 342.925C371.895 341.141 371.961 340.035 372.041 339.19C373.136 327.145 373.489 315.054 373.099 302.976C372.923 298.99 372.614 295.616 372.058 290.915C372.023 290.617 371.681 287.767 371.587 286.96C371.46 285.862 370.467 285.076 369.37 285.203C368.273 285.331 367.487 286.323 367.614 287.42C367.709 288.237 368.051 291.094 368.086 291.385C368.631 295.997 368.932 299.281 369.102 303.128C369.486 315.019 369.137 326.947 368.059 338.819C367.971 339.74 367.902 340.894 367.817 342.742C367.793 343.269 367.707 345.241 367.704 345.294C367.656 346.378 367.615 347.237 367.571 348.092C367.455 350.311 367.325 352.245 367.159 354.081C366.452 361.923 365.099 367.17 363.106 368.979C357.765 373.83 341.829 372.09 337.372 366.52C334.638 363.096 332.447 356.679 330.848 348.225C329.931 343.375 329.262 338.163 328.806 332.949C328.646 331.123 328.524 329.427 328.435 327.907C328.404 327.377 328.379 326.906 328.36 326.502C328.349 326.261 328.342 326.098 328.339 326.016C328.267 324.046 325.688 323.358 324.644 325.031C320.799 331.191 316.333 336.94 311.315 342.188C306.367 347.15 300.283 350.899 293.586 353.1C292.537 353.445 291.966 354.575 292.31 355.624C292.655 356.674 293.786 357.245 294.835 356.9C302.129 354.503 308.756 350.42 314.177 344.982C318.023 340.96 321.544 336.674 324.724 332.149Z" fill="#dc8173"/></g><g id="Grip/Wear" transform="scale(1 1)"><g id="Grip/Wear/Tattoo"><g id="clothing"><g id="Group" opacity="0.4"><path id="Combined Shape" fill-rule="evenodd" clip-rule="evenodd" d="M217.894 296.614C217.482 294.912 216.993 293.518 216.331 292.264C215.3 290.31 213.914 288.7 211.495 286.483C210.585 289.675 208.89 292.608 206.122 296.343C202.913 300.717 202.268 302.554 201.875 308.296L201.875 308.298C202.169 308.33 202.472 308.366 202.783 308.406C202.936 308.426 203.092 308.446 203.256 308.468L203.506 308.501C205.941 308.826 206.447 308.894 206.955 308.899C207.088 308.901 207.222 308.898 207.39 308.895L207.392 308.895C207.404 308.87 207.416 308.845 207.429 308.82C208.981 305.865 209.902 302.62 210.135 299.291C210.212 298.189 211.168 297.358 212.27 297.435C213.371 297.512 214.202 298.468 214.125 299.57C213.93 302.364 213.318 305.107 212.317 307.71C212.82 307.732 213.295 307.947 213.646 308.296C214.99 306.209 216.95 304.32 219.157 302.885L219.15 302.854C218.985 302.131 218.851 301.448 218.635 300.285C218.244 298.167 218.132 297.597 217.894 296.614ZM222.847 301.015C222.767 300.615 222.679 300.154 222.569 299.557C222.162 297.359 222.044 296.756 221.782 295.674C221.298 293.673 220.703 291.977 219.869 290.397C218.448 287.705 216.609 285.671 213.353 282.772C213.251 282.68 212.983 282.443 212.679 282.175L212.678 282.173C212.241 281.787 211.731 281.336 211.533 281.159C210.319 280.074 208.386 280.817 208.212 282.436C207.787 286.373 206.292 289.395 202.903 293.969C199.229 298.977 198.328 301.542 197.885 308.024C197.882 308.066 197.88 308.107 197.88 308.149C196.456 308.254 195.276 308.589 194.196 309.235C194.083 309.105 193.966 308.976 193.845 308.848C193.3 308.269 192.776 307.768 192.254 307.337C193.437 302.302 193.398 299.566 191.737 295.563C190.364 292.26 190.059 289.814 190.873 287.143C191.298 285.75 190.139 284.385 188.695 284.578C183.146 285.32 179.677 288.232 176.685 293.988C175.042 297.083 174.077 300.254 174.261 303.025C173.987 302.917 173.703 302.804 173.408 302.685C172.526 302.329 171.515 302.644 170.991 303.438C170.818 303.699 170.612 304.042 170.268 304.632C170.214 304.725 170.068 304.976 169.959 305.162L169.837 305.372C169.66 305.676 169.518 305.918 169.38 306.151C169.289 306.305 169.201 306.451 169.118 306.59C168.966 306.841 168.822 307.073 168.69 307.281C168.968 305.921 169.041 305.113 169.02 304.012C168.974 301.602 168.145 299.483 166.351 297.535C165.634 296.754 164.879 296.002 163.938 295.117C163.683 294.878 163.423 294.636 163.084 294.322L163.022 294.266C162.855 294.111 162.399 293.69 162.25 293.552C159.141 290.674 157.687 288.95 156.498 286.357C156.006 285.283 154.694 284.867 153.673 285.462C149.212 288.06 147.626 298.749 149.202 304.934C150.562 310.273 153.378 314.613 157.467 316.286C155.721 316.866 153.954 317.858 151.476 319.473C151.313 319.58 151.165 319.677 150.856 319.879C147.63 321.99 145.647 323.043 143.727 323.367C143.598 322.53 143.485 321.627 143.299 320.041C143.163 318.883 143.096 318.339 143.006 317.674C142.702 315.422 142.347 313.638 141.801 311.87C141.763 311.748 141.623 311.268 141.429 310.602L141.428 310.6C140.917 308.846 140.03 305.803 139.633 304.591C136.95 296.404 133.584 291.845 127.784 291.572C122.901 291.437 118.06 291.946 113.35 293.086C112.597 293.265 111.82 293.476 111.022 293.717C108.392 294.513 105.848 295.513 102.096 297.148C101.89 297.238 101.37 297.466 100.8 297.716L100.795 297.717C100.333 297.92 99.8378 298.137 99.4521 298.306C98.3767 298.603 97.4324 299.452 96.7617 300.755C95.8658 302.496 95.9004 304.86 96.4808 308.418C96.5811 309.034 96.6947 309.665 96.8447 310.456L96.8466 310.466L96.8466 310.466L96.8466 310.466L96.8467 310.466C97.4096 313.434 97.4971 313.896 97.5279 314.361C97.5336 314.447 97.5373 314.532 97.5418 314.634L97.5419 314.637C97.6398 317.951 96.9688 320.536 94.8852 326.143C94.0372 328.496 93.0888 330.167 90.7108 333.82L90.7078 333.825C88.606 337.053 87.7101 338.565 86.7788 340.686C86.1198 342.186 87.4463 343.799 89.0458 343.442C93.0122 342.556 96.875 341.258 100.571 339.569C100.904 339.415 101.098 339.318 101.733 338.994C101.916 338.901 102.032 338.842 102.151 338.783C102.931 338.393 103.423 338.198 103.781 338.137C103.836 338.127 103.874 338.121 103.901 338.116C103.912 338.143 103.923 338.171 103.935 338.202C104.036 338.458 104.146 338.806 104.264 339.241C104.315 339.43 104.424 339.863 104.526 340.271C104.624 340.662 104.716 341.03 104.746 341.137C104.848 341.495 105.042 341.803 105.295 342.042L105.29 342.067C103.852 349.378 103.097 354.774 102.901 360.249C102.384 369.511 103.135 378.84 105.137 387.94C106.642 394.18 108.835 398.379 112.889 399.798C118.285 401.68 123.987 402.522 129.695 402.278C134.099 401.897 137.11 401.281 139.439 399.845C139.371 400.997 139.323 401.671 139.258 402.389C139.076 404.396 141.641 405.382 142.85 403.77C144.119 402.078 145.906 401.511 148.968 401.588C149.573 401.603 150.107 401.634 151.163 401.709C154.008 401.908 155.101 401.92 156.491 401.613C161.517 400.543 165.287 397.563 166.293 393.101C171.141 394.808 178.004 394.285 180.895 390.818C180.928 390.846 180.961 390.874 180.995 390.901C180.429 391.968 179.838 393.337 179.268 394.861C177.55 395.068 175.786 395.699 174.143 396.722C173.239 397.26 172.372 397.93 171.595 398.697L171.583 398.708C169.932 400.365 169.16 402.237 169.086 404.457C169.036 405.97 169.116 406.491 169.839 410.261C169.922 410.693 169.988 411.054 170.05 411.405C170.51 413.991 171.452 415.605 173.69 418.436L173.882 418.678C175.339 420.521 175.934 421.451 176.325 422.67C176.899 424.46 179.4 424.542 180.09 422.795C181.597 418.98 183.634 415.398 186.142 412.153C187.632 410.128 188.583 408.343 188.997 406.572C191.797 409.334 196.14 411.819 198.85 411.656C199.744 411.603 200.494 410.961 200.684 410.086C200.884 409.167 200.915 408.296 200.85 407.113C200.84 406.934 200.831 406.792 200.811 406.48C200.722 405.142 200.724 404.597 200.853 404.01C201.055 403.114 201.478 402.27 202.505 400.589C203.294 399.297 203.517 398.918 203.849 398.254C205.575 394.742 205.888 392.087 204.792 389.142C205.005 389.198 205.165 389.28 205.281 389.388C206.387 390.411 208.185 389.891 208.573 388.435C209.178 386.163 210.626 384.932 214.527 382.884L214.641 382.825C216.257 385.741 218.708 388.126 221.697 389.66C223.216 390.433 224.535 390.723 227.535 391.146L227.89 391.197C231.225 391.67 232.657 392.139 233.657 393.261C234.852 394.6 237.069 393.811 237.148 392.018C237.207 390.681 236.947 389.546 236.345 387.861C236.293 387.717 236.261 387.63 236.155 387.338C235.737 386.19 235.574 385.67 235.47 385.077C235.181 383.376 235.089 381.62 235.115 379.217C235.121 378.66 235.13 378.213 235.153 377.195C235.201 375.083 235.211 374.129 235.179 372.917C235.028 367.08 231.244 362.806 225.648 360.888L225.632 360.883L225.599 360.872C225.832 359.303 225.943 357.993 226.096 355.566C226.197 353.573 226.525 352.343 227.242 350.954C227.419 350.612 228.022 349.593 228.618 348.586L228.618 348.585C229.119 347.74 229.614 346.903 229.848 346.481C230.46 345.381 229.915 343.996 228.717 343.608C226.996 343.049 226.339 342.317 225.387 340.169C225.269 339.903 224.813 338.843 224.838 338.901C224.593 338.335 224.391 337.888 224.172 337.433C223.427 335.858 222.508 334.374 221.434 333.008C221.499 332.86 221.546 332.702 221.573 332.536C221.668 331.963 221.782 331.408 221.95 330.674C222.549 328.055 222.669 327.487 222.676 326.524C229.807 324.862 234.451 321.915 236.558 316.169C237.053 314.817 237.233 313.637 237.487 310.945C237.517 310.635 237.53 310.495 237.546 310.328C237.954 306.126 238.596 304.597 240.468 304.022C242.597 303.367 242.223 300.246 239.999 300.114C239.336 300.074 238.866 300.042 237.543 299.947C235.541 299.803 234.551 299.742 233.369 299.7C229.155 299.55 225.887 299.889 222.847 301.015ZM104.324 300.542C104.742 301.046 105.155 301.626 105.568 302.276C107.214 304.867 108.941 308.903 109.343 310.74C111.446 320.285 112.069 328.887 110.609 335.993C110.541 336.324 110.493 336.558 110.377 337.122C109.731 340.254 109.521 341.281 109.214 342.839C107.814 349.96 107.085 355.168 106.897 360.432C106.398 369.371 107.12 378.336 109.034 387.041C110.221 391.961 111.924 395.222 114.209 396.022C119.125 397.737 124.322 398.504 129.437 398.288C134.641 397.836 137.304 397.04 139.068 394.906C139.283 394.647 139.549 394.455 139.839 394.334C139.916 393.626 140.004 392.963 140.106 392.335C137.879 390.724 136.661 388.399 136.284 385.167C135.975 382.581 136.264 380.476 137.102 377.701C137.183 377.431 137.27 377.153 137.379 376.81C137.408 376.719 137.481 376.491 137.546 376.288L137.658 375.936C137.767 375.594 137.863 375.285 137.95 374.998C137.688 374.922 137.427 374.84 137.168 374.752L137.025 374.711C136.933 374.685 136.84 374.658 136.243 374.483C135.549 374.281 135.143 374.165 134.714 374.051C131.982 373.326 130.366 373.316 129.167 374.102C127.522 375.181 125.471 373.487 126.221 371.668C126.736 370.418 127.194 369.13 127.83 367.2C127.892 367.013 127.956 366.817 128.033 366.58L128.237 365.957C129.875 360.949 130.809 358.63 132.446 356.172C134.318 353.36 136.734 351.346 139.899 350.151C137.467 347.398 135.972 343.477 136.071 339.541C136.125 337.347 136.7 335.808 138.193 332.932C138.391 332.551 138.441 332.453 138.491 332.356L138.551 332.24C139.952 329.504 140.229 328.092 139.456 326.18C139.154 325.435 139.334 324.66 139.796 324.123C139.649 323.186 139.529 322.232 139.326 320.508C139.193 319.373 139.128 318.844 139.043 318.209C138.765 316.158 138.45 314.576 137.98 313.054C137.934 312.905 137.773 312.354 137.557 311.612C137.038 309.834 136.199 306.956 135.832 305.837C133.627 299.108 131.136 295.734 127.635 295.569C123.144 295.445 118.657 295.918 114.282 296.976C113.602 297.137 112.903 297.327 112.18 297.546C109.88 298.242 107.6 299.126 104.324 300.542ZM150.085 377.397C146.297 378.804 143.048 383.098 141.272 387.882C140.734 387.077 140.415 386.054 140.257 384.698C140.022 382.733 140.239 381.149 140.931 378.857C141.006 378.608 141.088 378.348 141.191 378.021C141.218 377.936 141.286 377.725 141.348 377.529L141.354 377.512L141.47 377.148C141.642 376.607 141.787 376.136 141.914 375.701C144.315 375.87 146.758 375.59 149.098 374.856C149.158 375.001 149.2 375.104 149.244 375.213C149.59 376.058 149.864 376.765 150.085 377.397ZM147.698 371.101C145.694 371.699 143.598 371.881 141.539 371.645C141.345 371.521 141.127 371.429 140.889 371.377C140.58 371.309 140.273 371.316 139.986 371.387C139.438 371.266 138.895 371.116 138.36 370.935L138.222 370.894C138.061 370.847 138.036 370.84 137.364 370.644C136.64 370.432 136.21 370.31 135.74 370.185C134.054 369.738 132.596 369.489 131.281 369.495C131.392 369.167 131.508 368.82 131.629 368.452L131.694 368.256L131.835 367.824L132.039 367.2C135.032 358.047 137.144 354.875 142.765 353.438C143.081 353.357 143.36 353.205 143.589 353.004C145.412 353.881 147.456 354.189 149.59 353.7C149.927 354.781 150.373 355.802 150.925 356.757L150.876 356.809C150.497 356.579 150.04 356.473 149.566 356.539C142.831 357.469 137.085 359.741 133.719 363.743C133.008 364.588 133.117 365.85 133.963 366.561C134.808 367.272 136.07 367.163 136.781 366.317C139.067 363.598 143.181 361.765 148.156 360.821C146.773 363.923 146.649 367.424 147.698 371.101ZM153.661 322.824C156.202 321.168 157.799 320.307 159.352 319.905C159.514 320.484 159.721 321.159 159.982 321.985C160.265 322.88 160.421 323.404 160.56 323.957C158.762 324.744 157.332 325.845 154.796 328.099L154.747 328.142C151.952 330.626 150.651 331.534 148.819 332.029C147.652 332.344 147.029 333.613 147.494 334.729C147.624 335.041 147.913 335.687 148.157 336.233L148.157 336.233C148.338 336.635 148.493 336.982 148.543 337.102C148.908 337.983 149.083 338.678 149.144 339.637C149.221 340.924 149.179 341.993 149.004 344.389C148.859 346.372 148.812 347.244 148.82 348.374C148.82 348.846 148.836 349.31 148.868 349.766C148.822 349.774 148.777 349.783 148.731 349.793C144.339 350.829 139.927 345.326 140.069 339.64C140.104 338.244 140.52 337.131 141.743 334.775L141.746 334.768C141.943 334.389 141.995 334.288 142.047 334.188L142.111 334.063C143.434 331.48 144.066 329.491 143.867 327.408C146.604 327.093 149.11 325.801 153.046 323.226C153.355 323.024 153.5 322.929 153.661 322.824ZM162.529 391.321C162.377 391.239 162.22 391.153 162.058 391.063C162 391.032 161.844 390.946 161.657 390.842C161.335 390.664 160.92 390.435 160.762 390.348C160.283 390.086 159.897 389.88 159.53 389.692C156.594 388.188 154.581 387.793 152.105 388.494C150.675 388.899 149.318 387.658 149.595 386.198C149.738 385.442 149.916 384.793 150.195 383.927C150.225 383.834 150.303 383.594 150.351 383.448L150.368 383.396L150.389 383.332C150.459 383.116 150.511 382.953 150.557 382.798C150.709 382.289 150.805 381.857 150.845 381.434C148.333 382.78 145.822 386.526 144.624 390.45C144.128 392.088 143.84 394.029 143.642 396.706C143.602 397.239 143.576 397.635 143.533 398.365C145.099 397.753 146.925 397.535 149.069 397.589C149.752 397.607 150.329 397.64 151.443 397.718C153.859 397.888 154.766 397.898 155.643 397.704C159.623 396.856 162.217 394.617 162.529 391.321ZM175.92 409.342C175.883 407.015 176.676 403.128 177.784 399.344C177.265 399.551 176.742 399.815 176.223 400.139C175.565 400.53 174.956 401 174.411 401.538C172.785 403.172 172.752 404.208 173.767 409.508C173.854 409.96 173.924 410.34 173.989 410.71C174.299 412.454 174.975 413.611 176.828 415.955L177.021 416.198C177.41 416.691 177.752 417.135 178.055 417.548C179.433 414.786 181.075 412.168 182.949 409.745C185.443 406.353 185.808 404.503 184.451 401.336C183.961 400.188 183.11 399.43 182.052 399.062C180.842 402.883 179.885 407.094 179.92 409.278C179.937 410.383 179.056 411.292 177.952 411.31C176.847 411.327 175.938 410.446 175.92 409.342ZM184.764 392.351C184.334 393.082 183.869 394.086 183.403 395.251C183.925 395.43 184.426 395.661 184.899 395.946C184.818 394.757 184.825 393.562 184.922 392.369C184.882 392.365 184.842 392.36 184.803 392.356L184.764 392.351ZM200.6 389.52C199.309 389.787 197.706 390.174 195.725 390.691L195.37 390.783L194.982 390.884C195.021 392.775 195.291 394.656 195.79 396.484C196.08 397.55 195.451 398.649 194.386 398.94C193.32 399.23 192.221 398.602 191.93 397.536C191.422 395.669 191.115 393.756 191.014 391.829C190.276 391.983 189.593 392.107 188.955 392.203C188.61 395.454 189.067 398.747 190.291 401.782C190.968 403.435 194.414 406.14 196.849 407.21C196.842 407.093 196.834 406.964 196.819 406.745C196.706 405.031 196.709 404.23 196.949 403.141C197.28 401.669 197.84 400.553 199.092 398.504C199.813 397.322 200.01 396.987 200.265 396.478C201.696 393.567 201.817 391.917 200.6 389.52ZM224.731 364.808C224.274 366.238 223.68 367.429 222.908 368.375C222.69 368.645 222.465 368.901 222.234 369.142C222.416 369.381 222.546 369.665 222.605 369.98C222.623 370.073 222.64 370.165 222.655 370.257C222.686 370.303 222.715 370.35 222.742 370.398C224.349 373.249 226.222 375.941 228.336 378.438C229.05 379.281 228.945 380.543 228.102 381.256C227.259 381.97 225.997 381.865 225.284 381.022C224.11 379.637 223.006 378.195 221.974 376.703C221.668 377.336 221.285 377.93 220.826 378.487C220.061 379.413 219.264 380.115 218.125 380.859C219.357 383.096 221.233 384.925 223.518 386.098C224.492 386.594 225.55 386.827 228.094 387.186L228.452 387.236C229.901 387.442 231.098 387.657 232.12 387.933C231.812 387.048 231.654 386.475 231.528 385.755C231.191 383.768 231.087 381.794 231.115 379.173C231.121 378.595 231.13 378.138 231.154 377.104C231.201 375.057 231.21 374.147 231.181 373.022C231.08 369.142 228.641 366.271 224.731 364.808ZM188.043 297.098C189.227 299.949 189.353 301.806 188.594 305.381C187.592 305.101 186.479 304.954 185.169 304.899C185.179 304.66 185.147 304.415 185.066 304.174C184.725 303.155 184.975 301.673 185.834 299.698C186.275 298.685 185.81 297.506 184.797 297.066C183.784 296.625 182.606 297.09 182.166 298.103C181.062 300.64 180.629 302.833 181.1 304.835C180.29 304.777 179.523 304.665 178.719 304.484C177.728 302.668 178.435 299.221 180.226 295.848C182.065 292.311 183.901 290.274 186.445 289.247C186.295 291.746 186.857 294.243 188.043 297.098ZM221.851 322.609C227.741 321.223 231.273 318.962 232.802 314.792C233.134 313.885 233.285 312.898 233.505 310.568C233.534 310.257 233.548 310.113 233.565 309.942C233.82 307.317 234.206 305.306 234.938 303.78C234.31 303.742 233.789 303.717 233.227 303.697C229.466 303.564 226.666 303.857 224.192 304.783C219.874 306.401 215.678 310.749 215.779 314.13C215.788 314.418 215.735 314.694 215.633 314.945C215.844 315.26 216.082 315.572 216.352 315.892C217.951 313.317 220.827 310.849 224.431 308.446C225.35 307.833 226.591 308.082 227.204 309.001C227.817 309.92 227.568 311.161 226.649 311.774C222.959 314.234 220.085 316.873 219.232 319.017C219.59 319.408 219.906 319.76 220.124 320.015C220.871 320.894 221.441 321.75 221.851 322.609ZM160.315 297.211L160.37 297.261C160.701 297.567 160.953 297.801 161.198 298.031C162.073 298.854 162.762 299.54 163.406 300.242C165.405 302.413 165.433 303.875 164.157 309.148C164.103 309.372 164.056 309.567 164.013 309.749C163.57 309.904 163.194 310.067 162.838 310.265C160.169 306.449 158.291 302.136 157.316 297.581C157.084 296.501 156.021 295.813 154.941 296.044C153.861 296.276 153.173 297.339 153.404 298.419C154.512 303.593 156.665 308.486 159.73 312.799L159.744 312.819C159.756 312.835 159.768 312.851 159.781 312.867C159.705 312.834 159.626 312.805 159.545 312.781C156.594 311.913 154.229 308.465 153.078 303.946C152.14 300.264 152.778 293.884 154.31 290.679C155.54 292.571 157.118 294.253 159.532 296.488C159.685 296.629 160.149 297.057 160.313 297.208L160.315 297.211ZM183.134 308.88C187.374 308.808 188.709 309.229 190.934 311.592C194.182 315.036 193.332 319.468 189.266 322.533L189.24 322.553C186.623 321.05 183.684 319.961 181.891 320.14C180.484 320.281 179.663 321.798 180.315 323.053C180.703 323.797 181.076 324.548 181.435 325.304C180.248 325.615 178.938 326.14 177.593 326.814C177.328 326.278 176.826 325.866 176.195 325.739C175.138 325.527 174.247 325.246 172.325 324.563C171.766 324.364 171.584 324.299 171.301 324.201C168.563 323.251 166.463 322.794 164.43 322.944C164.268 322.308 164.096 321.728 163.796 320.779C162.419 316.422 162.456 315.369 164.545 313.91C164.914 313.651 165.441 313.46 166.557 313.167L166.783 313.108C168.775 312.588 169.656 312.25 170.596 311.371C171.141 310.863 171.718 310.021 172.541 308.658C172.631 308.509 172.724 308.355 172.821 308.191C172.777 308.265 173.128 307.662 173.506 307.021C177.316 308.469 179.636 308.939 183.134 308.88ZM170.985 328.331C172.075 328.719 172.873 328.992 173.571 329.201C171.127 330.873 168.862 332.834 167.324 334.68C167.203 334.824 167.106 334.981 167.033 335.145C166.915 335.124 166.795 335.102 166.673 335.081C166.035 334.969 165.908 334.947 165.664 334.903C163.191 334.305 160.779 333.482 158.456 332.444C156.831 331.718 155.139 333.316 155.77 334.979C156.553 337.042 158.035 338.34 160.736 339.937C160.796 339.973 160.967 340.072 161.175 340.194L161.465 340.363C158.1 343.854 156.628 346.663 157.271 350.28C157.587 352.046 158.551 354.186 159.816 356.031C159.068 356.825 158.398 357.617 157.811 358.41C154.499 356.096 152.82 352.762 152.82 348.36C152.813 347.359 152.856 346.557 152.993 344.681C153.181 342.11 153.228 340.92 153.136 339.39C153.045 337.958 152.764 336.838 152.238 335.569C152.199 335.476 152.124 335.307 152.032 335.098C153.629 334.332 155.126 333.157 157.405 331.132L157.454 331.089C160.006 328.82 161.182 327.958 162.796 327.369C164.852 326.618 166.705 326.84 169.989 327.98C170.259 328.073 170.436 328.136 170.985 328.331ZM155.516 370.353C154.539 367.317 154.684 364.55 155.799 361.88C154.926 361.294 154.133 360.652 153.42 359.955C150.827 362.937 150.35 366.652 151.826 370.898C152.048 371.498 152.258 372.024 152.676 373.04C152.811 373.367 152.875 373.525 152.947 373.699C153.931 376.107 154.428 377.596 154.722 379.349C155.002 381.017 154.868 382.342 154.389 383.945L154.364 384.027L154.345 384.089L154.326 384.15C156.604 384.135 158.8 384.824 161.353 386.131C161.758 386.339 162.175 386.561 162.684 386.841C162.851 386.932 163.28 387.169 163.605 387.348L163.986 387.559C165.233 388.245 166.079 388.679 166.965 389.069C170.632 390.681 177.135 390.147 178.112 387.785C178.271 387.401 178.536 387.093 178.858 386.881C178.786 386.408 178.748 385.907 178.744 385.379C177.841 385.363 176.733 385.272 174.862 385.094C174.109 385.022 173.674 384.982 173.207 384.945C169.334 384.635 167.242 384.963 166.26 386.11C165.092 387.476 162.855 386.728 162.744 384.934C162.588 382.423 161.771 380.71 159.552 377.564C159.458 377.432 159.342 377.267 159.131 376.969L159.13 376.967L159.119 376.953C157.16 374.181 156.232 372.588 155.516 370.353ZM196.295 312.684C197.899 316.923 196.446 321.563 192.65 324.929C192.761 325.025 192.869 325.121 192.973 325.217C193.324 325.038 193.732 324.961 194.152 325.019C197.752 325.512 200.788 327.429 203.254 330.409C206.225 328.432 207.69 327.649 209.625 327.191C212.471 326.519 215.182 327.202 217.91 329.405C217.974 329.458 218.037 329.51 218.101 329.563C218.64 327.201 218.686 326.931 218.674 326.141C218.656 325.003 218.23 323.964 217.08 322.61C216.631 322.085 215.631 321.01 214.775 320.09C214.132 319.399 213.57 318.794 213.382 318.574C211.806 316.731 210.897 314.938 210.485 312.487C209.515 312.745 208.569 312.873 207.589 312.892C206.844 312.906 206.09 312.86 205.179 312.756C204.829 312.717 204.469 312.67 203.978 312.604C203.997 312.606 203.018 312.472 202.727 312.433C202.57 312.412 202.422 312.392 202.276 312.374C199.238 311.986 197.546 312.009 196.295 312.684ZM184.757 388.304C183.254 388.013 182.6 387.175 182.744 384.9C186.812 383.825 190.287 381.006 191.851 377.19L191.96 377.199C192.044 377.401 192.123 377.595 192.199 377.784C193.103 380.018 193.627 381.636 193.766 382.724C194.1 385.337 198.01 384.885 197.739 382.265C197.694 381.823 198.348 378.862 199.46 374.569C199.522 374.33 199.586 374.086 199.652 373.832C199.676 373.739 199.733 373.523 199.812 373.225C199.911 373.191 200.01 373.148 200.106 373.098C202.462 371.85 204.482 370.082 206.023 367.947C209.521 371.77 214.555 373.304 218.806 371.529C219.288 375.138 217.901 376.599 213.109 379.111L212.668 379.342C208.876 381.333 206.745 382.878 205.525 385.239C204.471 385.029 203.239 385.047 201.808 385.235C200.032 385.467 198.706 385.779 194.716 386.82C194.262 386.938 193.932 387.024 193.608 387.107C189.108 388.261 186.543 388.651 184.757 388.304ZM187.631 376.712C179.35 375.509 173.405 372.878 169.651 367.679C169.506 367.765 169.356 367.849 169.198 367.932C168.223 368.442 167.5 368.708 165.876 369.224C164.146 369.774 163.417 370.075 162.564 370.67C161.221 371.608 159.382 370.621 159.421 368.983C159.46 367.313 160.269 365.48 161.716 363.227C162.14 362.567 162.613 361.88 163.165 361.117C163.298 360.934 163.635 360.48 164.026 359.953C163.517 359.738 163.005 359.418 162.501 359.017C159.278 362.517 158.179 365.57 159.325 369.13C159.882 370.871 160.648 372.186 162.386 374.644L162.393 374.654C162.605 374.953 162.724 375.122 162.82 375.259C164.54 377.696 165.6 379.519 166.184 381.461C168.035 380.791 170.399 380.708 173.525 380.958C174.018 380.997 174.47 381.038 175.242 381.112C177.917 381.367 178.875 381.425 179.883 381.346C183.133 381.091 186.099 379.302 187.631 376.712ZM205.518 333.709C206.378 335.211 207.141 336.873 207.807 338.671C211.035 347.461 211.228 356.392 208.066 364.223C208.184 364.318 208.293 364.429 208.39 364.553C211.612 368.703 216.769 369.619 219.801 365.855C220.62 364.853 221.235 362.978 221.621 360.428C221.847 358.94 221.953 357.707 222.103 355.339C222.23 352.805 222.708 351.017 223.688 349.119C223.92 348.67 224.622 347.483 225.26 346.404C223.697 345.415 222.704 343.987 221.73 341.789C221.602 341.5 221.135 340.415 221.168 340.492C220.942 339.97 220.76 339.567 220.562 339.155C219.344 336.579 217.571 334.305 215.383 332.506C212.366 330.069 210.577 330.369 205.518 333.709ZM166.43 356.708C166.733 356.338 167.081 355.943 167.473 355.523C166.283 351.273 163.852 347.684 161.449 347.196C161.145 348.011 161.068 348.787 161.209 349.578C161.626 351.908 164.277 355.941 165.614 356.282C165.926 356.362 166.202 356.511 166.43 356.708ZM174.199 349.282C172.997 350.304 171.794 351.36 170.667 352.396C169.194 348.381 166.828 345.054 163.783 343.741C164.124 343.366 164.498 342.976 164.906 342.568C165.295 342.829 165.631 343.055 165.999 343.303C168.477 344.976 170.413 346.328 172.21 347.658C172.828 348.107 173.563 348.59 174.407 349.105L174.199 349.282ZM190.199 373.008C181.553 372.031 175.739 369.654 172.537 364.821C172.616 364.711 172.697 364.597 172.779 364.48C172.969 364.21 173.061 364.08 173.152 363.952C173.656 363.246 174.018 362.807 174.439 362.418C175.289 361.618 176.272 361.096 178.613 360.095L178.711 360.053C182.623 358.38 184.435 357.252 185.607 354.966L185.71 355.016C186.445 355.364 187.127 355.683 187.739 355.966C187.94 356.059 188.111 356.137 188.247 356.2C188.245 356.529 188.241 356.913 188.235 357.519C188.214 359.532 188.211 360.456 188.232 361.606C188.308 365.794 188.735 369.001 189.797 371.973C189.914 372.29 190.044 372.626 190.199 373.008ZM182 353.211C181.166 352.795 180.346 352.378 179.548 351.963C179.058 351.708 178.583 351.458 178.122 351.211C178.065 351.258 178.001 351.311 177.929 351.371C177.586 351.656 177.203 351.978 176.79 352.329C175.612 353.331 174.434 354.366 173.338 355.373C172.963 355.719 172.602 356.056 172.26 356.383C170.735 357.84 169.616 359.046 169.067 359.845C168.794 360.24 167.861 361.498 167.166 362.434L167.166 362.435C166.809 362.915 166.516 363.311 166.406 363.462C165.934 364.114 165.529 364.699 165.171 365.25C166.221 364.909 166.731 364.708 167.342 364.388C168.116 363.983 168.596 363.473 169.51 362.176C169.697 361.91 169.797 361.768 169.896 361.629C170.545 360.72 171.061 360.094 171.71 359.493C173.01 358.27 174.262 357.605 177.04 356.417L177.138 356.375C180.083 355.116 181.328 354.367 182 353.211ZM175.134 338.31C173.914 337.323 172.784 336.68 171.36 336.183C174.508 332.986 179.918 329.552 183.079 329.038C184.894 333.509 186.243 338.15 187.107 342.886C186.189 342.699 185.105 342.624 183.518 342.572L183.425 342.569L183.247 342.563C183.156 342.56 183.086 342.557 183.007 342.554C181.681 342.506 180.889 342.424 180.166 342.235C179.083 341.952 178.417 341.494 177.301 340.37C177.186 340.254 176.762 339.823 176.765 339.826C176.533 339.591 176.351 339.409 176.163 339.228C175.814 338.892 175.482 338.594 175.134 338.31ZM187.328 347.155C187.472 347.223 187.62 347.273 187.769 347.306C187.942 348.779 188.069 350.259 188.149 351.744C187.914 351.634 187.673 351.52 187.426 351.402C185.368 350.425 183.31 349.41 181.393 348.414C180.593 347.998 179.833 347.593 179.12 347.202C177.172 346.133 175.621 345.192 174.576 344.433C172.738 343.072 170.758 341.69 168.237 339.988C167.856 339.731 167.51 339.498 167.105 339.227C169.877 339.763 171.194 340.267 172.612 341.415C172.861 341.618 173.113 341.844 173.388 342.109C173.546 342.262 173.706 342.421 173.916 342.634C173.905 342.623 174.338 343.064 174.463 343.19C176.037 344.774 177.248 345.606 179.154 346.105C180.233 346.387 181.262 346.493 182.86 346.552C183.007 346.557 183.126 346.561 183.387 346.57C185.608 346.643 186.5 346.759 187.328 347.155ZM201.63 358.394C202.455 360.898 202.269 363.472 201.363 367.263C202.543 366.095 203.499 364.71 204.17 363.176C207.133 356.228 207.021 348.133 204.055 340.055C202.128 334.856 199.373 331.173 195.983 329.663C196.698 331.608 196.693 333.657 196.136 336.308C195.783 337.962 195.901 338.637 196.505 339.498C196.581 339.606 196.881 339.974 197.259 340.435L197.259 340.436L197.259 340.436L197.26 340.437C197.867 341.18 198.674 342.168 199.065 342.711C200.855 345.163 201.03 346.906 200.557 351.116C200.347 352.962 200.355 353.963 200.554 354.936C200.577 355.049 200.59 355.124 200.601 355.185C200.606 355.217 200.611 355.246 200.617 355.274C200.658 355.49 200.729 355.701 201.334 357.511L201.63 358.394ZM195.782 372.821C195.715 373.077 195.651 373.324 195.588 373.565C195.48 373.982 195.377 374.382 195.279 374.767C195.136 374.429 194.902 373.879 194.702 373.406L194.701 373.405L194.535 373.014C194.445 372.802 194.374 372.635 194.342 372.558C193.985 371.711 193.741 371.108 193.556 370.608C192.675 368.14 192.3 365.326 192.232 361.534C192.212 360.434 192.214 359.535 192.235 357.56C192.244 356.598 192.248 356.19 192.25 355.668C192.27 345.174 190.072 334.815 185.819 325.263C187.803 326.245 189.96 327.668 190.842 328.764C192.596 330.932 192.871 332.395 192.223 335.479C191.647 338.178 191.964 339.99 193.23 341.795C193.385 342.015 193.855 342.592 194.362 343.216C194.934 343.918 195.553 344.679 195.828 345.06C196.86 346.473 196.951 347.386 196.582 350.667C196.329 352.894 196.339 354.294 196.635 355.738C196.75 356.299 196.905 356.859 197.136 357.574C197.251 357.933 197.7 359.259 197.809 359.583L197.809 359.583L197.833 359.654C198.399 361.371 198.179 363.569 197.281 367.108C197.114 367.765 196.493 370.122 196.1 371.612C195.942 372.212 195.821 372.67 195.782 372.821ZM120.462 377.828L120.361 377.954C120.126 378.248 119.886 378.548 119.642 378.852C120.41 378.865 121.174 378.878 121.92 378.89L122.59 378.901C126.315 378.963 128.811 379 129.44 379C130.545 379 131.44 379.895 131.44 381C131.44 382.105 130.545 383 129.44 383C128.776 383 126.292 382.963 122.523 382.901L121.853 382.89C120.415 382.866 118.91 382.84 117.431 382.814L116.009 382.789L115.474 382.78C113.806 382.75 112.905 380.81 113.96 379.516L114.241 379.171C114.465 378.895 114.715 378.588 114.984 378.255C115.752 377.307 116.52 376.353 117.237 375.456L117.336 375.332C117.978 374.529 118.539 373.82 119 373.229C118.318 372.653 117.547 371.922 116.666 371.038C116.413 370.784 116.155 370.521 115.891 370.248C115.025 369.353 114.138 368.397 113.277 367.442C112.976 367.107 112.699 366.797 112.453 366.518C112.304 366.349 112.198 366.228 112.14 366.161C111.172 365.047 111.704 363.304 113.129 362.919C113.213 362.896 113.37 362.854 113.59 362.796C113.956 362.699 114.369 362.591 114.819 362.475C116.104 362.142 117.432 361.81 118.735 361.499C119.21 361.386 119.673 361.278 120.123 361.175C123.332 360.441 125.612 360.031 126.865 360.04C127.969 360.048 128.858 360.95 128.85 362.055C128.842 363.159 127.94 364.048 126.835 364.04C126.02 364.034 123.879 364.42 121.015 365.074C120.577 365.174 120.126 365.28 119.663 365.39C118.894 365.574 118.115 365.765 117.341 365.96C117.818 366.475 118.296 366.981 118.766 367.467C119.017 367.726 119.261 367.975 119.499 368.214C121.007 369.727 122.223 370.768 122.621 370.934C123.802 371.428 124.222 372.889 123.483 373.934C123.004 374.612 121.952 375.963 120.462 377.828ZM116.26 353.438C113.226 350.464 112.804 346.872 114.839 343.965C116.549 341.521 119.755 340.014 122.793 340.214C126.456 340.459 129.176 343.038 129.768 347.325C130.896 354.894 121.301 358.35 116.26 353.438ZM119.056 350.578C121.575 353.032 126.32 351.323 125.809 347.894C125.471 345.45 124.283 344.323 122.528 344.206C120.875 344.097 119.017 344.971 118.116 346.258C117.227 347.528 117.394 348.949 119.056 350.578ZM121.302 330.398L121.27 330.416C120.839 330.666 120.477 330.884 120.174 331.08C120.829 331.239 121.561 331.383 122.357 331.51C123.811 331.741 125.382 331.902 126.955 332.004C127.507 332.04 128.019 332.066 128.478 332.083C128.749 332.094 128.94 332.099 129.035 332.1C130.14 332.12 131.019 333.031 131 334.135C130.98 335.24 130.069 336.119 128.965 336.1C128.843 336.098 128.626 336.092 128.326 336.08C127.834 336.062 127.286 336.034 126.696 335.996C125.008 335.887 123.318 335.713 121.728 335.46C119.292 335.072 117.302 334.534 115.849 333.77C114.998 333.323 114.586 332.333 114.868 331.413C115.475 329.437 116.576 328.512 119.266 326.954L119.297 326.936C119.956 326.555 120.438 326.258 120.798 326.003C120.604 325.779 120.389 325.532 120.142 325.25L119.829 324.892C117.248 321.942 116.053 320.436 114.85 318.411C114.173 317.271 114.773 315.799 116.055 315.458C116.918 315.227 117.21 315.191 122.847 314.54C124.41 314.359 125.481 314.228 126.414 314.099C127.462 313.955 128.228 313.825 128.679 313.716C129.753 313.456 130.834 314.116 131.094 315.19C131.354 316.263 130.694 317.344 129.621 317.604C129.005 317.753 128.133 317.9 126.961 318.062C125.991 318.195 124.896 318.329 123.306 318.513C121.898 318.676 120.834 318.799 120.018 318.896C120.728 319.812 121.612 320.856 122.839 322.258L123.153 322.617C123.997 323.582 124.49 324.155 125.011 324.786C125.54 325.425 125.619 326.323 125.211 327.045C124.43 328.426 123.508 329.12 121.302 330.398ZM123.11 308V307.41C123.11 306.305 122.215 305.41 121.11 305.41C120.005 305.41 119.11 306.305 119.11 307.41V308C119.11 309.105 120.005 310 121.11 310C122.215 310 123.11 309.105 123.11 308ZM124.752 387.944C125.529 388.729 125.522 389.996 124.736 390.772C124.028 391.472 122.93 391.535 122.151 390.966C121.203 390.789 120.496 389.946 120.521 388.951C120.548 387.846 121.465 386.973 122.569 387.001C123.392 387.021 124.174 387.359 124.752 387.944ZM99.9163 335.43C100.108 335.332 100.233 335.269 100.364 335.204C103.096 333.84 104.901 333.532 106.691 335.185C108.016 328.738 107.43 320.645 105.436 311.598C105.138 310.235 103.596 306.631 102.192 304.421C101.523 303.369 100.899 302.636 100.466 302.32C100.426 302.387 100.376 302.474 100.319 302.585C99.9632 303.276 99.9897 305.084 100.429 307.775C100.523 308.35 100.63 308.95 100.775 309.71C100.818 309.937 100.94 310.574 100.997 310.871L100.997 310.873L100.998 310.877L100.998 310.878L101.027 311.026C101.125 311.538 101.195 311.915 101.257 312.268C101.421 313.201 101.513 313.888 101.539 314.491C101.658 318.511 100.892 321.461 98.6416 327.518C97.6627 330.234 96.6054 332.097 94.0632 336.002L94.0602 336.007C93.4622 336.925 92.9701 337.692 92.5521 338.367C94.7172 337.69 96.8376 336.878 98.8983 335.936C99.1574 335.816 99.3306 335.729 99.9163 335.43Z" fill="black"/></g></g></g></g><g id="Grip/Item" transform="scale(1 1)"><g id="Grip/Item/Cash"><g id="items"><path id="Path" d="M463 430.56C462.45 430.31 461.95 430.08 461.55 429.87C453.29 425.777 445.956 420.035 440 413C438.09 410.67 436.29 408.18 434.56 405.77C432.83 403.36 431.1 400.96 429.19 398.62C426.26 395.03 423.07 391.33 419.44 387.31C418.792 386.611 418.083 385.972 417.32 385.4C410.54 388.08 403.553 390.207 396.43 391.76L392.78 392.49C382.08 394.64 370.6 396.95 359.33 396.95C353.637 397.008 347.963 396.298 342.46 394.84C342.46 394.84 341.46 394.51 340.13 394.16C339.86 394.96 339.56 395.76 339.26 396.55C338.96 397.34 338.59 398.36 338.26 399.24C335.69 406.355 332.456 413.212 328.6 419.72C326.026 424.477 323.052 429.007 319.71 433.26C319.38 433.67 319.05 434.02 318.78 434.32C317.87 435.32 316.93 436.32 317.25 437.83C317.57 439.34 319.14 440.17 320.85 440.9C325.726 442.975 330.87 444.355 336.13 445C334.79 446.88 333.61 448.81 332.45 450.7C330.987 453.231 329.349 455.656 327.55 457.96C325.71 460.21 323.62 462.38 321.55 464.47C319.48 466.56 317.13 469.03 315.12 471.52C314.627 472.127 314.533 472.965 314.879 473.666C315.225 474.367 315.948 474.802 316.73 474.78C319.22 474.72 321.73 474.52 324.16 474.34C326.81 474.14 329.52 473.93 332.21 473.9C332.1 474.27 331.97 474.65 331.84 475.04C330.95 477.8 329.94 480.94 330.05 483.67C330.23 488.1 335.16 488.75 338.76 489.22C339.76 489.35 340.7 489.48 341.48 489.65L343.03 490.01C346.989 491.067 351.055 491.678 355.15 491.83C357.29 491.83 358.88 491.75 360.07 491.64C359.28 497.8 359.99 505.55 361.94 510.58C362.238 511.353 362.982 511.862 363.81 511.86C364.021 511.86 364.23 511.826 364.43 511.76C367.055 510.951 369.727 510.3 372.43 509.81C376.22 509.18 379.938 508.175 383.53 506.81C386.98 505.37 390.61 504.09 394.11 502.81C398.54 501.23 403.11 499.61 407.51 497.62L413.73 494.79C417.34 493.13 421.06 491.42 424.73 489.79C426.59 488.97 428.56 488.2 430.46 487.45C433.711 486.274 436.896 484.922 440 483.4C445.25 480.67 457.41 473.77 457.11 468.66C456.97 466.36 455.01 463.95 453.28 461.82C453.08 461.59 452.89 461.35 452.72 461.13C453.84 459.82 454.88 458.39 455.78 457.13C456.23 456.51 456.63 455.96 456.96 455.54C458.3 453.85 459.72 452.16 461.1 450.54C463.22 448.04 465.41 445.45 467.38 442.71C467.64 442.34 467.93 441.99 468.21 441.65C469.45 440.14 471.32 437.87 469.66 435.08C468.43 433.06 465.44 431.67 463 430.56Z" fill="#007D43"/><path id="Path_2" d="M476.759 215.324L484.999 211.994C486.023 211.58 486.518 210.415 486.104 209.391C485.69 208.366 484.525 207.872 483.5 208.286L475.26 211.616C474.236 212.029 473.742 213.195 474.156 214.219C474.569 215.243 475.735 215.738 476.759 215.324Z" fill="#007D43"/><path id="Path_3" d="M468.987 238.032L476.497 237.022C477.591 236.875 478.359 235.868 478.212 234.773C478.065 233.679 477.058 232.911 475.963 233.058L468.453 234.068C467.359 234.215 466.591 235.222 466.738 236.317C466.885 237.411 467.892 238.179 468.987 238.032Z" fill="#007D43"/><path id="Path_4" d="M285.135 220.067L276.265 216.887C275.225 216.515 274.08 217.055 273.707 218.095C273.334 219.135 273.875 220.28 274.915 220.653L283.785 223.833C284.825 224.205 285.97 223.665 286.343 222.625C286.715 221.585 286.175 220.44 285.135 220.067Z" fill="#007D43"/><path id="Path_5" d="M282.479 206.271L278.649 203.041C277.805 202.329 276.543 202.436 275.831 203.281C275.119 204.125 275.226 205.387 276.071 206.099L279.901 209.329C280.745 210.041 282.007 209.934 282.719 209.089C283.431 208.245 283.324 206.983 282.479 206.271Z" fill="#007D43"/><path id="Path_6" d="M439.1 233.4C440.51 232.61 442.02 231.81 443.58 230.99C450.83 227.17 459.05 222.84 463.26 216.41C463.646 215.821 463.694 215.073 463.387 214.439C463.079 213.806 462.461 213.381 461.76 213.32C457.23 212.92 450.91 212.57 446.97 212.37C451.9 205.48 464.75 188.37 475.14 182.56C475.817 182.173 476.207 181.427 476.14 180.65C476.072 179.871 475.556 179.203 474.82 178.94C459.69 173.5 444.9 172.58 429.24 171.62L427.17 171.49C427.3 170.99 427.42 170.49 427.54 169.99C428.01 167.99 428.54 165.92 429.54 164.99C430.187 164.406 430.381 163.47 430.02 162.677C429.658 161.884 428.825 161.416 427.96 161.52C426.16 161.74 424.39 161.97 422.64 162.2C415.419 163.293 408.139 163.944 400.84 164.15C394.14 164.23 387.5 164.66 381.08 165.08C377.2 165.33 373.19 165.59 369.21 165.76C360.53 166.15 351.92 166.33 342.06 164.29C338.31 163.52 325.85 162 325.32 161.94C324.676 161.86 324.034 162.098 323.597 162.576C323.16 163.055 322.982 163.716 323.12 164.35C323.12 164.44 324.79 172.01 325.63 176.27C324.63 176.51 323.53 176.73 322.42 176.96C317.84 177.96 313.1 178.96 309.26 181.15C308.725 181.448 308.357 181.975 308.26 182.58C307.64 186.7 310.14 191.99 312.39 196.45C302.97 199.23 295.06 202.11 294.97 202.14C294.334 202.372 293.858 202.911 293.707 203.571C293.555 204.232 293.748 204.923 294.22 205.41C294.29 205.48 301.6 213.06 305.1 216.63C309.216 221.019 313.012 225.698 316.46 230.63C317.606 232.203 318.76 233.763 319.92 235.31C325.18 242.31 329.22 249.56 333.5 257.31C334.5 259.12 335.5 260.94 336.5 262.76C337.668 264.869 338.654 267.074 339.45 269.35C344.289 270.227 349.063 271.429 353.74 272.95C362.27 275.74 366.13 281 367.88 285.38C371.88 285.22 376.6 284.54 381.57 283.82C389.38 282.7 397.7 281.5 405.19 281.94C405.603 279.929 406.23 277.968 407.06 276.09C409.97 269.65 414.06 263.37 417.98 257.29C419.35 255.19 420.71 253.09 422.03 250.98C427.08 243 430.31 238.29 439.1 233.4Z" fill="#007D43"/><path id="Path_7" d="M389.33 281.4C385.73 266.13 382.17 246.96 380.81 239.4C379.19 230.4 377.81 219.87 379.9 209.79C380.011 209.247 379.891 208.682 379.57 208.23C379.249 207.775 378.752 207.474 378.2 207.4C376.343 207.146 374.934 205.602 374.85 203.73C374.41 200.8 375.69 197.43 377.65 196.17C377.859 196.072 378.063 195.962 378.26 195.84C379.175 195.302 379.511 194.143 379.025 193.199C378.538 192.255 377.399 191.856 376.43 192.29C376.18 192.41 375.93 192.54 375.7 192.68C373.52 193.68 370.36 194.18 367.28 194.63C365.33 194.92 363.48 195.19 361.8 195.63C354.8 197.36 347.7 198.87 341.16 200C337.729 200.449 334.264 200.572 330.81 200.37C326.37 200.26 321.81 200.15 317.75 201.19C316.921 201.408 316.323 202.131 316.264 202.987C316.205 203.842 316.698 204.64 317.49 204.97C319.25 205.71 319.36 206.63 319.4 206.97C319.63 209.1 317.1 212.61 314.68 214.33C313.839 214.922 313.584 216.055 314.09 216.95C315.44 219.3 318.18 221.29 320.83 223.22C322.211 224.163 323.524 225.203 324.76 226.33C328.95 230.47 332.13 235.8 335.21 240.96L336.42 242.96C341.841 252.168 346.471 261.819 350.26 271.81C351.44 272.15 352.63 272.51 353.82 272.9C354.27 273.05 354.7 273.2 355.12 273.36C351.028 262.095 345.917 251.226 339.85 240.89L338.65 238.89C335.44 233.52 332.12 227.96 327.58 223.46C326.2 222.188 324.729 221.018 323.18 219.96C321.553 218.849 320.018 217.608 318.59 216.25C321.08 213.93 323.77 210.12 323.37 206.5C323.289 205.771 323.076 205.062 322.74 204.41C325.403 204.245 328.074 204.222 330.74 204.34C334.455 204.551 338.182 204.407 341.87 203.91C348.5 202.77 355.74 201.23 362.79 199.48C364.29 199.11 366.04 198.85 367.89 198.58C369.13 198.4 370.38 198.22 371.6 197.99C370.861 200.013 370.627 202.186 370.92 204.32C371.202 207.187 373.016 209.675 375.66 210.82C373.95 220.97 375.31 231.27 376.91 240.1C378.27 247.67 381.84 266.92 385.46 282.28C385.539 282.616 385.705 282.927 385.94 283.18L389.17 282.75C389.379 282.332 389.436 281.855 389.33 281.4Z" fill="#00591A"/><path id="Path_8" d="M376.92 273.51C376.623 269.921 376.102 266.354 375.36 262.83C375.1 261.756 374.019 261.095 372.945 261.355C371.871 261.615 371.21 262.696 371.47 263.77C372.187 267.122 372.698 270.515 373 273.93C373.282 277.191 373.733 280.435 374.35 283.65C374.441 284.078 374.669 284.464 375 284.75L377.95 284.36C378.259 283.91 378.371 283.354 378.26 282.82C377.63 280.11 377.27 276.75 376.92 273.51Z" fill="#00591A"/><path id="Shape" fill-rule="evenodd" clip-rule="evenodd" d="M441.076 213.41L441.08 213.41C442.274 213.582 443.412 213.746 444.52 213.85H444.7C445.805 213.902 446.743 213.05 446.795 211.945C446.847 210.84 445.995 209.902 444.89 209.85C443.718 209.741 442.457 209.552 441.126 209.354L441.1 209.35C438.351 208.861 435.562 208.63 432.77 208.66C437.819 200.369 443.968 192.8 451.05 186.16C451.717 185.541 451.882 184.55 451.452 183.748C451.021 182.947 450.104 182.536 449.22 182.75C439.57 185.11 430.12 187.52 420.74 190.66C421.851 187.247 423.288 183.948 425.03 180.81C425.93 179.08 426.77 177.44 427.48 175.81C427.82 175.15 427.766 174.357 427.341 173.749C426.915 173.14 426.188 172.818 425.452 172.91C424.716 173.003 424.091 173.496 423.83 174.19C423.197 175.607 422.43 177.104 421.622 178.682L421.48 178.96C419.4 182.96 417.05 187.56 416.32 192.04V192.17L412.84 193.43L410.91 194.14C411.91 190.38 414.09 185.67 416.16 184.91C417.05 184.575 417.581 183.66 417.43 182.722C417.28 181.783 416.49 181.08 415.54 181.04C414.88 181.04 414.24 181.04 413.63 180.99C409.15 180.92 407.54 180.76 406.3 178.08C405.711 176.819 405.675 175.369 406.2 174.08C406.627 173.445 406.654 172.622 406.27 171.96C405.888 171.293 405.157 170.904 404.39 170.96C400.511 171.251 396.633 171.655 392.809 172.053L392.45 172.09L392.316 172.104C385.248 172.85 377.944 173.62 370.63 173.66C367.63 173.66 364.25 173.35 360.72 173.02L360.708 173.019C355.052 172.479 349.197 171.921 344.2 172.78C343.501 172.902 342.918 173.385 342.67 174.05C342.406 174.725 342.529 175.491 342.99 176.05C343.99 177.26 344.44 178.23 344.36 178.87C344.244 179.836 342.758 180.932 341.143 182.122L340.97 182.25L339.71 183.2C338.946 183.785 338.706 184.831 339.14 185.69C339.675 186.699 340.375 187.611 341.21 188.39C337.84 188.83 334.62 189.26 331.62 189.68C331.609 189.549 331.589 189.418 331.56 189.29C331.28 188.22 331 187.18 330.72 186.15L330.572 185.595L330.572 185.595C329.828 182.809 329.138 180.225 328.65 177.43C328.529 176.724 328.04 176.136 327.367 175.889C326.695 175.642 325.941 175.774 325.392 176.235C324.844 176.696 324.583 177.415 324.71 178.12C325.225 181.067 325.94 183.752 326.702 186.608L326.702 186.608L326.86 187.2C327.13 188.2 327.4 189.2 327.68 190.26C320.68 191.31 315.39 192.31 313 193.26C312.332 193.515 311.851 194.108 311.738 194.814C311.625 195.521 311.898 196.233 312.453 196.684C313.008 197.135 313.762 197.255 314.43 197C319.252 195.15 340.734 192.496 353.986 190.858L353.986 190.858L354.62 190.78C360.16 190.1 364.53 189.56 366.62 189.23C371.611 188.434 376.809 187.892 381.848 187.367L382.3 187.32C384.74 187.07 387.25 186.81 389.75 186.52C389.433 188.8 388.985 191.061 388.41 193.29C387.9 195.44 387.41 197.66 387.07 199.82C385.743 209.409 385.589 219.124 386.61 228.75C387.71 239.13 389.04 249.66 390.33 259.85C391.26 267.23 392.22 274.85 393.09 282.35C394.42 282.22 395.75 282.1 397.09 282.02C396.63 278.07 396.15 274.09 395.66 270.13C396.055 269.851 396.335 269.439 396.45 268.97C398.333 261.058 401.188 253.41 404.95 246.2C406.726 242.862 408.415 239.473 410.058 236.176L410.058 236.175L410.43 235.43L410.43 235.43L410.43 235.429C411.24 233.789 412.05 232.15 412.88 230.51C413.41 229.46 413.88 228.33 414.37 227.14C415.46 224.49 416.59 221.76 418.31 220.2C418.881 219.687 419.108 218.893 418.895 218.156C418.682 217.419 418.066 216.869 417.31 216.74C413.83 216.19 410.83 214.17 410.19 211.95C409.75 210.42 410.45 208.84 412.27 207.24C413.06 206.548 413.181 205.364 412.547 204.527C411.912 203.69 410.739 203.486 409.86 204.06C406.092 206.536 400.128 208.201 394.851 209.675L394.76 209.7L394.691 209.719C393.086 210.162 391.549 210.586 390.11 211.03C390.21 208.7 390.39 206.35 390.64 204.03C398.556 202.922 406.403 200.09 413.979 197.357L414.22 197.27C415.013 196.989 415.787 196.709 416.551 196.432C417.715 196.011 418.857 195.598 420.01 195.2C427.63 192.54 435.33 190.43 443.16 188.44C430.08 202.44 421.86 219.14 415.48 233.99C413.43 238.75 411.13 243.6 408.9 248.29L408.489 249.155L408.489 249.155C406.167 254.044 403.777 259.074 401.7 264.06C399.397 269.813 397.978 275.882 397.49 282.06C398.84 281.98 400.18 281.93 401.49 281.92C401.998 276.336 403.305 270.853 405.37 265.64C407.56 260.45 410.07 255.16 412.5 250.04C414.75 245.31 417.07 240.42 419.14 235.6C422.373 227.912 426.045 220.416 430.14 213.15C433.17 212.24 436.9 212.79 440.52 213.33C440.707 213.357 440.892 213.383 441.076 213.41ZM395.82 213.54L395.91 213.515C399.235 212.592 402.849 211.589 406.09 210.33C405.998 211.244 406.083 212.168 406.34 213.05C407.18 215.98 409.9 218.5 413.48 219.84C412.386 221.676 411.453 223.603 410.69 225.6C410.23 226.72 409.79 227.79 409.33 228.7L406.86 233.64L406.666 234.03C404.986 237.409 403.25 240.902 401.44 244.32C398.632 249.656 396.323 255.24 394.54 261L394.33 259.34C393.04 249.17 391.71 238.66 390.62 228.34C390.161 223.999 389.951 219.635 389.99 215.27C391.74 214.68 393.72 214.12 395.82 213.54ZM391.14 199.87C396.38 198.937 401.529 197.552 406.53 195.73C407.132 191.872 408.513 188.177 410.59 184.87C407.37 184.61 404.5 183.66 402.7 179.75C402.069 178.32 401.784 176.761 401.87 175.2C398.87 175.46 395.82 175.78 392.87 176.09C385.494 176.99 378.079 177.521 370.65 177.68C367.47 177.699 364.087 177.377 360.749 177.059C360.613 177.046 360.476 177.033 360.34 177.02C356.213 176.52 352.056 176.32 347.9 176.42C348.296 177.339 348.445 178.346 348.33 179.34C348.01 181.88 345.94 183.52 343.69 185.2C344.594 186.088 345.574 186.894 346.62 187.61L346.57 187.69L354.13 186.75C359.63 186.08 363.97 185.54 366.03 185.22C370.983 184.426 376.089 183.891 381.059 183.37C381.346 183.34 381.633 183.31 381.92 183.28L382.111 183.26C385.252 182.936 388.495 182.602 391.68 182.21C392.252 182.138 392.828 182.316 393.259 182.699C393.69 183.083 393.934 183.633 393.93 184.21C393.778 187.593 393.241 190.948 392.33 194.21C391.86 196.18 391.42 198.05 391.14 199.87Z" fill="#00591A"/><path id="Path_9" d="M361.12 230.73C361.12 231.835 362.015 232.73 363.12 232.73V232.73C364.225 232.73 365.12 231.835 365.12 230.73C365.12 228.32 364.03 225.31 362.95 222.73C362.702 222.038 362.094 221.538 361.367 221.428C360.64 221.317 359.912 221.615 359.47 222.202C359.027 222.789 358.943 223.572 359.25 224.24C359.81 225.56 361.12 228.77 361.12 230.73Z" fill="#00591A"/><path id="Path_10" d="M349.9 227.88C349.347 226.964 348.171 226.645 347.231 227.157C346.292 227.668 345.921 228.828 346.39 229.79C346.77 230.49 347.21 231.21 347.66 231.94C348.509 233.188 349.211 234.53 349.75 235.94C350.008 236.778 350.783 237.35 351.66 237.35C351.86 237.35 352.059 237.319 352.25 237.26C353.304 236.934 353.895 235.815 353.57 234.76C352.949 233.014 352.109 231.354 351.07 229.82C350.66 229.18 350.25 228.52 349.9 227.88Z" fill="#00591A"/><path id="Path_11" d="M435.2 178C434.04 178.51 432.89 179 431.7 179.44C430.809 179.792 430.293 180.725 430.469 181.667C430.644 182.608 431.462 183.293 432.42 183.3C432.666 183.301 432.91 183.257 433.14 183.17C434.39 182.69 435.59 182.17 436.8 181.66C437.751 181.183 438.162 180.046 437.736 179.071C437.31 178.096 436.195 177.626 435.2 178V178Z" fill="#00591A"/><path id="Path_12" d="M371.6 284.31C367.89 276.98 365.53 268.76 363.53 260.97C363.14 259.48 362.8 257.8 362.44 255.97C361.44 251.19 360.37 245.78 358.01 241.97C357.43 241.028 356.197 240.735 355.255 241.315C354.313 241.895 354.02 243.128 354.6 244.07C356.6 247.31 357.6 252.35 358.52 256.8C358.89 258.64 359.24 260.37 359.65 261.95C361.273 268.649 363.396 275.218 366 281.6C366.802 282.783 367.473 284.051 368 285.38C369.22 285.38 370.51 285.23 371.85 285.1C371.815 284.824 371.73 284.556 371.6 284.31Z" fill="#00591A"/><path id="Path_13" d="M357.17 234.91C357.402 234.908 357.632 234.868 357.85 234.79C358.888 234.414 359.425 233.268 359.05 232.23L356.7 225.73C356.303 224.723 355.177 224.214 354.159 224.582C353.141 224.951 352.601 226.062 352.94 227.09L355.29 233.59C355.576 234.382 356.328 234.91 357.17 234.91Z" fill="#00591A"/><path id="Path_14" d="M376.36 401.62C376.486 402.287 376.616 402.953 376.75 403.62C377.006 405.13 377.133 406.659 377.13 408.19C377.086 410.558 377.403 412.918 378.07 415.19C378.354 415.989 379.111 416.522 379.96 416.52C380.188 416.519 380.415 416.478 380.63 416.4C381.13 416.222 381.539 415.851 381.766 415.371C381.993 414.891 382.019 414.34 381.84 413.84C381.322 411.958 381.083 410.011 381.13 408.06C381.131 406.297 380.977 404.537 380.67 402.8C380.54 402.16 380.41 401.5 380.28 400.8C379.92 398.95 379.53 396.99 379.01 395.05C377.69 395.27 376.37 395.47 375.01 395.66C375.58 397.64 376 399.65 376.36 401.62Z" fill="#00591A"/><path id="Shape_2" fill-rule="evenodd" clip-rule="evenodd" d="M443.67 437C444.38 439.01 449.53 440.51 453.72 440.59H453.66C454.313 440.602 454.919 440.931 455.283 441.473C455.648 442.015 455.725 442.701 455.49 443.31C454.14 446.82 450.2 450.39 446.72 453.54C445.34 454.79 444.06 456 443.06 457C441.643 458.486 440.255 460.117 438.905 461.703L438.84 461.78C436.869 464.179 434.77 466.469 432.55 468.64C432.078 469.081 431.423 469.267 430.79 469.14C430.157 469.013 429.625 468.589 429.36 468C428.68 466.44 424.22 463.87 421.97 464C419.986 464.12 418.797 465.293 417.294 466.776L417.28 466.79C416.601 467.508 415.873 468.176 415.1 468.79C414.751 469.052 414.326 469.192 413.89 469.19C413.747 469.205 413.603 469.205 413.46 469.19C412.888 469.068 412.399 468.703 412.12 468.19C411.667 467.397 411.078 466.689 410.38 466.1V469.52C410.484 469.642 410.578 469.772 410.66 469.91C411.645 471.742 413.859 473.345 415.99 474.889L416.02 474.91C416.292 475.107 416.559 475.305 416.823 475.502L416.824 475.502C417.149 475.745 417.469 475.984 417.79 476.21C418.237 476.526 418.625 476.86 419.018 477.198C419.134 477.299 419.251 477.399 419.37 477.5C420.258 478.28 421.204 478.992 422.2 479.63L422.37 479.73C423.09 480.204 423.858 480.603 424.66 480.92C425.008 480.676 425.389 480.481 425.79 480.34C429.26 479.13 433.88 476.03 439.16 471.4C440.258 470.429 441.26 469.372 442.326 468.247L442.326 468.247L442.327 468.247L442.39 468.18L442.607 467.951C443.279 467.242 443.968 466.515 444.69 465.82C444.97 465.52 445.32 465.21 445.69 464.89L445.713 464.869C446.485 464.177 447.761 463.034 447.92 462.41C448.228 461.38 449.295 460.778 450.336 461.047C451.377 461.316 452.019 462.36 451.79 463.41C451.358 465.188 449.797 466.58 448.424 467.804L448.35 467.87C448.307 467.908 448.265 467.946 448.223 467.984C448.168 468.034 448.112 468.084 448.058 468.133L448.057 468.133C447.843 468.325 447.639 468.507 447.46 468.68C446.72 469.4 446.02 470.14 445.28 470.93L445.174 471.041C444.107 472.167 443 473.335 441.78 474.4C436.04 479.44 431.1 482.71 427.1 484.12C426.568 484.713 425.795 485.03 425 484.98H424.53C423.44 484.84 422.394 484.468 421.46 483.89C419.711 485.043 417.902 486.101 416.04 487.06L415.34 487.43C414.372 487.921 413.369 488.338 412.34 488.68C411.292 488.999 410.286 489.439 409.34 489.99C409.001 490.231 408.595 490.36 408.18 490.36C408.05 490.97 407.91 491.58 407.75 492.18C407.597 492.766 407.188 493.251 406.636 493.5C406.084 493.748 405.45 493.734 404.91 493.46C403.99 493 403.04 492.53 402.04 492.06C401.839 492.274 401.593 492.442 401.32 492.55C398.96 493.44 396.51 494.22 394.13 494.96C389.951 496.132 385.891 497.688 382 499.61C381.454 499.901 380.804 499.923 380.24 499.67C379.675 499.419 379.257 498.92 379.11 498.32C378.5 495.85 377.09 494.06 375.5 493.49C373.91 492.92 371.91 493.44 369.91 495C369.275 495.49 368.409 495.553 367.71 495.161C367.01 494.769 366.613 493.997 366.7 493.2C366.972 491.184 367.424 489.196 368.05 487.26C368.79 485.129 369.224 482.903 369.34 480.65L366.45 479.92L365.45 479.67C364.817 481.331 364.279 483.027 363.84 484.75C363.321 486.865 362.653 488.94 361.84 490.96C361.521 491.691 360.798 492.163 360 492.16C359.724 492.161 359.451 492.103 359.2 491.99C358.202 491.536 357.756 490.363 358.2 489.36C358.553 488.54 358.863 487.702 359.13 486.85L345.86 485.26C345.275 485.188 344.752 484.863 344.43 484.37C344.107 483.88 344.016 483.273 344.18 482.71C344.467 482.062 344.418 481.315 344.05 480.71C343.5 479.99 342.09 479.61 340.38 479.71C339.747 479.745 339.135 479.478 338.73 478.99C338.327 478.503 338.179 477.854 338.33 477.24C338.36 477.109 338.386 476.974 338.413 476.835L338.413 476.835L338.413 476.834C338.431 476.741 338.45 476.646 338.47 476.55V476.38L334.47 476.3C333.755 476.289 333.101 475.898 332.753 475.274C332.405 474.65 332.416 473.887 332.783 473.274C333.149 472.661 333.815 472.289 334.53 472.3C349.31 472.52 356.71 473.35 367.53 476C374.96 477.81 383.48 480.37 390.9 483C395.545 484.698 400.101 486.631 404.55 488.79C405.09 485.701 405.474 482.587 405.7 479.46C405.81 478.23 405.92 477.02 406.05 475.81C406.438 471.181 406.552 466.533 406.39 461.89V456.89C406.39 454.77 406.45 452.62 406.51 450.54C406.706 446.498 406.673 442.448 406.41 438.41C405.85 431.81 403.87 425.2 401.95 418.81C401.812 418.345 401.674 417.88 401.536 417.415C401.122 416.02 400.707 414.625 400.31 413.23C400.022 412.19 399.74 411.128 399.455 410.057C399.354 409.675 399.252 409.293 399.15 408.91C397.66 403.25 396.11 397.42 393.23 392.52L396.51 391.86L397.37 391.68C400.09 396.75 401.58 402.4 403.02 407.89C403.094 408.17 403.167 408.45 403.241 408.729C403.544 409.885 403.846 411.03 404.16 412.15C404.637 413.837 405.139 415.516 405.643 417.201L405.78 417.66C407.76 424.25 409.8 431.08 410.4 438.08C410.45 438.41 410.45 438.75 410.45 439.08C410.821 438.416 411.536 438.021 412.296 438.059C413.055 438.097 413.727 438.563 414.03 439.26C414.14 439.54 414.26 439.82 414.38 440.1C414.67 440.932 415.063 441.725 415.55 442.46C415.868 442.884 416.005 443.418 415.93 443.943C415.855 444.468 415.574 444.942 415.15 445.26C414.724 445.577 414.19 445.712 413.665 445.635C413.14 445.558 412.667 445.276 412.35 444.85C411.651 443.848 411.086 442.759 410.67 441.61L410.58 441.4C410.69 444.52 410.6 447.66 410.51 450.66C410.45 452.71 410.39 454.82 410.39 456.89V460.47C411.004 461.231 411.694 461.928 412.45 462.55C413.095 463.102 413.709 463.69 414.29 464.31L414.54 464.07L414.547 464.062C416.226 462.404 418.315 460.34 421.79 460.13C424.68 459.94 428.97 461.93 431.43 464.27C432.92 462.72 434.49 460.92 435.86 459.27C437.23 457.62 438.72 455.91 440.23 454.33C441.269 453.233 442.568 452.052 443.939 450.806L443.94 450.805L443.94 450.805L444.1 450.66C446.351 448.734 448.445 446.631 450.36 444.37C446.76 443.8 441.3 442.37 439.9 438.37C439.491 436.795 439.68 435.124 440.43 433.68L440.458 433.606C440.663 433.063 441.004 432.161 440.89 431.96C440.072 431.289 439.195 430.693 438.27 430.18C437.485 429.734 436.733 429.233 436.02 428.68C433.606 426.558 431.448 424.162 429.59 421.54C427.858 419.135 425.9 416.798 424.008 414.54L424.008 414.54L423.95 414.47C421.85 412.01 419.76 409.46 417.85 406.77C416.924 405.473 415.595 403.418 414.043 401.016L413.56 400.27C411.18 396.55 408.38 392.21 406.23 389.27C407.56 388.87 408.9 388.44 410.23 388C412.282 390.889 414.672 394.593 416.885 398.022L416.91 398.06C417.21 398.524 417.501 398.978 417.784 399.417L417.789 399.424L417.789 399.425C419.135 401.516 420.274 403.287 421.1 404.41C422.805 406.818 424.791 409.2 426.639 411.415L427.01 411.86L427.238 412.133L427.238 412.133L427.238 412.134C429.117 414.388 431.051 416.709 432.82 419.15C434.498 421.52 436.444 423.687 438.62 425.61C438.89 425.833 439.566 426.247 440.199 426.634L440.199 426.634L440.34 426.72C442.34 427.92 443.71 428.82 444.34 429.92C445.43 431.79 444.69 433.7 444.15 435.09C443.84 435.679 443.676 436.334 443.67 437ZM348.37 481.46L360.27 482.89C360.66 481.5 361.07 480.1 361.58 478.72C356.215 477.601 350.772 476.899 345.3 476.62C346.038 477.002 346.688 477.533 347.21 478.18C347.945 479.117 348.353 480.269 348.37 481.46ZM393.07 491.08C389.411 492.151 385.827 493.461 382.34 495C381.368 492.553 379.417 490.625 376.96 489.68C375.237 489.104 373.373 489.104 371.65 489.68C371.77 489.25 371.89 488.82 372.02 488.38C372.737 486.223 373.21 483.992 373.43 481.73C378.85 483.24 384.43 485 389.57 486.81C391.96 487.66 394.57 488.7 397.18 489.81C395.974 490.152 394.753 490.542 393.493 490.945L393.07 491.08ZM415.38 479.32C414.85 478.91 414.29 478.5 413.71 478.08V478.09C412.52 477.23 411.25 476.31 410.12 475.22C410.06 475.51 410.06 475.79 410.06 476.07C409.959 476.987 409.876 477.916 409.792 478.853C409.768 479.121 409.744 479.39 409.72 479.66C409.702 479.845 409.685 480.031 409.668 480.218C409.504 481.966 409.336 483.773 409.11 485.58C409.705 485.306 410.353 485.068 410.996 484.832L411.11 484.79C411.956 484.507 412.784 484.173 413.59 483.79L414.29 483.41C415.52 482.79 416.76 482.12 417.95 481.41L416.84 480.5C416.407 480.114 415.965 479.772 415.473 479.392L415.38 479.32Z" fill="#00591A"/><path id="Path_15" d="M420.55 435C421.355 435.511 422.13 436.069 422.87 436.67C423.23 436.968 423.683 437.131 424.15 437.13C424.989 437.127 425.736 436.6 426.022 435.812C426.308 435.023 426.072 434.14 425.43 433.6C424.581 432.914 423.697 432.273 422.78 431.68C421.981 431.164 421.21 430.607 420.47 430.01C420.064 429.668 419.539 429.5 419.01 429.545C418.481 429.59 417.992 429.844 417.65 430.25C416.944 431.093 417.051 432.349 417.89 433.06C418.738 433.757 419.627 434.405 420.55 435V435Z" fill="#00591A"/><path id="Path_16" d="M328.68 439.55C329.4 439.55 332.85 440.06 336.57 440.65C336.13 441.25 335.7 441.85 335.26 442.43C334.588 443.303 334.749 444.555 335.62 445.23C335.969 445.501 336.398 445.649 336.84 445.65C337.462 445.652 338.05 445.363 338.43 444.87C339.5 443.49 340.53 442.01 341.53 440.5C341.628 440.384 341.712 440.256 341.78 440.12C345.793 433.957 349.034 427.324 351.43 420.37C353.601 413.58 355.384 406.672 356.77 399.68L356.89 399.14C357.04 398.45 357.18 397.71 357.3 396.94C355.96 396.94 354.62 396.83 353.3 396.72C353.21 397.24 353.11 397.72 352.99 398.29L352.87 398.83C351.517 405.674 349.774 412.435 347.65 419.08C345.485 425.366 342.599 431.379 339.05 437C336.43 436.573 334.273 436.24 332.58 436C333.76 434.12 334.48 431.85 333.9 429.88C333.638 429.088 333.204 428.364 332.63 427.76L332.33 427.4C332.593 426.849 332.901 426.321 333.25 425.82C333.634 425.246 333.969 424.641 334.25 424.01C336.131 419.988 338.254 416.084 340.61 412.32C343.79 406.97 347.05 401.47 348.91 396.23C347.58 396.03 346.25 395.78 344.91 395.48C343.14 400.19 340.11 405.3 337.15 410.28C334.702 414.189 332.501 418.247 330.56 422.43C330.342 422.852 330.098 423.259 329.83 423.65C329.011 424.692 328.467 425.923 328.25 427.23C328.22 428.406 328.684 429.541 329.53 430.36C329.724 430.551 329.883 430.774 330 431.02C330.34 432.16 328.89 434.79 327.28 435.95C326.555 436.478 326.27 437.423 326.582 438.263C326.894 439.103 327.727 439.633 328.62 439.56L328.68 439.55Z" fill="#00591A"/><path id="Path_17" d="M365.36 431.88C365.539 431.931 365.724 431.958 365.91 431.96C366.805 431.957 367.589 431.361 367.83 430.5C371.05 419.18 371.39 407.55 371.42 396.2C370.08 396.35 368.75 396.49 367.42 396.6C367.42 407.55 367.02 418.73 363.98 429.41C363.835 429.92 363.899 430.468 364.158 430.931C364.417 431.394 364.849 431.736 365.36 431.88Z" fill="#00591A"/><path id="Path_18" d="M414.57 434.19C414.115 434.482 413.799 434.945 413.691 435.475C413.584 436.004 413.695 436.554 414 437C414.759 438.118 415.584 439.19 416.47 440.21C417.19 441.07 417.87 441.89 418.41 442.68C418.796 443.304 419.493 443.666 420.226 443.624C420.958 443.581 421.609 443.141 421.921 442.477C422.232 441.812 422.155 441.031 421.72 440.44C421.042 439.473 420.315 438.541 419.54 437.65C418.755 436.747 418.024 435.798 417.35 434.81C417.066 434.356 416.612 434.035 416.089 433.918C415.567 433.802 415.019 433.9 414.57 434.19Z" fill="#00591A"/><path id="Shape_3" fill-rule="evenodd" clip-rule="evenodd" d="M364.69 447.51C363.68 444.33 365.01 440.29 369.49 438.7C372.316 437.598 375.519 438.144 377.82 440.12C379.733 441.757 380.606 444.304 380.1 446.77C379.75 448.24 378.55 450.88 374.33 452.07C373.471 452.317 372.583 452.444 371.69 452.45C368.523 452.525 365.68 450.519 364.69 447.51ZM373.22 448.21C374.93 447.75 375.97 446.91 376.22 445.86C376.369 444.812 375.955 443.763 375.13 443.1C373.912 442.092 372.233 441.849 370.78 442.47C368.45 443.3 368.06 445.05 368.45 446.3C368.92 447.78 370.58 448.95 373.22 448.21Z" fill="#00591A"/><path id="Path_19" d="M402 399.77C403.78 405.5 405.61 411.42 410 416.6C410.75 417.262 411.873 417.268 412.63 416.614C413.387 415.961 413.545 414.848 413 414.01C409.14 409.46 407.5 404.18 405.77 398.59C404.948 395.751 403.977 392.957 402.86 390.22C401.51 390.59 400.19 390.93 398.94 391.22C400.123 394.009 401.145 396.864 402 399.77V399.77Z" fill="#00591A"/><path id="Path_20" d="M363.12 396.88C361.87 396.93 360.62 396.97 359.37 396.97H359.11C358.46 408.42 355.11 420.25 352.17 428.51C349.48 436.16 342.94 445.84 335.9 452.61C335.387 453.102 335.174 453.829 335.34 454.52C335.494 455.222 336.014 455.787 336.7 456C338.34 456.5 341.52 459.11 341.7 460.1C341.86 461.97 340.86 464.03 338.95 465.77C338.334 466.331 338.131 467.216 338.44 467.99C338.732 468.777 339.501 469.284 340.34 469.24C349.34 469.06 355.67 469.37 363.64 471.54L369.16 473.01C374.9 474.52 382.03 476.4 386.71 477.96C386.913 478.027 387.126 478.061 387.34 478.06C387.727 478.061 388.105 477.95 388.43 477.74C388.942 477.407 389.273 476.858 389.33 476.25L389.42 475.33C389.83 470.71 390.18 469.05 392.42 468.58C394.477 468.353 396.553 468.353 398.61 468.58C399.148 468.635 399.686 468.469 400.1 468.12C400.513 467.774 400.769 467.277 400.81 466.74C400.81 466.19 401.81 453.21 401.25 447.22C400.221 436.701 398.551 426.255 396.25 415.94C394.365 408.206 391.819 400.648 388.64 393.35L384.64 394.12C387.877 401.445 390.464 409.041 392.37 416.82C394.624 426.971 396.257 437.25 397.26 447.6C397.68 451.91 397.21 460.54 396.96 464.44C395.175 464.301 393.38 464.365 391.61 464.63C386.86 465.63 385.95 469.51 385.53 473.37C380.93 471.96 375.02 470.37 370.13 469.11L364.64 467.65C358.046 465.863 351.23 465.028 344.4 465.17C345.34 463.518 345.771 461.626 345.64 459.73C345.44 457.45 342.89 455.05 340.58 453.54C347.35 446.54 353.23 437.44 355.9 429.85C359 421.25 362.49 408.9 363.12 396.88Z" fill="#00591A"/><path id="Path_21" d="M297.754 445.498L288.974 449.598C287.973 450.065 287.54 451.255 288.008 452.256C288.475 453.257 289.665 453.689 290.666 453.222L299.446 449.122C300.447 448.655 300.879 447.465 300.412 446.464C299.945 445.463 298.754 445.03 297.754 445.498Z" fill="#007D43"/><path id="Path_22" d="M300.588 461.325L296.488 465.715C295.734 466.522 295.777 467.788 296.585 468.542C297.392 469.296 298.657 469.252 299.411 468.445L303.511 464.055C304.265 463.248 304.222 461.982 303.415 461.228C302.608 460.474 301.342 460.518 300.588 461.325Z" fill="#007D43"/><path id="Path_23" d="M462.981 421.976L469.811 424.606C470.842 425.003 471.999 424.489 472.396 423.459C472.793 422.428 472.279 421.27 471.248 420.874L464.418 418.244C463.388 417.847 462.23 418.36 461.833 419.391C461.436 420.422 461.95 421.579 462.981 421.976Z" fill="#007D43"/></g></g></g></g></g></g></svg>