<svg viewBox="41.90000000000009 20.942307692307736 1592.1999999999996 1047.1153846153845" fill="none" xmlns="http://www.w3.org/2000/svg" xmlns:xlink="http://www.w3.org/1999/xlink" overflow="visible" width="1592.1999999999996px" height="1047.1153846153845px"><g id="Master/Scene/Chatting"><g id="Group 41"><g id="Group 5"><path id="Fill 1" fill-rule="evenodd" clip-rule="evenodd" d="M1631.29 976.212C1631.29 954.049 1528.87 934.142 1366.21 920.461H311.005C148.342 934.142 45.9199 954.049 45.9199 976.212C45.9199 1003.21 197.966 1026.87 425.777 1039.99C546.019 1046.92 687.364 1050.91 838.607 1050.91C989.851 1050.91 1131.19 1046.92 1251.44 1039.99C1479.25 1026.87 1631.29 1003.21 1631.29 976.212" fill="#CADBDA"/><path id="Fill 3" fill-rule="evenodd" clip-rule="evenodd" d="M1366.21 920.461C1453.07 827.915 1504.75 711.888 1504.75 585.929C1504.75 283.317 1206.51 38.0031 838.607 38.0031C470.708 38.0031 172.466 283.317 172.466 585.929C172.466 711.888 224.146 827.915 311.006 920.461H1366.21Z" fill="#F4F9F8"/></g><g id="Group 12"><g id="Group 8"><mask id="mask0_122_145722238c05e-a418-43ed-a2cb-99f3fc5284c6" style="mask-type:alpha" maskUnits="userSpaceOnUse" x="172" y="38" width="1333" height="883" fill="#ffffff"><path id="Clip 7" fill-rule="evenodd" clip-rule="evenodd" d="M838.606 38.003C470.707 38.003 172.465 283.318 172.465 585.929V585.929C172.465 711.888 224.145 827.916 311.005 920.461V920.461H1366.21C1453.07 827.916 1504.75 711.888 1504.75 585.929V585.929C1504.75 283.318 1206.51 38.003 838.606 38.003Z" fill="#ffffff"/></mask><g mask="url(#mask0_122_145722238c05e-a418-43ed-a2cb-99f3fc5284c6)"><path id="Fill 6" fill-rule="evenodd" clip-rule="evenodd" d="M283.799 257.302L321.028 256.851L358.257 256.511L432.716 255.839L507.174 255.345L525.788 255.231L535.095 255.187C535.883 255.193 536.626 255.163 537.368 255.134C538.113 255.099 538.86 255.1 539.603 255.037C541.086 254.88 542.576 254.788 544.043 254.511C549.946 253.622 555.654 251.64 560.98 248.935C566.286 246.176 571.192 242.64 575.567 238.531C576.624 237.464 577.745 236.462 578.737 235.329L580.265 233.673L581.715 231.945C582.678 230.816 583.644 229.574 584.608 228.363L587.502 224.718L599.076 210.14L610.67 195.576L616.47 188.298C618.407 185.87 620.297 183.454 622.409 180.984C626.616 176.142 631.463 171.829 636.794 168.187C639.505 166.436 642.27 164.741 645.219 163.392C646.659 162.648 648.188 162.091 649.677 161.452L651.973 160.641C652.736 160.362 653.507 160.111 654.294 159.904C657.397 158.925 660.615 158.361 663.834 157.902C667.036 157.524 670.425 157.436 673.454 157.456L692.069 157.404L840.985 157.238L989.902 157.396L999.209 157.422L1003.86 157.435L1006.19 157.443L1008.62 157.515C1010.25 157.525 1011.87 157.764 1013.49 157.898L1015.91 158.274L1017.11 158.468L1018.3 158.73C1021.5 159.351 1024.6 160.378 1027.64 161.499C1039.76 166.206 1050.15 174.723 1057.9 184.777L1081.1 213.896L1092.67 228.474L1098.46 235.764C1100.39 238.18 1102.32 240.677 1104.24 242.936C1108.14 247.526 1112.66 251.554 1117.58 254.972C1120.07 256.633 1122.63 258.199 1125.34 259.474C1128.01 260.814 1130.81 261.872 1133.66 262.76C1136.51 263.655 1139.45 264.232 1142.4 264.669L1144.63 264.894L1145.74 265.003L1146.86 265.045L1149.1 265.125L1151.42 265.136L1170.04 265.247L1244.5 265.743L1318.95 266.419L1356.18 266.761L1393.41 267.214L1356.18 267.667L1318.95 268.009L1244.5 268.685L1170.04 269.18L1151.42 269.291L1149.1 269.302L1146.68 269.241L1145.48 269.206L1144.27 269.101L1141.87 268.879C1138.68 268.441 1135.5 267.843 1132.42 266.909C1129.34 265.984 1126.31 264.866 1123.42 263.456C1120.5 262.111 1117.74 260.46 1115.05 258.704C1109.75 255.097 1104.89 250.838 1100.71 246.005C1098.58 243.56 1096.7 241.161 1094.74 238.747L1088.88 231.513L1077.17 217.043L1053.8 188.065C1052.82 186.827 1051.85 185.734 1050.88 184.575C1049.9 183.45 1048.86 182.37 1047.83 181.288C1046.74 180.269 1045.71 179.171 1044.56 178.22L1042.87 176.747L1041.12 175.364C1036.43 171.677 1031.19 168.757 1025.68 166.603C1022.9 165.603 1020.08 164.677 1017.18 164.136L1016.09 163.902L1015 163.735L1012.82 163.405C1011.35 163.299 1009.88 163.081 1008.41 163.087L1006.19 163.031L1003.86 163.037L999.209 163.05L989.902 163.077L840.985 163.235L692.069 163.069L673.454 163.017L671.127 163.009C670.351 163.007 669.644 163.046 668.898 163.061C667.423 163.058 665.959 163.254 664.49 163.369C661.573 163.775 658.651 164.26 655.825 165.138C655.109 165.32 654.405 165.546 653.709 165.798L651.612 166.523C650.251 167.105 648.851 167.595 647.53 168.274C644.823 169.489 642.276 171.038 639.768 172.633C634.837 175.965 630.31 179.936 626.353 184.439C624.419 186.673 622.467 189.131 620.521 191.544L614.679 198.79L602.987 213.275L591.277 227.745L588.349 231.363C587.37 232.569 586.42 233.769 585.359 234.993L583.8 236.814L582.159 238.564C581.091 239.755 579.887 240.819 578.748 241.942C574.041 246.281 568.752 250.024 563.018 252.935C557.263 255.794 551.082 257.873 544.693 258.777C543.105 259.058 541.493 259.15 539.89 259.299C538.297 259.368 536.633 259.425 535.095 259.415L525.788 259.372L507.174 259.258L432.716 258.763L358.257 258.092L321.028 257.751L283.799 257.302Z" fill="#CADBDA"/></g></g><g id="Group 11"><mask id="mask1_122_145722238c05e-a418-43ed-a2cb-99f3fc5284c6" style="mask-type:alpha" maskUnits="userSpaceOnUse" x="172" y="38" width="1333" height="883" fill="#ffffff"><path id="Clip 10" fill-rule="evenodd" clip-rule="evenodd" d="M838.606 38.003C470.707 38.003 172.465 283.318 172.465 585.929V585.929C172.465 711.888 224.145 827.916 311.005 920.461V920.461H1366.21C1453.07 827.916 1504.75 711.888 1504.75 585.929V585.929C1504.75 283.318 1206.51 38.003 838.606 38.003Z" fill="#ffffff"/></mask><g mask="url(#mask1_122_145722238c05e-a418-43ed-a2cb-99f3fc5284c6)"><path id="Fill 9" fill-rule="evenodd" clip-rule="evenodd" d="M1521.54 568.884L1476.3 569.335L1431.07 569.675L1340.59 570.347L1159.64 571.216L1148.33 571.26C1146.41 571.252 1144.66 571.318 1142.85 571.417L1140.16 571.679C1139.26 571.8 1138.38 571.957 1137.48 572.093C1133.94 572.733 1130.45 573.718 1127.08 575.015C1123.71 576.32 1120.48 577.994 1117.4 579.892C1114.31 581.78 1111.41 583.986 1108.69 586.391C1107.3 587.562 1106.03 588.872 1104.72 590.139C1103.49 591.48 1102.22 592.787 1101.08 594.212C1099.91 595.574 1098.73 597.093 1097.56 598.557L1094.03 602.978L1086.98 611.818L1072.87 629.499L1065.82 638.34L1062.29 642.763C1061.03 644.257 1059.8 645.772 1058.44 647.179C1055.79 650.039 1052.92 652.724 1049.81 655.117C1046.71 657.513 1043.46 659.738 1039.96 661.558C1036.48 663.398 1032.83 664.941 1029.06 666.13C1025.29 667.311 1021.38 668.074 1017.44 668.48C1015.48 668.714 1013.47 668.741 1011.52 668.795L1005.87 668.808L994.557 668.825L971.938 668.843L926.702 668.878L836.227 668.947L745.753 668.881L700.516 668.846L677.897 668.827C676.058 668.841 674.008 668.783 672.045 668.669L669.084 668.392L666.146 667.941C662.245 667.24 658.421 666.159 654.733 664.741C651.043 663.323 647.53 661.496 644.181 659.439C640.822 657.386 637.678 655.009 634.75 652.408C633.251 651.143 631.888 649.738 630.491 648.37C629.164 646.935 627.81 645.525 626.587 644.003C625.298 642.497 624.175 641.038 622.987 639.562L619.46 635.141L591.25 599.778L584.197 590.937L580.671 586.517C580.083 585.764 579.497 585.076 578.912 584.378C578.316 583.689 577.764 582.959 577.129 582.307C572.254 576.901 566.596 572.195 560.275 568.661C553.994 565.056 547.017 562.756 539.876 561.794L537.185 561.534C536.288 561.445 535.385 561.456 534.485 561.411C532.694 561.339 530.741 561.378 528.877 561.357L517.568 561.314L336.62 560.443L246.146 559.767L200.908 559.425L155.671 558.972L200.908 558.519L246.146 558.177L336.62 557.501L517.568 556.631L528.877 556.587C530.783 556.595 532.601 556.539 534.578 556.599C535.561 556.638 536.546 556.622 537.526 556.71L540.466 556.973C548.27 557.955 555.895 560.417 562.728 564.267C569.607 568.044 575.708 573.099 580.951 578.855C581.634 579.552 582.228 580.324 582.867 581.059C583.497 581.802 584.135 582.548 584.71 583.279L588.258 587.683L595.352 596.489L623.728 631.72L627.275 636.124C628.456 637.579 629.644 639.101 630.816 640.452C631.961 641.866 633.229 643.168 634.465 644.498C635.769 645.757 637.037 647.059 638.428 648.219C641.146 650.611 644.051 652.785 647.136 654.648C650.214 656.519 653.426 658.172 656.784 659.443C660.14 660.714 663.604 661.674 667.126 662.29L669.778 662.691L672.447 662.935C674.245 663.031 675.968 663.086 677.897 663.072L700.516 663.054L745.753 663.019L836.227 662.951L926.702 663.021L971.938 663.056L994.557 663.073L1005.87 663.091L1011.52 663.104C1013.33 663.058 1015.1 663.049 1016.89 662.842C1020.45 662.491 1023.98 661.822 1027.41 660.766C1030.83 659.7 1034.16 658.313 1037.35 656.646C1040.56 655.001 1043.56 652.966 1046.43 650.771C1049.31 648.579 1051.98 646.103 1054.46 643.452C1055.73 642.152 1056.88 640.741 1058.06 639.355L1061.61 634.962L1068.7 626.154L1082.89 608.538L1089.98 599.731L1093.53 595.327C1094.72 593.857 1095.86 592.4 1097.15 590.905C1098.38 589.392 1099.74 587.995 1101.07 586.569C1102.47 585.214 1103.84 583.821 1105.33 582.567C1108.27 579.992 1111.41 577.64 1114.77 575.622C1118.12 573.597 1121.63 571.81 1125.31 570.419C1128.98 569.036 1132.79 567.991 1136.66 567.325C1137.63 567.183 1138.6 567.021 1139.58 566.896L1142.52 566.634C1144.47 566.536 1146.49 566.486 1148.33 566.509L1159.64 566.552L1340.59 567.423L1431.07 568.094L1476.3 568.435L1521.54 568.884Z" fill="#CADBDA"/></g></g></g><g id="Group 40"><g id="Group 15"><mask id="mask2_122_145722238c05e-a418-43ed-a2cb-99f3fc5284c6" style="mask-type:alpha" maskUnits="userSpaceOnUse" x="45" y="920" width="1587" height="131" fill="#ffffff"><path id="Clip 14" fill-rule="evenodd" clip-rule="evenodd" d="M1366.21 920.461C1529.15 934.143 1631.76 954.062 1631.76 976.238C1631.76 1017.49 1276.65 1050.94 838.607 1050.94C400.562 1050.94 45.4561 1017.49 45.4561 976.238C45.4561 954.062 148.063 934.143 311.005 920.461" fill="#ffffff"/></mask><g mask="url(#mask2_122_145722238c05e-a418-43ed-a2cb-99f3fc5284c6)"><path id="Stroke 13 (Stroke)" fill-rule="evenodd" clip-rule="evenodd" d="M1551.65 954.053H99.7607V950.053H1551.65V954.053Z" fill="white"/></g></g><g id="Group 18"><mask id="mask3_122_145722238c05e-a418-43ed-a2cb-99f3fc5284c6" style="mask-type:alpha" maskUnits="userSpaceOnUse" x="45" y="920" width="1587" height="131" fill="#ffffff"><path id="Clip 17" fill-rule="evenodd" clip-rule="evenodd" d="M1366.21 920.461C1529.15 934.143 1631.76 954.062 1631.76 976.238C1631.76 1017.49 1276.65 1050.94 838.607 1050.94C400.562 1050.94 45.4561 1017.49 45.4561 976.238C45.4561 954.062 148.063 934.143 311.005 920.461" fill="#ffffff"/></mask><g mask="url(#mask3_122_145722238c05e-a418-43ed-a2cb-99f3fc5284c6)"><path id="Stroke 16 (Stroke)" fill-rule="evenodd" clip-rule="evenodd" d="M-16.0605 1011.43H1672.75V1015.43H-16.0605V1011.43Z" fill="white"/></g></g><g id="Group 21"><mask id="mask4_122_145722238c05e-a418-43ed-a2cb-99f3fc5284c6" style="mask-type:alpha" maskUnits="userSpaceOnUse" x="45" y="920" width="1587" height="131" fill="#ffffff"><path id="Clip 20" fill-rule="evenodd" clip-rule="evenodd" d="M1366.21 920.461C1529.15 934.143 1631.76 954.062 1631.76 976.238C1631.76 1017.49 1276.65 1050.94 838.607 1050.94C400.562 1050.94 45.4561 1017.49 45.4561 976.238C45.4561 954.062 148.063 934.143 311.005 920.461" fill="#ffffff"/></mask><g mask="url(#mask4_122_145722238c05e-a418-43ed-a2cb-99f3fc5284c6)"><path id="Stroke 19 (Stroke)" fill-rule="evenodd" clip-rule="evenodd" d="M829.204 754.687V1197.79H825.204V754.687H829.204Z" fill="white"/></g></g><g id="Group 24"><mask id="mask5_122_145722238c05e-a418-43ed-a2cb-99f3fc5284c6" style="mask-type:alpha" maskUnits="userSpaceOnUse" x="45" y="920" width="1587" height="131" fill="#ffffff"><path id="Clip 23" fill-rule="evenodd" clip-rule="evenodd" d="M1366.21 920.461C1529.15 934.143 1631.76 954.062 1631.76 976.238C1631.76 1017.49 1276.65 1050.94 838.607 1050.94C400.562 1050.94 45.4561 1017.49 45.4561 976.238C45.4561 954.062 148.063 934.143 311.005 920.461" fill="#ffffff"/></mask><g mask="url(#mask5_122_145722238c05e-a418-43ed-a2cb-99f3fc5284c6)"><path id="Stroke 22 (Stroke)" fill-rule="evenodd" clip-rule="evenodd" d="M830.627 756.436L561.417 1199.87L557.998 1197.79L827.208 754.36L830.627 756.436Z" fill="white"/></g></g><g id="Group 27"><mask id="mask6_122_145722238c05e-a418-43ed-a2cb-99f3fc5284c6" style="mask-type:alpha" maskUnits="userSpaceOnUse" x="45" y="920" width="1587" height="131" fill="#ffffff"><path id="Clip 26" fill-rule="evenodd" clip-rule="evenodd" d="M1366.21 920.461C1529.15 934.143 1631.76 954.062 1631.76 976.238C1631.76 1017.49 1276.65 1050.94 838.607 1050.94C400.562 1050.94 45.4561 1017.49 45.4561 976.238C45.4561 954.062 148.063 934.143 311.005 920.461" fill="#ffffff"/></mask><g mask="url(#mask6_122_145722238c05e-a418-43ed-a2cb-99f3fc5284c6)"><path id="Stroke 25 (Stroke)" fill-rule="evenodd" clip-rule="evenodd" d="M829.53 757.618L207.109 1201.05L204.788 1197.79L827.209 754.36L829.53 757.618Z" fill="white"/></g></g><g id="Group 30"><mask id="mask7_122_145722238c05e-a418-43ed-a2cb-99f3fc5284c6" style="mask-type:alpha" maskUnits="userSpaceOnUse" x="45" y="920" width="1587" height="131" fill="#ffffff"><path id="Clip 29" fill-rule="evenodd" clip-rule="evenodd" d="M1366.21 920.461C1529.15 934.143 1631.76 954.062 1631.76 976.238C1631.76 1017.49 1276.65 1050.94 838.607 1050.94C400.562 1050.94 45.4561 1017.49 45.4561 976.238C45.4561 954.062 148.063 934.143 311.005 920.461" fill="#ffffff"/></mask><g mask="url(#mask7_122_145722238c05e-a418-43ed-a2cb-99f3fc5284c6)"><path id="Stroke 28 (Stroke)" fill-rule="evenodd" clip-rule="evenodd" d="M828.804 758.028L-190.607 1201.46L-192.202 1197.79L827.209 754.36L828.804 758.028Z" fill="white"/></g></g><g id="Group 33"><mask id="mask8_122_145722238c05e-a418-43ed-a2cb-99f3fc5284c6" style="mask-type:alpha" maskUnits="userSpaceOnUse" x="45" y="920" width="1587" height="131" fill="#ffffff"><path id="Clip 32" fill-rule="evenodd" clip-rule="evenodd" d="M1366.21 920.461C1529.15 934.143 1631.76 954.062 1631.76 976.238C1631.76 1017.49 1276.65 1050.94 838.607 1050.94C400.562 1050.94 45.4561 1017.49 45.4561 976.238C45.4561 954.062 148.063 934.143 311.005 920.461" fill="#ffffff"/></mask><g mask="url(#mask8_122_145722238c05e-a418-43ed-a2cb-99f3fc5284c6)"><path id="Stroke 31 (Stroke)" fill-rule="evenodd" clip-rule="evenodd" d="M830.55 754.36L1122.56 1197.79L1119.21 1199.99L827.209 756.56L830.55 754.36Z" fill="white"/></g></g><g id="Group 36"><mask id="mask9_122_145722238c05e-a418-43ed-a2cb-99f3fc5284c6" style="mask-type:alpha" maskUnits="userSpaceOnUse" x="45" y="920" width="1587" height="131" fill="#ffffff"><path id="Clip 35" fill-rule="evenodd" clip-rule="evenodd" d="M1366.21 920.461C1529.15 934.143 1631.76 954.062 1631.76 976.238C1631.76 1017.49 1276.65 1050.94 838.607 1050.94C400.562 1050.94 45.4561 1017.49 45.4561 976.238C45.4561 954.062 148.063 934.143 311.005 920.461" fill="#ffffff"/></mask><g mask="url(#mask9_122_145722238c05e-a418-43ed-a2cb-99f3fc5284c6)"><path id="Stroke 34 (Stroke)" fill-rule="evenodd" clip-rule="evenodd" d="M829.474 754.36L1474.69 1197.79L1472.42 1201.09L827.208 757.657L829.474 754.36Z" fill="white"/></g></g><g id="Group 39"><mask id="mask10_122_145722238c05e-a418-43ed-a2cb-99f3fc5284c6" style="mask-type:alpha" maskUnits="userSpaceOnUse" x="45" y="920" width="1587" height="131" fill="#ffffff"><path id="Clip 38" fill-rule="evenodd" clip-rule="evenodd" d="M1366.21 920.461C1529.15 934.143 1631.76 954.062 1631.76 976.238C1631.76 1017.49 1276.65 1050.94 838.607 1050.94C400.562 1050.94 45.4561 1017.49 45.4561 976.238C45.4561 954.062 148.063 934.143 311.005 920.461" fill="#ffffff"/></mask><g mask="url(#mask10_122_145722238c05e-a418-43ed-a2cb-99f3fc5284c6)"><path id="Stroke 37 (Stroke)" fill-rule="evenodd" clip-rule="evenodd" d="M828.775 754.36L1870.98 1197.79L1869.42 1201.47L827.209 758.041L828.775 754.36Z" fill="white"/></g></g></g></g><g id="Chair"><g id="Group 16"><path id="Fill 1_2" fill-rule="evenodd" clip-rule="evenodd" d="M481.751 358C435.072 358 370.779 394.413 366.105 632.211C362.366 822.412 459.953 873.311 525.678 873.311C609.457 873.311 659.659 792.137 659.659 792.137C560.577 691.22 559.586 511.224 555.732 473.238C552.65 442.854 542.522 358 481.751 358" fill="#EFECDF"/><g id="Group 5_2"><mask id="mask11_122_145722238c05e-a418-43ed-a2cb-99f3fc5284c6" style="mask-type:alpha" maskUnits="userSpaceOnUse" x="411" y="358" width="249" height="435" fill="#ffffff"><path id="Clip 4" fill-rule="evenodd" clip-rule="evenodd" d="M411.42 358.135H659.66V792.137H411.42V358.135Z" fill="#ffffff"/></mask><g mask="url(#mask11_122_145722238c05e-a418-43ed-a2cb-99f3fc5284c6)"><path id="Fill 3_2" fill-rule="evenodd" clip-rule="evenodd" d="M485.661 358.135C440.15 358.669 411.42 423.036 411.42 490.342C411.42 593.311 428.468 759.477 525.679 792.137H659.66C560.578 691.22 559.587 511.224 555.733 473.239C552.719 443.518 542.954 361.702 485.661 358.135" fill="#36B2B2"/></g></g><path id="Fill 6_2" fill-rule="evenodd" clip-rule="evenodd" d="M540.967 872.401C536.004 872.994 530.907 873.31 525.679 873.31C520.786 873.31 515.714 873.021 510.523 872.421C512.656 876.152 519.184 889.669 519.184 915.458C519.184 946.283 506.854 973.586 506.854 973.586C506.854 973.586 512.468 977.677 525.679 977.677C538.89 977.677 544.505 973.586 544.505 973.586C544.505 973.586 530.854 946.063 530.854 915.458C530.854 889.781 538.502 876.133 540.967 872.401" fill="#EFECDF"/><g id="Group 10"><mask id="mask12_122_145722238c05e-a418-43ed-a2cb-99f3fc5284c6" style="mask-type:alpha" maskUnits="userSpaceOnUse" x="450" y="964" width="151" height="24" fill="#ffffff"><path id="Clip 9" fill-rule="evenodd" clip-rule="evenodd" d="M450.375 964.037H600.981V987.586H450.375V964.037Z" fill="#ffffff"/></mask><g mask="url(#mask12_122_145722238c05e-a418-43ed-a2cb-99f3fc5284c6)"><path id="Fill 8" fill-rule="evenodd" clip-rule="evenodd" d="M540.477 964.037C542.737 970.016 544.504 973.586 544.504 973.586C544.504 973.586 538.889 977.678 525.678 977.678C512.467 977.678 506.853 973.586 506.853 973.586C506.853 973.586 508.456 970.026 510.505 964.048C476.19 965.156 450.375 969.95 450.375 975.696C450.375 982.263 484.09 987.586 525.678 987.586C567.267 987.586 600.981 982.263 600.981 975.696C600.981 969.93 574.978 965.123 540.477 964.037" fill="#EFECDF"/></g></g><g id="Group 13"><mask id="mask13_122_145722238c05e-a418-43ed-a2cb-99f3fc5284c6" style="mask-type:alpha" maskUnits="userSpaceOnUse" x="429" y="358" width="231" height="435" fill="#ffffff"><path id="Clip 12" fill-rule="evenodd" clip-rule="evenodd" d="M429.44 358.135H659.659V792.137H429.44V358.135Z" fill="#ffffff"/></mask><g mask="url(#mask13_122_145722238c05e-a418-43ed-a2cb-99f3fc5284c6)"><path id="Fill 11" fill-rule="evenodd" clip-rule="evenodd" d="M485.66 358.135C461.676 358.416 442.354 376.432 429.44 403.259C429.45 403.241 450.974 365.303 490.999 373.936C524.687 381.202 544.377 425.1 546.485 474.009C551.439 588.945 567.953 635.514 581.164 678.118C602.166 745.849 653.824 792.137 653.824 792.137H659.659C560.577 691.22 559.586 511.224 555.732 473.239C552.718 443.518 542.953 361.702 485.66 358.135" fill="#D8D2BA"/></g></g><path id="Fill 14" fill-rule="evenodd" clip-rule="evenodd" d="M540.602 872.439C535.753 873.004 530.779 873.31 525.677 873.31C520.785 873.31 515.712 873.021 510.521 872.42C511.437 874.021 513.161 877.429 514.831 882.83C516.159 883.009 517.521 883.109 518.913 883.109C528.377 883.109 536.574 878.771 540.602 872.439" fill="#16494C"/></g></g><g id="Chair_2"><g id="Group 13_2"><g id="Group 3"><mask id="mask14_122_145722238c05e-a418-43ed-a2cb-99f3fc5284c6" style="mask-type:alpha" maskUnits="userSpaceOnUse" x="1011" y="298" width="397" height="690" fill="#ffffff"><path id="Clip 2" fill-rule="evenodd" clip-rule="evenodd" d="M1408 298.439H1011.66V987.168H1408V298.439Z" fill="#ffffff"/></mask><g mask="url(#mask14_122_145722238c05e-a418-43ed-a2cb-99f3fc5284c6)"><path id="Fill 1_3" fill-rule="evenodd" clip-rule="evenodd" d="M1153.25 298.439C1250.36 298.439 1349.44 359.386 1397.99 586.876C1450.62 833.477 1278.62 987.168 1278.62 987.168H1078.1C1078.1 987.168 1002.65 865.297 1012.56 737.48C1017.45 674.42 1071.02 611.668 1081.92 533.372C1095.06 438.942 1061.94 298.439 1153.25 298.439" fill="#F0ECDF"/></g></g><path id="Fill 4" fill-rule="evenodd" clip-rule="evenodd" d="M1297.92 588.858C1297.92 759.62 1169.8 791.719 1169.8 791.719H1046.25C1046.25 791.719 1023.57 779.919 1012.1 744.643C1012.23 742.257 1012.37 739.871 1012.56 737.48C1017.45 674.42 1071.02 611.669 1081.92 533.372C1095.06 438.942 1061.94 298.439 1153.25 298.439C1153.25 298.439 1297.92 315.39 1297.92 588.858" fill="#B2AC9B"/><path id="Fill 6_3" fill-rule="evenodd" clip-rule="evenodd" d="M1046.25 791.719C1046.25 791.719 1023.57 779.919 1012.1 744.644C1012.23 742.258 1012.37 739.871 1012.56 737.481C1017.45 674.421 1071.02 611.668 1081.92 533.371C1095.06 438.942 1061.93 298.439 1153.25 298.439C1153.25 298.439 1214.93 305.674 1257.73 386.817C1257.26 386.176 1187.4 292.379 1127.49 323.977C1081.5 348.236 1111.66 443.993 1095.84 538.245C1081.92 621.225 1054.17 649.619 1033.04 701.812C1006.79 766.615 1046.25 791.719 1046.25 791.719" fill="#D8D2BA"/><g id="Group 10_2"><mask id="mask15_122_145722238c05e-a418-43ed-a2cb-99f3fc5284c6" style="mask-type:alpha" maskUnits="userSpaceOnUse" x="1012" y="298" width="247" height="494" fill="#ffffff"><path id="Clip 9_2" fill-rule="evenodd" clip-rule="evenodd" d="M1258.17 298H1012.01V791.719H1258.17V298Z" fill="#ffffff"/></mask><g mask="url(#mask15_122_145722238c05e-a418-43ed-a2cb-99f3fc5284c6)"><path id="Fill 8_2" fill-rule="evenodd" clip-rule="evenodd" d="M1046.25 791.719C1043.45 789.773 1040.97 787.404 1038.73 784.851C1036.49 782.293 1034.48 779.527 1032.75 776.601C1029.29 770.744 1026.85 764.292 1025.53 757.624L1025.05 755.119L1024.7 752.593L1024.53 751.329L1024.43 750.058L1024.23 747.517C1024.19 745.818 1024.09 744.118 1024.13 742.419C1024.2 740.721 1024.17 739.018 1024.35 737.325C1024.84 730.542 1026.11 723.83 1027.91 717.278C1028.79 713.991 1029.89 710.772 1030.99 707.556L1032.81 702.793C1033.41 701.201 1034.12 699.656 1034.77 698.084C1036.1 694.952 1037.42 691.815 1038.87 688.74C1040.29 685.646 1041.7 682.553 1043.22 679.509C1049.16 667.265 1055.64 655.288 1061.76 643.122C1067.89 630.968 1073.57 618.563 1078.35 605.803C1083.16 593.052 1087.08 579.984 1090.35 566.759C1091.8 560.104 1093.43 553.486 1094.56 546.768C1095.17 543.416 1095.85 540.078 1096.39 536.716C1096.94 533.355 1097.44 529.983 1097.87 526.605C1099.65 513.093 1100.56 499.485 1101.01 485.873C1101.45 472.258 1101.39 458.636 1101.19 445.024C1101 431.41 1100.65 417.801 1100.73 404.197C1100.85 390.609 1101.28 376.954 1103.69 363.584C1104.92 356.922 1106.68 350.321 1109.53 344.18C1112.35 338.054 1116.39 332.43 1121.68 328.244C1124.32 326.135 1127.26 324.468 1130.33 323.039C1133.4 321.633 1136.59 320.488 1139.86 319.645C1146.4 317.926 1153.25 317.558 1159.97 318.236C1166.7 318.9 1173.31 320.652 1179.63 323.063C1185.97 325.462 1192.03 328.565 1197.85 332.047C1209.48 339.058 1220.1 347.644 1229.99 356.952C1234.93 361.615 1239.68 366.479 1244.25 371.506C1248.81 376.538 1253.24 381.717 1257.34 387.109L1258.17 386.587C1252.66 376.142 1246.38 366.097 1239.26 356.665C1235.76 351.909 1231.91 347.416 1227.99 343.001C1223.97 338.67 1219.82 334.46 1215.41 330.526C1210.99 326.605 1206.38 322.888 1201.58 319.45C1196.76 316.02 1191.73 312.89 1186.54 310.07C1181.35 307.247 1175.96 304.764 1170.42 302.7C1167.65 301.656 1164.84 300.723 1161.99 299.925C1159.14 299.127 1156.27 298.428 1153.3 298.003L1153.28 298H1153.25C1148.08 298.016 1142.89 298.467 1137.82 299.549C1132.75 300.613 1127.81 302.38 1123.25 304.871C1118.7 307.364 1114.52 310.542 1110.96 314.324C1107.4 318.099 1104.39 322.369 1101.89 326.895C1096.87 335.976 1093.82 345.969 1091.61 356.03C1089.43 366.12 1088.19 376.379 1087.33 386.646C1085.66 407.197 1085.6 427.816 1085.47 448.401C1085.35 468.987 1085.31 489.586 1083.94 510.121C1083.21 520.38 1082.21 530.634 1080.45 540.763C1078.67 550.892 1076.19 560.891 1073.19 570.727C1067.19 590.416 1059.14 609.409 1050.65 628.153C1042.17 646.907 1033.21 665.471 1025.75 684.684C1022.06 694.297 1018.76 704.077 1016.3 714.085L1015.44 717.853L1015.02 719.737L1014.66 721.635L1013.95 725.433L1013.39 729.255C1012.96 731.797 1012.79 734.371 1012.52 736.932C1012.31 739.498 1012.18 742.071 1012.01 744.639L1012.01 744.656L1012.02 744.67C1012.87 746.992 1013.66 749.342 1014.57 751.641L1016.04 755.051L1016.77 756.756L1017.6 758.416L1019.27 761.733C1019.84 762.828 1020.49 763.882 1021.1 764.958C1022.28 767.134 1023.73 769.147 1025.07 771.227C1027.95 775.255 1031.1 779.086 1034.62 782.57C1038.14 786.031 1041.95 789.253 1046.25 791.719M1046.25 791.719C1041.96 789.24 1038.16 786.008 1034.65 782.539C1031.14 779.047 1028 775.21 1025.14 771.178C1023.81 769.095 1022.37 767.081 1021.19 764.904C1020.59 763.827 1019.94 762.773 1019.37 761.678L1017.72 758.361L1016.89 756.699L1016.16 754.994L1014.71 751.585C1013.8 749.287 1013.03 746.938 1012.18 744.617L1012.18 744.648C1012.36 742.081 1012.5 739.511 1012.71 736.948C1012.99 734.392 1013.17 731.823 1013.6 729.285L1014.17 725.471L1014.89 721.681L1015.26 719.786L1015.69 717.906L1016.55 714.147C1019.04 704.161 1022.36 694.403 1026.08 684.81C1033.57 665.635 1042.61 647.115 1051.12 628.363C1059.63 609.621 1067.71 590.615 1073.74 570.894C1076.75 561.041 1079.25 551.022 1081.04 540.866C1082.82 530.707 1083.83 520.439 1084.57 510.165C1085.96 489.602 1086.02 468.99 1086.16 448.405C1086.31 427.822 1086.4 407.215 1088.08 386.707C1088.95 376.464 1090.2 366.237 1092.38 356.197C1094.58 346.186 1097.63 336.263 1102.6 327.29C1105.09 322.819 1108.05 318.61 1111.56 314.898C1115.07 311.178 1119.18 308.061 1123.66 305.615C1128.14 303.172 1133 301.437 1138 300.393C1143 299.33 1148.13 298.889 1153.25 298.878L1153.2 298.875C1156.06 299.287 1158.94 299.987 1161.75 300.779C1164.58 301.572 1167.36 302.499 1170.11 303.539C1175.61 305.593 1180.95 308.064 1186.1 310.872C1191.26 313.679 1196.26 316.794 1201.04 320.209C1205.81 323.63 1210.38 327.329 1214.78 331.232C1219.16 335.148 1223.28 339.339 1227.27 343.652C1231.17 348.047 1234.99 352.521 1238.48 357.257C1245.54 366.654 1251.8 376.65 1257.3 387.045L1258.13 386.524C1253.98 381.085 1249.55 375.909 1244.96 370.86C1240.37 365.819 1235.6 360.944 1230.64 356.268C1220.7 346.935 1210.02 338.321 1198.31 331.277C1192.45 327.777 1186.34 324.657 1179.94 322.241C1173.56 319.815 1166.88 318.048 1160.06 317.381C1153.25 316.7 1146.29 317.08 1139.65 318.832C1136.33 319.693 1133.09 320.859 1129.98 322.288C1126.88 323.735 1123.86 325.448 1121.18 327.603C1115.77 331.885 1111.66 337.631 1108.81 343.845C1105.93 350.074 1104.16 356.738 1102.92 363.444C1100.51 376.902 1100.1 390.585 1099.99 404.192C1099.93 417.814 1100.29 431.425 1100.49 445.034C1100.71 458.642 1100.78 472.253 1100.36 485.853C1099.92 499.448 1099.02 513.037 1097.26 526.526C1096.83 529.899 1096.35 533.264 1095.8 536.619C1095.26 539.976 1094.58 543.311 1093.98 546.657C1092.85 553.368 1091.23 559.978 1089.79 566.624C1086.54 579.831 1082.64 592.882 1077.86 605.615C1073.1 618.362 1067.42 630.742 1061.33 642.909C1055.26 655.084 1048.81 667.083 1042.9 679.354C1041.39 682.405 1039.98 685.504 1038.58 688.605C1037.13 691.686 1035.82 694.831 1034.5 697.97C1033.85 699.544 1033.14 701.093 1032.55 702.689L1030.74 707.466C1029.64 710.692 1028.55 713.919 1027.68 717.215C1025.89 723.785 1024.64 730.515 1024.17 737.314C1024 739.009 1024.03 740.716 1023.97 742.417C1023.93 744.12 1024.03 745.823 1024.08 747.525L1024.29 750.072L1024.4 751.344L1024.57 752.61L1024.92 755.14L1025.41 757.648C1026.76 764.324 1029.22 770.78 1032.7 776.631C1034.44 779.555 1036.45 782.318 1038.71 784.87C1040.96 787.418 1043.45 789.782 1046.25 791.719" fill="#D8D2BA"/></g></g><path id="Fill 11_2" fill-rule="evenodd" clip-rule="evenodd" d="M1093.37 765.224C1093.37 765.224 1139.61 687.72 1152.37 579.39C1163.02 489.015 1137.4 386.831 1203.46 377.482C1254.37 370.276 1277.62 435.226 1277.71 435.486C1277.71 435.49 1277.71 435.495 1277.72 435.498C1279.52 442 1281.93 450.862 1284.76 461.333C1292.91 495.995 1297.92 537.985 1297.92 588.858C1297.92 759.62 1169.8 791.719 1169.8 791.719H1046.25C1046.25 791.719 1046.47 765.224 1093.37 765.224" fill="#36B2B2"/></g></g><g id="Master/Female Character/Sitting" transform="matrix(-1 0 0 1 1366 -23) scale(1 1)"><g id="Master/Female Character/Sitting"><g id="Female Lower Sitting" transform="translate(145 665) scale(1 1)"><g id="Female Lower Sitting/Formal 2"><g id="Group 39"><g id="Group 3"><mask id="mask0_122_22014e1d0c947-4393-4b43-a0cb-ae106e128b82" style="mask-type:alpha" maskUnits="userSpaceOnUse" x="234" y="150" width="77" height="196" fill="#ffffff"><path id="Clip 2" fill-rule="evenodd" clip-rule="evenodd" d="M234.178 150.075H310.329V345.288H234.178V150.075Z" fill="#ffffff"/></mask><g mask="url(#mask0_122_22014e1d0c947-4393-4b43-a0cb-ae106e128b82)"><path id="Fill 1" fill-rule="evenodd" clip-rule="evenodd" d="M238.456 325.464C240.381 247.235 227.834 179.464 238.583 150.075L275.371 153.931C275.371 153.931 259.612 291.597 263.447 310.345C267.41 329.721 290.475 328.978 300.323 331.77C308.372 334.052 310.338 336.808 310.329 337.617C310.315 338.929 310.144 340.886 309.3 341.583C305.446 344.766 297.509 345.288 288.302 345.288C276.791 345.288 239.028 336.473 239.028 336.473L238.456 325.464Z" fill="#FDCF3C"/></g></g><path id="Fill 4" fill-rule="evenodd" clip-rule="evenodd" d="M288.303 345.288C276.792 345.288 239.029 336.473 239.029 336.473L238.781 331.703C238.781 331.703 277.099 340.62 288.989 340.62C300.879 340.62 310.329 337.616 310.329 337.616C310.315 338.929 310.144 340.886 309.301 341.583C305.447 344.766 297.509 345.288 288.303 345.288" fill="#FCAE3D"/><path id="Fill 6" fill-rule="evenodd" clip-rule="evenodd" d="M266.794 318.631C265.448 317.915 264.1 317.452 262.747 317.279C262.092 317.129 261.404 317.189 260.768 317.137C260.437 317.177 260.114 317.203 259.794 317.229L259.317 317.265L258.841 317.374C256.321 317.879 253.975 319.082 251.722 320.589C251.153 320.951 250.627 321.412 250.074 321.815C249.52 322.225 248.945 322.6 248.433 323.088C247.9 323.544 247.375 324.009 246.824 324.453L246.004 325.129L245.224 325.865C244.701 326.354 244.166 326.837 243.619 327.314C243.069 327.787 242.51 328.26 241.994 328.779C240.909 329.772 239.828 330.781 238.584 331.703C239.099 330.271 239.776 328.927 240.45 327.566C240.78 326.882 241.183 326.245 241.609 325.62C242.027 324.99 242.457 324.365 242.899 323.746L243.566 322.82C243.811 322.528 244.073 322.249 244.327 321.962C244.834 321.386 245.367 320.833 245.892 320.27C246.395 319.689 247.033 319.224 247.624 318.715C248.243 318.235 248.822 317.715 249.482 317.277C252.092 315.524 255.266 314.218 258.624 314.247C258.832 314.245 259.037 314.235 259.244 314.246L259.867 314.338C260.281 314.4 260.691 314.463 261.094 314.54C261.887 314.806 262.684 315.004 263.388 315.434C264.81 316.202 266.059 317.273 266.794 318.631" fill="#FCAE3D"/><path id="Fill 8" fill-rule="evenodd" clip-rule="evenodd" d="M188.113 325.464C190.038 247.235 177.491 179.464 188.24 150.075L224.497 158.591C224.497 158.591 209.269 291.597 213.104 310.345C217.067 329.721 240.132 328.978 249.98 331.77C258.029 334.052 259.995 336.808 259.986 337.617C259.972 338.929 259.801 340.886 258.957 341.583C255.103 344.766 247.166 345.288 237.959 345.288C226.448 345.288 188.685 336.473 188.685 336.473L188.113 325.464Z" fill="#FDCF3C"/><path id="Fill 10" fill-rule="evenodd" clip-rule="evenodd" d="M237.959 345.288C226.448 345.288 188.685 336.473 188.685 336.473L188.438 331.703C188.438 331.703 226.755 340.62 238.646 340.62C250.536 340.62 259.985 337.616 259.985 337.616C259.971 338.929 259.8 340.886 258.957 341.583C255.103 344.766 247.165 345.288 237.959 345.288" fill="#FCAE3D"/><path id="Fill 12" fill-rule="evenodd" clip-rule="evenodd" d="M216.45 318.631C215.104 317.915 213.756 317.452 212.403 317.279C211.748 317.129 211.06 317.189 210.424 317.137C210.093 317.177 209.77 317.203 209.45 317.229L208.973 317.265L208.497 317.374C205.977 317.879 203.631 319.082 201.378 320.589C200.809 320.951 200.284 321.412 199.73 321.815C199.177 322.225 198.601 322.6 198.089 323.088C197.556 323.544 197.031 324.009 196.48 324.453L195.66 325.129L194.88 325.865C194.357 326.354 193.822 326.837 193.275 327.314C192.725 327.787 192.166 328.26 191.65 328.779C190.565 329.772 189.484 330.781 188.24 331.703C188.755 330.271 189.432 328.927 190.106 327.566C190.436 326.882 190.839 326.245 191.265 325.62C191.683 324.99 192.114 324.365 192.555 323.746L193.222 322.82C193.467 322.528 193.729 322.249 193.983 321.962C194.49 321.386 195.023 320.833 195.548 320.27C196.051 319.689 196.689 319.224 197.28 318.715C197.899 318.235 198.478 317.715 199.138 317.277C201.748 315.524 204.922 314.218 208.28 314.247C208.488 314.245 208.693 314.235 208.9 314.246L209.524 314.338C209.937 314.4 210.347 314.463 210.75 314.54C211.543 314.806 212.34 315.004 213.044 315.434C214.466 316.202 215.715 317.273 216.45 318.631" fill="#FCAE3D"/><path id="Fill 14" fill-rule="evenodd" clip-rule="evenodd" d="M273.706 168.307C273.706 168.307 279.855 151.074 277.131 135.739C273.951 117.831 259.986 111.495 259.986 111.495L238.73 150.074L273.706 168.307Z" fill="#065A63"/><path id="Fill 16" fill-rule="evenodd" clip-rule="evenodd" d="M96.8201 66.873C96.8201 66.873 48.2591 134.484 120.92 150.097L238.73 150.074L262.424 112.948C262.424 112.948 180.44 60.727 96.8201 66.873" fill="#065A63"/><path id="Fill 18" fill-rule="evenodd" clip-rule="evenodd" d="M223.363 168.308C223.363 168.308 230.356 153.493 227.934 137.004C225.501 120.44 212.042 113.02 212.042 113.02L188.387 150.075L223.363 168.308Z" fill="#065A63"/><path id="Fill 20" fill-rule="evenodd" clip-rule="evenodd" d="M21.735 67.4157C20.905 52.4677 40.227 20.8627 40.227 20.8627C40.227 20.8627 55.145 6.00073 87.141 6.00073C112.484 6.00073 127.687 20.8627 127.687 20.8627C127.687 20.8627 146.366 46.4587 146.366 68.1007C146.366 68.1007 140.392 99.7977 92.058 135.138C92.058 135.138 64.34 84.9207 21.735 67.4157" fill="#035A63"/><g id="Group 24"><mask id="mask1_122_22014e1d0c947-4393-4b43-a0cb-ae106e128b82" style="mask-type:alpha" maskUnits="userSpaceOnUse" x="18" y="66" width="195" height="85" fill="#ffffff"><path id="Clip 23" fill-rule="evenodd" clip-rule="evenodd" d="M18 66.6335H212.08V150.098H18V66.6335Z" fill="#ffffff"/></mask><g mask="url(#mask1_122_22014e1d0c947-4393-4b43-a0cb-ae106e128b82)"><path id="Fill 22" fill-rule="evenodd" clip-rule="evenodd" d="M21.7358 67.4157C21.7358 67.4157 -2.08517 134.484 70.5758 150.098L188.386 150.075L212.08 112.948C212.08 112.948 107.75 59.5987 21.7358 67.4157" fill="#065A63"/></g></g><path id="Fill 25" fill-rule="evenodd" clip-rule="evenodd" d="M21.709 67.4908C43.288 65.9838 65.032 67.9188 86.393 71.3508C97.089 73.0658 107.698 75.2818 118.243 77.7558C128.766 80.3188 139.218 83.1828 149.564 86.3948C170.209 92.9228 190.545 100.649 209.927 110.336L211.738 111.24L212.644 111.692C212.99 111.864 213.322 112.043 213.631 112.228C214.883 112.962 216.023 113.803 217.115 114.705C219.296 116.51 221.17 118.644 222.777 120.94C225.959 125.571 227.89 130.956 228.619 136.421C228.987 139.158 229.045 141.912 228.952 144.645C228.862 146.01 228.8 147.375 228.608 148.726C228.474 150.083 228.236 151.424 228 152.763C227.79 154.106 227.431 155.42 227.155 156.747C226.823 158.063 226.455 159.368 226.088 160.67L224.803 164.52L223.362 168.308C225.016 163.17 226.316 157.921 227.012 152.608C227.176 151.278 227.341 149.951 227.402 148.616C227.522 147.284 227.512 145.95 227.532 144.619C227.483 141.959 227.288 139.306 226.801 136.711C225.822 131.533 223.867 126.553 220.752 122.393C219.193 120.325 217.384 118.45 215.365 116.864C214.357 116.074 213.296 115.338 212.203 114.738C211.928 114.583 211.662 114.45 211.401 114.329L210.483 113.904L208.647 113.054C189.096 104.068 168.907 96.5978 148.376 90.2008C138.113 86.9978 127.762 84.0738 117.333 81.4578C106.918 78.7768 96.401 76.5178 85.847 74.4508C80.563 73.4548 75.265 72.5238 69.948 71.7128C64.637 70.8578 59.302 70.1598 53.956 69.5458C48.613 68.8978 43.25 68.4218 37.875 68.0478C35.186 67.9148 32.495 67.7338 29.801 67.6788C27.106 67.5438 24.41 67.5348 21.709 67.4908" fill="#16494C"/><path id="Fill 27" fill-rule="evenodd" clip-rule="evenodd" d="M181.035 165.057C185.175 165.381 189.2 166.107 193.198 166.925C197.189 167.768 201.137 168.761 205.048 169.884C208.959 171.005 212.831 172.262 216.66 173.668C220.482 175.098 224.277 176.624 227.955 178.554C223.814 178.234 219.788 177.511 215.79 176.691C211.799 175.848 207.852 174.855 203.942 173.727C200.033 172.6 196.161 171.344 192.332 169.937C188.51 168.506 184.715 166.982 181.035 165.057" fill="#FCAE3D"/><path id="Fill 29" fill-rule="evenodd" clip-rule="evenodd" d="M230.961 162.661C235.264 163.177 239.439 164.09 243.584 165.095C247.721 166.124 251.81 167.303 255.857 168.609C259.905 169.914 263.91 171.353 267.867 172.94C271.816 174.55 275.734 176.256 279.524 178.362C275.219 177.851 271.043 176.94 266.899 175.933C262.762 174.903 258.673 173.725 254.627 172.414C250.581 171.103 246.576 169.665 242.619 168.077C238.671 166.465 234.752 164.762 230.961 162.661" fill="#FCAE3D"/><path id="Fill 31" fill-rule="evenodd" clip-rule="evenodd" d="M178.654 176.89C182.799 177.101 186.839 177.717 190.854 178.426C194.864 179.16 198.834 180.046 202.771 181.061C206.708 182.076 210.609 183.227 214.472 184.528C218.329 185.853 222.16 187.275 225.886 189.104C221.741 188.898 217.7 188.284 213.685 187.573C209.675 186.839 205.705 185.954 201.77 184.933C197.834 183.913 193.932 182.763 190.07 181.461C186.214 180.134 182.381 178.714 178.654 176.89" fill="#FCAE3D"/><path id="Fill 33" fill-rule="evenodd" clip-rule="evenodd" d="M228.213 174.369C232.528 174.773 236.725 175.577 240.895 176.474C245.057 177.396 249.175 178.468 253.255 179.668C257.336 180.868 261.377 182.202 265.373 183.686C269.363 185.193 273.324 186.796 277.167 188.803C272.85 188.404 268.653 187.602 264.484 186.703C260.321 185.781 256.203 184.71 252.124 183.504C248.046 182.299 244.005 180.965 240.008 179.481C236.019 177.972 232.057 176.371 228.213 174.369" fill="#FCAE3D"/><path id="Fill 35" fill-rule="evenodd" clip-rule="evenodd" d="M227.828 188.803C232.159 188.951 236.396 189.506 240.612 190.155C244.822 190.829 248.996 191.655 253.14 192.613C257.284 193.569 261.397 194.662 265.474 195.907C269.546 197.175 273.595 198.542 277.55 200.318C273.217 200.175 268.979 199.622 264.764 198.971C260.555 198.297 256.38 197.471 252.238 196.508C248.095 195.546 243.982 194.454 239.905 193.209C235.833 191.938 231.783 190.574 227.828 188.803" fill="#FCAE3D"/><path id="Fill 37" fill-rule="evenodd" clip-rule="evenodd" d="M176.736 189.795C180.882 189.917 184.932 190.446 188.96 191.068C192.982 191.716 196.968 192.516 200.923 193.447C204.879 194.377 208.802 195.443 212.689 196.661C216.572 197.902 220.43 199.242 224.193 200.99C220.046 200.873 215.995 200.347 211.967 199.722C207.945 199.074 203.959 198.275 200.005 197.338C196.051 196.403 192.128 195.337 188.24 194.119C184.359 192.876 180.499 191.539 176.736 189.795" fill="#FCAE3D"/></g></g></g><g id="Female Upper" transform="translate(-4 162) scale(1 1)"><g id="Female Upper/Waving 4"><g id="Group 57"><path id="Fill 1" fill-rule="evenodd" clip-rule="evenodd" d="M385.718 375.907L358.374 457.558C357.808 456.588 312.956 375.632 295.324 372.192L295.149 376.724L295.324 372.192L273.738 365.457L242.047 500.167L190.495 364.289L152.983 371.91C152.983 371.91 171.521 384.323 160.02 418.297C166.863 380.321 149.512 372.726 149.512 372.726C122.423 400.579 89.3848 480.262 89.3848 480.262L122.575 492.124C122.575 492.124 147.739 445.654 159.082 423.016L185.639 504.208L121.873 490.906L105.581 519.332L204.335 531.312L207.515 509.44H245.565L245.271 508.665H278.523L294.205 444.667C294.205 444.667 298.926 441.111 302.106 436.101C309.902 447.466 323.499 466.253 342.203 488.231L360.325 497.3L378.447 486.89L407.557 383.704L385.718 375.907Z" fill="#035A63"/><g id="Group 5"><mask id="mask0_122_224063994e79a-c6ce-4198-8cf7-ff04a9fd3533" style="mask-type:alpha" maskUnits="userSpaceOnUse" x="383" y="331" width="42" height="49" fill="#ffffff"><path id="Clip 4" fill-rule="evenodd" clip-rule="evenodd" d="M383.67 331H424.728V379.816H383.67V331Z" fill="#ffffff"/></mask><g mask="url(#mask0_122_224063994e79a-c6ce-4198-8cf7-ff04a9fd3533)"><path id="Fill 3" fill-rule="evenodd" clip-rule="evenodd" d="M408.391 379.816C411.176 376.53 413.932 371.388 415.285 367.328C416.066 364.981 416.321 362.481 417.225 360.176C419.014 355.614 423.201 352.166 424.562 347.465C424.745 346.832 424.856 346.095 424.458 345.566C424.148 345.154 423.586 344.977 423.065 345.015C422.543 345.053 422.054 345.275 421.602 345.533C420.019 346.437 418.761 347.794 417.627 349.203C416.516 350.584 415.499 352.037 414.584 353.55C414.634 352.723 414.72 351.899 414.874 351.084C415.724 346.615 418.569 342.77 420.084 338.473C420.257 337.981 420.415 337.471 420.388 336.952C420.361 336.432 420.116 335.896 419.653 335.642C419.21 335.4 418.664 335.454 418.167 335.554C417.429 335.704 416.698 335.946 416.083 336.374C415.353 336.883 414.829 337.621 414.337 338.354C411.721 342.257 409.594 346.474 408.017 350.879C407.509 346.603 408.175 342.191 409.95 338.249C410.783 336.399 411.881 334.507 411.644 332.498C411.59 332.04 411.446 331.559 411.081 331.269C410.513 330.819 409.666 331.004 409.004 331.308C407.228 332.124 405.844 333.608 404.84 335.258C403.837 336.909 403.179 338.734 402.528 340.546C401.566 343.221 400.604 345.895 399.639 348.569C399.43 345.026 399.833 341.448 400.832 338.037C401.268 336.547 401.82 335.071 401.938 333.526C401.979 332.99 401.936 332.381 401.522 332.029C401.189 331.747 400.704 331.714 400.268 331.777C399.148 331.94 398.167 332.644 397.468 333.517C396.77 334.39 396.322 335.426 395.921 336.463C393.273 343.308 392.376 350.656 391.58 357.942C390.759 355.149 389.904 352.364 388.855 349.646C388.322 348.263 387.729 346.883 386.829 345.696C386.685 345.506 386.528 345.317 386.315 345.205C385.915 344.996 385.397 345.118 385.045 345.398C384.693 345.679 384.477 346.09 384.304 346.501C383.707 347.923 383.759 349.623 383.702 351.159C383.452 357.854 384.653 366.317 387.539 372.391L408.391 379.816Z" fill="#16494C"/></g></g><path id="Fill 6" fill-rule="evenodd" clip-rule="evenodd" d="M378.447 486.89C378.447 486.89 373.338 498.502 358.728 498.56C346.615 498.609 342.203 488.232 342.203 488.232L358.374 457.609L378.447 486.89Z" fill="#FDCF3C"/><path id="Fill 8" fill-rule="evenodd" clip-rule="evenodd" d="M358.373 457.562C358.574 460.996 358.48 464.394 358.284 467.779C358.105 471.166 357.778 474.535 357.368 477.894C356.951 481.251 356.446 484.598 355.795 487.927C355.162 491.258 354.422 494.576 353.387 497.857C353.183 494.422 353.274 491.024 353.472 487.64C353.652 484.252 353.978 480.883 354.392 477.525C354.813 474.168 355.317 470.821 355.969 467.493C356.604 464.162 357.342 460.844 358.373 457.562" fill="#FCAE3D"/><path id="Fill 10" fill-rule="evenodd" clip-rule="evenodd" d="M358.373 457.562C359.775 460.65 360.89 463.809 361.903 466.993C362.934 470.172 363.82 473.388 364.624 476.623C365.422 479.86 366.134 483.119 366.703 486.413C367.289 489.702 367.771 493.017 367.964 496.404C366.559 493.317 365.443 490.158 364.43 486.974C363.4 483.794 362.514 480.579 361.713 477.342C360.919 474.104 360.206 470.846 359.639 467.552C359.054 464.262 358.57 460.948 358.373 457.562" fill="#FCAE3D"/><path id="Fill 12" fill-rule="evenodd" clip-rule="evenodd" d="M407.006 385.864L384.853 377.972C382.975 377.303 381.998 375.252 382.681 373.413C383.365 371.575 385.46 370.618 387.338 371.287L409.491 379.179C411.368 379.848 412.346 381.899 411.662 383.738C410.979 385.576 408.884 386.533 407.006 385.864" fill="#FDCF3C"/><path id="Fill 14" fill-rule="evenodd" clip-rule="evenodd" d="M392.02 357.845C393.559 357.695 395.093 357.887 396.58 358.258C398.069 358.626 399.524 359.203 400.872 360.007C402.187 360.796 403.464 361.814 404.402 363.141C405.348 364.45 405.852 366.099 405.663 367.633C405.016 366.228 404.209 365.091 403.213 364.152C402.22 363.211 401.057 362.464 399.837 361.719C397.43 360.26 394.779 359.156 392.02 357.845" fill="#CADBDA"/><path id="Fill 16" fill-rule="evenodd" clip-rule="evenodd" d="M190.65 363.515L243.319 508.665L273.757 365.362L258.22 362.62C252.471 358.477 241.129 354.421 232.538 354.421C221.862 354.421 216.915 355.895 207.962 359.902L190.65 363.515Z" fill="#FCE9D4"/><path id="Fill 18" fill-rule="evenodd" clip-rule="evenodd" d="M255.363 515.912C255.363 521.379 250.011 525.811 243.409 525.811C236.807 525.811 231.455 521.379 231.455 515.912C231.455 510.445 236.807 506.013 243.409 506.013C250.011 506.013 255.363 510.445 255.363 515.912" fill="#FDCF3C"/><path id="Fill 20" fill-rule="evenodd" clip-rule="evenodd" d="M159.088 423.001C166.082 385.428 151.448 374.949 150.558 374.191C148.88 372.764 148.666 370.243 150.087 368.56C151.508 366.876 154.017 366.654 155.706 368.068C155.981 368.298 164.467 373.161 167.066 384.185C170.705 399.62 167.802 411.125 159.088 423.001" fill="#FDCF3C"/><path id="Fill 22" fill-rule="evenodd" clip-rule="evenodd" d="M294.205 444.667C294.205 444.667 304.939 436.59 304.939 427.623C304.939 417.678 295.184 404.321 295.184 404.321L295.144 372.135" fill="#035A63"/><path id="Fill 24" fill-rule="evenodd" clip-rule="evenodd" d="M294.204 444.667C296.9 441.876 299.332 438.869 301.127 435.613C302.028 433.993 302.684 432.278 303.081 430.581C303.463 428.868 303.412 427.224 303.076 425.446C302.471 421.93 300.979 418.475 299.324 415.138C297.655 411.811 295.685 408.515 293.607 405.472L293.227 404.916L293.231 404.323C293.25 401.641 293.35 398.959 293.419 396.276C293.47 393.594 293.643 390.912 293.757 388.23C293.919 385.547 294.07 382.865 294.307 380.183C294.525 377.5 294.788 374.818 295.143 372.135C295.505 374.817 295.774 377.499 295.998 380.181C296.242 382.862 296.401 385.544 296.569 388.226C296.69 390.908 296.87 393.59 296.927 396.272C297.004 398.954 297.11 401.636 297.136 404.318L296.76 403.169C299.136 406.438 301.129 409.804 302.867 413.409C304.57 417.008 305.955 420.838 306.445 424.989C306.686 427.03 306.519 429.327 305.853 431.342C305.21 433.37 304.137 435.157 302.96 436.788C300.535 440.009 297.543 442.65 294.204 444.667" fill="#16494C"/><path id="Fill 26" fill-rule="evenodd" clip-rule="evenodd" d="M90.1845 478.039C90.1845 478.039 86.3275 482.095 86.0285 486.378C85.6385 491.961 89.3845 495.12 89.3845 495.12C89.3845 495.12 85.4265 499.703 87.0215 504.23C88.8185 509.33 94.4865 509.671 94.4865 509.671C94.4865 509.671 93.9685 514.516 97.9025 517.642C102.014 520.91 107.486 519.551 107.486 519.551L123.217 490.905L90.1845 478.039Z" fill="#FDCF3C"/><path id="Fill 28" fill-rule="evenodd" clip-rule="evenodd" d="M123.217 490.906C121.165 492.993 118.94 494.817 116.677 496.581C114.403 498.329 112.065 499.979 109.671 501.544C107.279 503.11 104.828 504.587 102.313 505.967C99.7893 507.332 97.2243 508.633 94.4863 509.671C96.5363 507.581 98.7593 505.755 101.024 503.992C103.298 502.244 105.636 500.595 108.031 499.033C110.427 497.471 112.877 495.993 115.392 494.613C117.917 493.25 120.481 491.947 123.217 490.906" fill="#FCAE3D"/><path id="Fill 30" fill-rule="evenodd" clip-rule="evenodd" d="M89.3848 495.12C92.1268 494.149 94.9078 493.489 97.6978 492.9C100.49 492.331 103.297 491.878 106.116 491.525C108.936 491.171 111.768 490.922 114.614 490.789C117.463 490.674 120.321 490.634 123.218 490.906C120.477 491.881 117.696 492.543 114.906 493.13C112.114 493.699 109.307 494.152 106.487 494.501C103.667 494.851 100.835 495.1 97.9888 495.233C95.1388 495.347 92.2808 495.389 89.3848 495.12" fill="#FCAE3D"/><g id="Group 34"><mask id="mask1_122_224063994e79a-c6ce-4198-8cf7-ff04a9fd3533" style="mask-type:alpha" maskUnits="userSpaceOnUse" x="212" y="455" width="96" height="106" fill="#ffffff"><path id="Clip 33" fill-rule="evenodd" clip-rule="evenodd" d="M212.584 455.693H307.623V560.38H212.584V455.693Z" fill="#ffffff"/></mask><g mask="url(#mask1_122_224063994e79a-c6ce-4198-8cf7-ff04a9fd3533)"><path id="Fill 32" fill-rule="evenodd" clip-rule="evenodd" d="M228.293 501.766L243.816 455.693L303.761 463.95C309.03 464.824 307.377 469.729 307.377 469.729L277.951 557.069C277.951 557.069 276.55 561.226 271.324 560.225L215.709 552.564C213.461 552.255 212.05 549.976 212.775 547.826L216.394 537.084L228.293 501.766Z" fill="#CADBDA"/></g></g><path id="Fill 35" fill-rule="evenodd" clip-rule="evenodd" d="M237.596 506.953C237.543 506.953 237.489 506.944 237.436 506.927C237.175 506.839 237.034 506.555 237.122 506.294L253.742 456.966C253.83 456.703 254.113 456.563 254.375 456.651C254.637 456.739 254.778 457.023 254.69 457.284L238.07 506.612C238 506.821 237.805 506.953 237.596 506.953" fill="#A4BAB9"/><path id="Fill 37" fill-rule="evenodd" clip-rule="evenodd" d="M221.832 553.741C221.779 553.741 221.725 553.732 221.672 553.715C221.411 553.627 221.27 553.343 221.358 553.082L237.122 506.294C237.21 506.032 237.493 505.892 237.755 505.979C238.017 506.067 238.158 506.351 238.07 506.612L222.306 553.4C222.236 553.609 222.041 553.741 221.832 553.741" fill="#A4BAB9"/><path id="Fill 39" fill-rule="evenodd" clip-rule="evenodd" d="M300.162 490.698L290.236 489.332L287.25 481.824L267.516 479.105L260.333 485.212L245.564 483.177L245.701 482.187L260.027 484.161L267.21 478.054L287.964 480.914L290.95 488.42L300.298 489.708L300.162 490.698Z" fill="#A4BAB9"/><path id="Fill 41" fill-rule="evenodd" clip-rule="evenodd" d="M232.35 489.723L229.124 489.145C228.289 488.995 227.626 488.355 227.449 487.524L223.335 468.262C223.257 467.895 223.278 467.514 223.398 467.158L227.447 455.14C227.768 454.188 228.721 453.599 229.716 453.737L243.816 455.692L232.35 489.723Z" fill="#CADBDA"/><path id="Fill 43" fill-rule="evenodd" clip-rule="evenodd" d="M228.293 502.265C228.24 502.265 228.186 502.256 228.133 502.239C227.872 502.151 227.731 501.867 227.819 501.606L243.342 455.533C243.43 455.27 243.713 455.13 243.976 455.218C244.237 455.306 244.378 455.59 244.29 455.851L228.767 501.924C228.697 502.133 228.502 502.265 228.293 502.265" fill="#A4BAB9"/><path id="Fill 45" fill-rule="evenodd" clip-rule="evenodd" d="M214.982 508.882L211.518 532.713C211.23 534.69 209.377 536.073 207.4 535.786V535.786C205.422 535.498 204.04 533.645 204.327 531.668L207.792 507.837C208.079 505.859 209.932 504.477 211.909 504.764V504.764C213.887 505.052 215.269 506.905 214.982 508.882" fill="#FDCF3C"/><path id="Fill 47" fill-rule="evenodd" clip-rule="evenodd" d="M215.144 508.276C215.144 508.276 221.745 502.371 228.316 502.386L226.438 507.902C236.139 509.075 247.795 504.39 248.342 508.133C248.89 511.876 232.28 514.709 232.28 514.709C239.268 517.09 248.377 513.874 248.342 517.325C248.303 521.236 230.662 521.354 230.662 521.354C235.826 523.661 247.56 521.198 247.638 524.6C247.717 528.003 230.467 528.16 230.467 528.16C236.882 530.898 246.137 528.481 246.216 531.445C246.294 534.409 232.196 537.154 211.695 531.483L215.144 508.276Z" fill="#18484C"/><path id="Fill 49" fill-rule="evenodd" clip-rule="evenodd" d="M271.237 377.816L270.387 381.816H197.327L195.867 377.816H271.237Z" fill="#E2C9B0"/><path id="Fill 51" fill-rule="evenodd" clip-rule="evenodd" d="M264.278 410.566L263.428 414.566H209.208L207.758 410.566H264.278Z" fill="#E2C9B0"/><path id="Fill 53" fill-rule="evenodd" clip-rule="evenodd" d="M256.998 444.836L256.147 448.836H221.648L220.188 444.836H256.998Z" fill="#E2C9B0"/><path id="Fill 55" fill-rule="evenodd" clip-rule="evenodd" d="M295.257 370.49C295.255 368.281 297.043 366.488 299.253 366.485H299.258C301.465 366.485 303.255 368.273 303.257 370.48C303.257 370.48 306.329 383.477 298.954 405.671C294.909 405.671 295.257 370.49 295.257 370.49" fill="#FDCF3C"/></g></g></g><g id="Female Head" transform="translate(89 329) scale(1 1)"><g id="Female Head/Short Hair 2"><g id="Head"><g id="Group 3"><path id="Fill 1" fill-rule="evenodd" clip-rule="evenodd" d="M141.511 48.0827C183.245 49.7337 213.951 85.5137 213.951 125.88C213.951 152.229 202.181 176.49 191.647 188.383C161.612 193.156 117.85 194.073 77.6565 188.383C58.0705 168.643 52.9995 149.065 52.9995 126.88C52.9995 88.6847 85.6275 45.8717 141.511 48.0827" fill="#CADBDA"/></g><path id="Fill 4" fill-rule="evenodd" clip-rule="evenodd" d="M141.634 79.0437C120.312 77.3907 100.02 88.7317 100.02 124.401L101.341 150.823C105.621 183.095 138.673 192.101 149.762 192.101C161.719 192.101 172.214 177.986 174.777 166.582C176.42 159.27 176.054 151.669 176.848 144.216C177.664 136.556 179.219 128.974 179.219 121.27C179.219 104.585 170.038 81.2447 141.634 79.0437" fill="#cc4937"/><path id="Fill 6" fill-rule="evenodd" clip-rule="evenodd" d="M101.341 150.823L102.388 191.05C102.388 191.05 121.427 192.314 131.414 192.314C137.799 192.314 149.763 192.1 149.763 192.1C136.396 191.807 105.441 181.732 101.341 150.823" fill="#16494C"/><path id="Fill 8" fill-rule="evenodd" clip-rule="evenodd" d="M81.3953 111.651C81.3953 131.274 86.5493 136.71 81.3953 141.266C76.6633 145.449 66.7533 139.152 66.7533 139.152C65.5493 149.796 69.3953 167.357 87.3493 171.642C99.2063 174.471 106.26 167.142 108.888 159.736C111.311 152.91 109.162 143.104 115.068 136.396C121.578 129.002 128.496 132.789 136.11 125.083C142.209 118.911 152.507 80.2371 170.841 94.4031C183.12 112.753 177.886 131.01 176.848 144.215C175.721 158.556 176.165 163.251 173.215 171.568C173.215 171.568 180.367 177.265 186.973 175.505C193.578 173.743 201.725 166.037 202.606 150.823C192.478 156.129 183.45 151.945 186.092 143.358C188.734 134.77 194.499 118.931 194.499 118.931C194.499 118.931 203.707 91.8351 185.734 90.2431C185.734 90.2431 175.94 58.4841 134.726 59.9581C103.931 61.0581 81.3953 87.6481 81.3953 111.651" fill="#6aa095"/><path id="Fill 10" fill-rule="evenodd" clip-rule="evenodd" d="M77.778 188.413L77.774 188.407C77.77 188.407 77.765 188.406 77.761 188.406C76.495 191.214 76.667 194.901 78.257 197.289C127.467 205.415 162.807 202.845 189.828 198.149C192.499 196.25 193.275 190.801 191.769 188.413C162.229 193.116 117.972 194.103 77.778 188.413" fill="#16494C"/><path id="Fill 12" fill-rule="evenodd" clip-rule="evenodd" d="M189.824 198.15C162.851 202.837 127.588 205.404 78.5142 197.33C78.3212 197.326 78.2162 197.323 78.2162 197.323C78.2162 197.323 75.6492 201.805 79.2822 205.438C123.697 216.112 173.678 211 189.862 205.438C192.18 201.2 189.862 198.149 189.862 198.149C189.862 198.149 189.837 198.149 189.824 198.15" fill="#16494C"/><path id="Fill 14" fill-rule="evenodd" clip-rule="evenodd" d="M77.858 198.735C99.429 202.828 121.422 204.689 143.375 204.291C156.775 204.047 170.205 203.018 183.439 200.858C185.707 200.488 187.984 200.106 190.226 199.595C192.108 199.167 191.312 196.274 189.429 196.703C182.919 198.184 176.213 198.998 169.584 199.698C152.312 201.523 134.866 201.8 117.536 200.717C104.488 199.903 91.5 198.279 78.655 195.842C76.769 195.484 75.96 198.375 77.858 198.735" fill="#6D9E9E"/></g></g></g><g id="Expression" transform="translate(86 329) scale(1 1)"><g id="Expression/Cheerful"><g id="Face 7"><g id="Group 3"><path id="Fill 1" fill-rule="evenodd" clip-rule="evenodd" d="M128.821 124.258C130.223 121.974 132.688 120.317 135.379 120.041C138.24 119.747 141.038 120.904 142.956 123.016C144.258 124.447 146.374 122.321 145.078 120.895C142.605 118.173 138.806 116.654 135.133 117.067C131.454 117.481 128.166 119.59 126.231 122.744C125.218 124.394 127.812 125.903 128.821 124.258" fill="#16494C"/></g><g id="Group 6"><path id="Fill 4" fill-rule="evenodd" clip-rule="evenodd" d="M172.796 121.852C171.063 119.597 168.456 118.148 165.569 118.164C162.688 118.182 160.084 119.659 158.383 121.935C157.898 122.584 158.278 123.611 158.922 123.987C159.687 124.435 160.488 124.1 160.974 123.449C163.185 120.488 167.944 120.424 170.206 123.366C170.699 124.007 171.496 124.349 172.258 123.904C172.889 123.535 173.293 122.498 172.796 121.852" fill="#16494C"/></g><path id="Stroke 7" d="M164.245 163.822C164.664 163.462 165.296 163.51 165.656 163.929C166.015 164.347 165.968 164.979 165.549 165.339C165.042 165.775 164.042 166.377 162.495 166.961C159.988 167.907 156.823 168.47 152.947 168.47C149.085 168.47 145.653 167.912 142.689 166.979C140.891 166.413 139.637 165.84 138.962 165.441C138.487 165.16 138.329 164.547 138.61 164.072C138.891 163.596 139.505 163.439 139.98 163.72L140.18 163.829C140.326 163.905 140.528 164.005 140.785 164.123C141.489 164.444 142.325 164.768 143.289 165.072C146.064 165.945 149.295 166.47 152.947 166.47C156.585 166.47 159.511 165.95 161.789 165.09C162.569 164.795 163.211 164.483 163.721 164.176L163.94 164.039C164.099 163.936 164.2 163.861 164.245 163.822Z" fill="#16494C"/><path id="Fill 9" fill-rule="evenodd" clip-rule="evenodd" d="M152.201 154.52C151.725 154.52 151.304 154.18 151.218 153.696C151.12 153.152 151.482 152.632 152.026 152.536C153.719 152.233 156.114 151.567 157.296 150.683C157.902 150.23 158.222 149.834 158.274 149.474C158.338 149.035 158.008 148.55 157.679 148.243C157.333 147.922 156.896 147.658 156.433 147.378C156.237 147.259 156.04 147.14 155.848 147.016C153.008 145.182 151.018 142.091 150.525 138.748C150.032 135.405 151.044 131.871 153.232 129.295C153.59 128.874 154.222 128.823 154.642 129.181C155.063 129.539 155.114 130.169 154.757 130.59C152.935 132.734 152.093 135.674 152.504 138.457C152.914 141.238 154.57 143.81 156.932 145.336C157.108 145.45 157.287 145.558 157.467 145.666C157.996 145.986 158.544 146.317 159.041 146.779C159.963 147.637 160.404 148.724 160.254 149.761C160.077 150.976 159.164 151.784 158.493 152.285C156.608 153.694 153.068 154.381 152.378 154.504C152.319 154.515 152.259 154.52 152.201 154.52" fill="#16494C"/><path id="Stroke 11" d="M137.367 128.659C139.515 128.659 141.319 129.552 142.772 131.016C143.629 131.879 144.19 132.742 144.481 133.35C144.72 133.848 144.509 134.445 144.011 134.684C143.548 134.905 143 134.739 142.733 134.316L142.613 134.091C142.557 133.989 142.475 133.85 142.366 133.682C142.087 133.254 141.749 132.824 141.353 132.425C140.248 131.312 138.929 130.659 137.367 130.659C135.81 130.659 134.513 131.308 133.441 132.416C133.057 132.813 132.731 133.241 132.464 133.668L132.327 133.895C132.248 134.032 132.195 134.135 132.168 134.195C131.939 134.698 131.347 134.92 130.844 134.692C130.341 134.464 130.118 133.871 130.347 133.368C130.624 132.757 131.165 131.891 132.004 131.025C133.427 129.555 135.216 128.659 137.367 128.659Z" fill="#16494C"/><path id="Stroke 13" d="M164.489 128.659C166.636 128.659 168.441 129.552 169.894 131.016C170.751 131.879 171.312 132.742 171.603 133.35C171.841 133.848 171.631 134.445 171.132 134.684C170.634 134.922 170.037 134.711 169.799 134.213L169.735 134.091C169.679 133.989 169.597 133.85 169.488 133.682C169.209 133.254 168.871 132.824 168.475 132.425C167.37 131.312 166.05 130.659 164.489 130.659C162.931 130.659 161.635 131.308 160.563 132.416C160.178 132.813 159.852 133.241 159.585 133.668C159.429 133.918 159.33 134.105 159.289 134.195C159.061 134.698 158.468 134.92 157.965 134.692C157.462 134.464 157.24 133.871 157.468 133.368C157.746 132.757 158.287 131.891 159.126 131.025C160.548 129.555 162.338 128.659 164.489 128.659Z" fill="#16494C"/></g></g></g><g id="Accesories" transform="translate(164 413)"/></g></g><g id="Master/Male Character/Sitting" transform="translate(318 -10) scale(1 1)"><g id="Master/Male Character/Sitting"><g id="Male Lower Sitting" transform="translate(148 638) scale(1 1)"><g id="Male Lower Sitting/Legs Crossed 2"><g id="Group 35"><g id="Group 3"><mask id="mask0_122_208031a2f5afc-b761-4401-a1f5-92638511bc40" style="mask-type:alpha" maskUnits="userSpaceOnUse" x="218" y="115" width="166" height="190" fill="#ffffff"><path id="Clip 2" fill-rule="evenodd" clip-rule="evenodd" d="M218.469 115.687H383.911V304.218H218.469V115.687Z" fill="#ffffff"/></mask><g mask="url(#mask0_122_208031a2f5afc-b761-4401-a1f5-92638511bc40)"><path id="Fill 1" fill-rule="evenodd" clip-rule="evenodd" d="M303.7 295.028C274.937 224.565 231.154 185.209 218.469 139.059L269.586 115.687L269.643 115.963C284.861 147.596 311.092 241.029 323.923 255.226C337.184 269.899 364.285 249.069 377.518 251.997C380.445 252.645 382.325 255.729 383.329 257.974C384.025 259.53 384.106 261.298 383.526 262.9C381.825 267.6 378.042 271.576 370.095 276.223C340.721 293.396 309.788 304.218 309.788 304.218L303.7 295.028Z" fill="#FDCF3C"/></g></g><path id="Fill 4" fill-rule="evenodd" clip-rule="evenodd" d="M282.363 122.31C277.9 125.349 273.257 128.009 268.573 130.583C263.878 133.134 259.116 135.543 254.296 137.831C249.477 140.12 244.598 142.282 239.652 144.303C234.696 146.302 229.696 148.21 224.516 149.74C228.978 146.697 233.619 144.034 238.304 141.461C242.999 138.911 247.761 136.501 252.583 134.218C257.405 131.934 262.283 129.772 267.23 127.751C272.187 125.753 277.186 123.843 282.363 122.31" fill="#FCAE3D"/><path id="Fill 6" fill-rule="evenodd" clip-rule="evenodd" d="M286.431 133.434C281.968 136.472 277.325 139.133 272.641 141.707C267.946 144.258 263.184 146.667 258.364 148.955C253.545 151.244 248.666 153.406 243.72 155.426C238.764 157.426 233.764 159.334 228.584 160.863C233.046 157.82 237.687 155.157 242.372 152.584C247.067 150.035 251.829 147.624 256.651 145.341C261.473 143.058 266.351 140.896 271.298 138.874C276.255 136.877 281.254 134.966 286.431 133.434" fill="#FCAE3D"/><path id="Fill 8" fill-rule="evenodd" clip-rule="evenodd" d="M290.675 144.76C286.212 147.799 281.569 150.459 276.885 153.033C272.19 155.584 267.428 157.993 262.608 160.281C257.789 162.57 252.91 164.732 247.964 166.753C243.007 168.752 238.008 170.66 232.828 172.19C237.29 169.147 241.931 166.484 246.616 163.911C251.311 161.361 256.073 158.951 260.895 156.668C265.717 154.384 270.595 152.222 275.542 150.201C280.499 148.203 285.498 146.293 290.675 144.76" fill="#FCAE3D"/><g id="Group 12"><mask id="mask1_122_208031a2f5afc-b761-4401-a1f5-92638511bc40" style="mask-type:alpha" maskUnits="userSpaceOnUse" x="304" y="252" width="80" height="53" fill="#ffffff"><path id="Clip 11" fill-rule="evenodd" clip-rule="evenodd" d="M304.922 252.527H383.911V304.219H304.922V252.527Z" fill="#ffffff"/></mask><g mask="url(#mask1_122_208031a2f5afc-b761-4401-a1f5-92638511bc40)"><path id="Fill 10" fill-rule="evenodd" clip-rule="evenodd" d="M304.922 296.872V296.872C304.922 296.872 356.067 275.63 365.1 269.276C374.121 262.931 378.497 256.392 378.882 252.527C381.036 253.667 382.492 256.102 383.329 257.975C384.025 259.53 384.106 261.298 383.526 262.9C381.825 267.601 378.042 271.576 370.094 276.224C340.722 293.396 309.789 304.219 309.789 304.219L304.922 296.872Z" fill="#FCAE3D"/></g></g><path id="Fill 13" fill-rule="evenodd" clip-rule="evenodd" d="M304.923 296.872C303.784 292.601 303.658 288.19 304.071 283.82C304.514 279.452 305.629 275.077 307.61 270.953C308.635 268.908 309.88 266.928 311.421 265.142C312.958 263.364 314.787 261.754 316.908 260.618C319.01 259.467 321.333 258.758 323.636 258.559L325.361 258.525C325.928 258.518 326.497 258.617 327.054 258.687C328.168 258.783 329.248 259.158 330.284 259.481C328.132 260.048 326.142 260.581 324.34 261.422C322.549 262.272 320.962 263.299 319.565 264.517C316.755 266.934 314.742 270.148 312.995 273.596C311.31 277.094 309.921 280.859 308.676 284.768L304.923 296.872Z" fill="#FCAE3D"/><path id="Fill 15" fill-rule="evenodd" clip-rule="evenodd" d="M282.958 342.197C273.049 332.949 239.123 337.114 235.16 317.738C235.149 316.947 235.075 316.176 235.099 315.4C235.142 314.62 235.151 313.849 235.222 313.076L235.439 310.762L235.747 308.456C235.958 306.923 236.217 305.388 236.455 303.859C236.739 302.33 236.984 300.803 237.3 299.279C238.464 293.179 239.749 287.097 241.054 281.015C243.659 268.849 246.343 256.683 248.825 244.461C251.314 232.24 253.66 219.972 255.606 207.615C256.567 201.433 257.442 195.232 258.107 188.998C258.731 182.763 259.288 176.494 259.193 170.217V170.216C259.193 170.216 270.007 152.922 261.586 134.071C259.599 129.623 257.028 125.931 254.283 122.886L256.776 121.763C265.326 118.264 269.213 116.196 269.606 115.984L269.652 115.963C269.652 115.963 266.377 96.3432 250.523 86.4352C237.525 78.3122 214.387 79.5002 214.387 79.5002C197.774 77.1312 181.033 75.8962 164.282 75.1722C160.094 74.9452 155.902 74.8532 151.71 74.7582C151.31 74.7462 150.909 74.7442 150.508 74.7342L144.589 34.8622C144.589 34.8622 130.718 20.0002 85.8 20.0002C40.883 20.0002 22.887 34.8622 22.887 34.8622L14.131 88.0372C14.187 88.0602 14.244 88.0852 14.301 88.1082C14.297 88.1462 14.292 88.1972 14.286 88.2662C14.283 88.3062 14.278 88.3612 14.274 88.4122C14.271 88.4522 14.268 88.4842 14.264 88.5312C14.256 88.6282 14.247 88.7412 14.238 88.8652C14.237 88.8752 14.236 88.8822 14.236 88.8922C14.227 89.0162 14.217 89.1562 14.207 89.3062C14.205 89.3262 14.204 89.3402 14.203 89.3592C14.134 90.3852 14.05 91.9722 14.016 93.9982C14.015 94.0252 14.015 94.0562 14.015 94.0842C14.01 94.3942 14.005 94.7132 14.003 95.0422C14.003 95.0882 14.003 95.1362 14.002 95.1832C14 95.4992 14 95.8202 14 96.1542C14 96.2172 14.001 96.2832 14.001 96.3452C14.002 96.6692 14.005 96.9962 14.009 97.3342C14.01 97.4042 14.012 97.4772 14.013 97.5492C14.018 97.8852 14.023 98.2242 14.031 98.5752C14.033 98.6592 14.036 98.7462 14.038 98.8312C14.047 99.1712 14.056 99.5132 14.068 99.8652C14.072 99.9742 14.077 100.087 14.081 100.197C14.093 100.533 14.106 100.871 14.122 101.217C14.128 101.34 14.135 101.467 14.141 101.591C14.157 101.929 14.174 102.269 14.194 102.617C14.203 102.754 14.212 102.894 14.221 103.033C14.241 103.377 14.263 103.72 14.288 104.07C14.298 104.215 14.31 104.362 14.32 104.508C14.346 104.858 14.373 105.209 14.402 105.566C14.416 105.722 14.43 105.881 14.444 106.037C14.475 106.388 14.506 106.742 14.541 107.099C14.557 107.269 14.576 107.441 14.593 107.612C14.628 107.964 14.665 108.316 14.705 108.674C14.725 108.852 14.747 109.034 14.768 109.215C14.809 109.568 14.851 109.923 14.896 110.281C14.919 110.47 14.945 110.661 14.971 110.851C15.017 111.206 15.064 111.56 15.116 111.92C15.144 112.116 15.173 112.314 15.203 112.512C15.256 112.871 15.31 113.229 15.367 113.592C15.399 113.791 15.433 113.992 15.465 114.192C15.525 114.555 15.586 114.919 15.65 115.285C15.687 115.49 15.725 115.697 15.763 115.902C15.829 116.265 15.896 116.63 15.968 116.996C16.009 117.209 16.053 117.422 16.096 117.636C16.169 117.999 16.243 118.362 16.321 118.727C16.368 118.944 16.416 119.162 16.464 119.38C16.544 119.742 16.626 120.105 16.711 120.469C16.764 120.693 16.818 120.918 16.873 121.141C16.96 121.502 17.049 121.863 17.142 122.224C17.2 122.452 17.26 122.679 17.321 122.908C17.416 123.267 17.513 123.627 17.613 123.986C17.678 124.218 17.744 124.45 17.811 124.681C17.914 125.038 18.019 125.393 18.126 125.75C18.198 125.986 18.272 126.222 18.346 126.46C18.457 126.812 18.569 127.164 18.685 127.515C18.763 127.754 18.843 127.992 18.924 128.23C19.044 128.582 19.166 128.933 19.291 129.285C19.376 129.521 19.462 129.758 19.549 129.995C19.678 130.343 19.809 130.692 19.943 131.041C20.036 131.281 20.131 131.521 20.227 131.76C20.363 132.102 20.502 132.443 20.644 132.783C20.746 133.026 20.849 133.269 20.953 133.511C21.099 133.849 21.248 134.185 21.399 134.521C21.508 134.761 21.618 135.002 21.73 135.242C21.886 135.576 22.045 135.908 22.207 136.24C22.324 136.48 22.442 136.72 22.563 136.961C22.728 137.287 22.897 137.613 23.068 137.938C23.195 138.177 23.322 138.416 23.451 138.654C23.626 138.975 23.806 139.295 23.987 139.613C24.123 139.851 24.259 140.089 24.398 140.326C24.583 140.638 24.772 140.951 24.963 141.261C25.108 141.497 25.254 141.732 25.403 141.967C25.599 142.273 25.799 142.577 26 142.881C26.155 143.113 26.311 143.345 26.469 143.576C26.676 143.875 26.887 144.171 27.1 144.467C27.265 144.695 27.43 144.924 27.599 145.15C27.815 145.441 28.038 145.728 28.262 146.014C28.437 146.239 28.612 146.464 28.792 146.685C29.021 146.968 29.256 147.248 29.492 147.525C29.677 147.744 29.861 147.963 30.051 148.178C30.291 148.452 30.539 148.72 30.786 148.99C30.983 149.204 31.179 149.418 31.38 149.629C31.631 149.891 31.89 150.15 32.149 150.408C32.357 150.615 32.564 150.824 32.777 151.028C33.041 151.281 33.312 151.528 33.583 151.775C33.803 151.976 34.022 152.179 34.247 152.377C34.522 152.618 34.805 152.853 35.088 153.09C35.32 153.283 35.551 153.478 35.789 153.669C36.078 153.9 36.375 154.125 36.672 154.349C36.915 154.535 37.156 154.72 37.404 154.901C37.707 155.121 38.019 155.334 38.33 155.548C38.585 155.723 38.837 155.901 39.098 156.072C39.414 156.28 39.739 156.48 40.063 156.681C40.332 156.847 40.597 157.016 40.87 157.178C41.199 157.373 41.538 157.558 41.875 157.746C42.157 157.903 42.435 158.063 42.723 158.215C43.066 158.396 43.42 158.569 43.771 158.744C44.065 158.889 44.355 159.039 44.655 159.179C45.015 159.347 45.386 159.506 45.753 159.668C46.059 159.801 46.361 159.939 46.672 160.067C47.047 160.222 47.434 160.366 47.817 160.512C48.136 160.635 48.45 160.76 48.775 160.877C49.167 161.017 49.573 161.146 49.974 161.279C50.304 161.386 50.627 161.501 50.963 161.603C51.375 161.729 51.8 161.843 52.222 161.961C52.562 162.055 52.896 162.156 53.241 162.244C53.671 162.355 54.114 162.451 54.553 162.552C54.906 162.634 55.252 162.72 55.61 162.797C56.063 162.89 56.53 162.97 56.992 163.056C57.352 163.122 57.704 163.195 58.07 163.256C58.552 163.334 59.05 163.398 59.543 163.467C59.904 163.515 60.258 163.574 60.624 163.618C61.146 163.681 61.684 163.726 62.218 163.777C62.571 163.811 62.916 163.853 63.274 163.882C63.876 163.929 64.496 163.958 65.113 163.99C65.417 164.006 65.712 164.031 66.02 164.043C66.952 164.078 67.9 164.097 68.866 164.097H203.358L203.381 164.099C190.853 210.291 208.555 266.437 197.514 341.738L198.086 352.748C198.086 352.748 230.227 359.148 264.251 359.287C273.458 359.324 278.736 357.823 282.59 354.639C283.904 353.554 284.732 351.991 284.924 350.298C285.2 347.853 285.149 344.242 282.958 342.197" fill="#E35A38"/><path id="Fill 17" fill-rule="evenodd" clip-rule="evenodd" d="M282.958 342.197C273.049 332.949 239.123 337.114 235.16 317.738C235.149 316.947 235.075 316.176 235.099 315.4C235.142 314.62 235.151 313.849 235.222 313.076L235.439 310.762L235.747 308.456C235.958 306.923 236.217 305.388 236.455 303.859C236.739 302.33 236.984 300.803 237.3 299.279C238.464 293.179 239.749 287.097 241.054 281.015C243.659 268.849 246.343 256.683 248.825 244.461C251.314 232.24 253.66 219.972 255.606 207.615C256.567 201.433 257.442 195.232 258.107 188.998C258.731 182.763 259.288 176.494 259.193 170.217V170.216L203.382 164.097C190.852 210.289 208.555 266.435 197.514 341.738L198.086 352.748C198.086 352.748 230.227 359.148 264.251 359.287C273.458 359.324 278.736 357.823 282.59 354.639C283.904 353.554 284.732 351.991 284.924 350.298C285.2 347.853 285.149 344.242 282.958 342.197" fill="#FDCF3C"/><path id="Fill 19" fill-rule="evenodd" clip-rule="evenodd" d="M197.629 343.946V343.946C197.629 343.946 252.472 351.646 263.481 350.765C274.475 349.886 281.567 346.478 283.863 343.345C285.138 345.423 285.154 348.259 284.924 350.298C284.733 351.991 283.904 353.554 282.59 354.639C278.736 357.823 273.458 359.325 264.252 359.287C230.227 359.148 198.087 352.747 198.087 352.747L197.629 343.946Z" fill="#FCAE3D"/><path id="Fill 21" fill-rule="evenodd" clip-rule="evenodd" d="M197.629 343.946C198.819 339.689 200.952 335.827 203.529 332.273C206.131 328.736 209.315 325.535 213.117 322.991C215.039 321.75 217.117 320.677 219.352 319.922C221.58 319.173 223.973 318.716 226.377 318.815C228.773 318.892 231.132 319.463 233.218 320.461L234.72 321.309C235.212 321.592 235.652 321.966 236.096 322.309C237.006 322.958 237.747 323.83 238.474 324.634C236.334 324.029 234.348 323.477 232.369 323.285C230.394 323.108 228.505 323.184 226.683 323.523C223.035 324.176 219.668 325.922 216.412 328.003C213.182 330.159 210.072 332.697 207.014 335.429L197.629 343.946Z" fill="#FCAE3D"/><path id="Fill 23" fill-rule="evenodd" clip-rule="evenodd" d="M199.336 174.612C204.527 174.44 209.673 174.683 214.809 175.023C219.942 175.388 225.058 175.91 230.16 176.565C235.261 177.219 240.348 178.013 245.417 178.963C250.484 179.936 255.54 181.009 260.551 182.503C255.359 182.679 250.213 182.439 245.077 182.097C239.944 181.731 234.828 181.211 229.727 180.549C224.627 179.89 219.54 179.096 214.47 178.147C209.403 177.172 204.347 176.1 199.336 174.612" fill="#FCAE3D"/><path id="Fill 25" fill-rule="evenodd" clip-rule="evenodd" d="M260.552 194.947C255.122 195.113 249.743 194.864 244.376 194.52C239.012 194.151 233.668 193.626 228.34 192.968C223.011 192.309 217.7 191.513 212.408 190.561C207.12 189.587 201.844 188.511 196.619 187.019C202.05 186.848 207.429 187.094 212.796 187.44C218.159 187.81 223.504 188.335 228.831 188.999C234.159 189.662 239.47 190.458 244.761 191.41C250.05 192.387 255.327 193.46 260.552 194.947" fill="#FCAE3D"/><path id="Fill 27" fill-rule="evenodd" clip-rule="evenodd" d="M258.823 206.504C253.392 206.67 248.013 206.421 242.647 206.077C237.282 205.708 231.938 205.183 226.61 204.525C221.282 203.867 215.971 203.07 210.679 202.119C205.39 201.144 200.114 200.068 194.889 198.576C200.321 198.405 205.699 198.651 211.066 198.997C216.43 199.367 221.775 199.892 227.102 200.556C232.429 201.219 237.74 202.015 243.032 202.967C248.321 203.944 253.597 205.017 258.823 206.504" fill="#FCAE3D"/><path id="Fill 29" fill-rule="evenodd" clip-rule="evenodd" d="M259.193 170.216C259.288 176.494 258.731 182.763 258.107 188.998C257.442 195.234 256.567 201.435 255.606 207.615C253.659 219.974 251.314 232.24 248.825 244.461C246.342 256.683 243.658 268.851 241.054 281.016C239.749 287.098 238.464 293.18 237.3 299.279C236.984 300.804 236.739 302.33 236.454 303.86C236.216 305.389 235.958 306.923 235.747 308.456L235.439 310.763L235.222 313.076C235.151 313.849 235.142 314.62 235.099 315.401C235.075 316.177 235.149 316.947 235.159 317.738C234.291 314.709 234.132 311.495 234.087 308.355C234.033 305.196 234.194 302.05 234.377 298.909C234.802 292.632 235.546 286.399 236.408 280.194C238.163 267.784 240.454 255.493 242.948 243.261C245.446 231.029 248.189 218.863 250.99 206.721L255.217 188.514C256.644 182.444 257.969 176.366 259.193 170.216" fill="#FCAE3D"/><path id="Fill 31" fill-rule="evenodd" clip-rule="evenodd" d="M214.388 79.5005L164.208 79.8355C155.858 79.9975 147.513 79.9775 139.173 80.2335C130.831 80.3425 122.494 80.5965 114.161 80.8695C97.4926 81.4195 80.8486 82.2445 64.2046 83.3195C47.5686 84.5215 30.9856 86.1515 14.3086 88.0365C30.5116 83.6985 47.0936 80.7445 63.7566 78.6585C80.4336 76.7075 97.1906 75.3945 113.967 74.8765C118.161 74.7515 122.356 74.7205 126.55 74.6375C130.744 74.5535 134.938 74.5185 139.132 74.5685C143.326 74.6065 147.52 74.6375 151.711 74.7585C155.903 74.8545 160.095 74.9455 164.283 75.1725C181.034 75.8965 197.775 77.1315 214.388 79.5005" fill="#BF432B"/><path id="Fill 33" fill-rule="evenodd" clip-rule="evenodd" d="M68.8652 164.097C85.8232 160.608 102.792 157.422 119.746 154.209L145.15 149.333C153.608 147.682 162.069 146.068 170.487 144.27C178.913 142.52 187.325 140.72 195.679 138.74C199.859 137.764 204.035 136.769 208.169 135.658C212.31 134.576 216.403 133.349 220.558 132.173C224.695 130.981 228.816 129.735 232.933 128.475C237.061 127.248 241.167 125.952 245.265 124.625C253.464 121.981 261.64 119.251 269.643 115.963C262.236 120.493 254.263 123.995 246.313 127.45C242.305 129.1 238.281 130.721 234.233 132.274C230.181 133.817 226.097 135.267 222.009 136.708C205.604 142.518 188.651 146.656 171.696 150.131C163.197 151.819 154.692 153.451 146.155 154.88C137.612 156.271 129.071 157.656 120.493 158.783C103.352 161.126 86.1512 163.044 68.8652 164.097" fill="#BF432B"/></g></g></g><g id="Male Upper" transform="translate(0 157) scale(1 1)"><g id="Male Upper/Hands Down 1"><g id="Group 31"><path id="Fill 1" fill-rule="evenodd" clip-rule="evenodd" d="M379.724 489.486C369.595 460.579 353.768 432.406 337.468 406.614C329.152 393.453 320.067 378.972 308.05 368.808C294.442 357.297 264.099 362.417 246.371 362.913C215.981 363.764 183.205 361.202 153.142 365.518C137.193 367.808 127.023 385.657 118.273 398.709C99.6327 426.512 82.0037 457.771 70.8897 489.486C70.8897 489.486 65.2197 502.202 65.2197 516.348L66.4307 630.513H98.3017L108.958 517.317L110.221 511.78C138.619 473.483 157.489 439.317 159.947 434.804C170.769 490.799 171.111 515.56 171.111 515.56H248.719H248.763H292.793C293.264 514.068 296.336 468.207 298.057 447.774C306.435 462.022 321.248 485.963 340.392 511.78L341.656 517.317L352.311 630.513H384.183L385.394 516.348C385.394 502.202 379.724 489.486 379.724 489.486" fill="#E35A38"/><path id="Fill 3" fill-rule="evenodd" clip-rule="evenodd" d="M66.4306 630.514C63.6236 633.321 60.1006 648.844 60.1006 658.202C60.1006 662.064 61.4386 665.932 64.1736 666.239C67.1256 666.57 67.1436 664.49 69.8956 664.71C72.0446 664.882 71.7696 668.275 75.0166 668.487C78.5946 668.721 79.0716 665.491 80.6326 665.523C83.2746 665.578 82.9396 669.311 86.5266 669.229C90.6536 669.134 89.7696 666.019 92.5226 666.184C94.1716 666.283 93.8436 669.321 97.1466 669.321C100.449 669.321 101.66 666.374 101.77 663.982C101.88 661.59 101.55 656.688 101 653.303C100.449 649.918 110.027 650.771 110.027 642.294C110.027 633.817 98.3026 630.514 98.3026 630.514H66.4306Z" fill="#16494C"/><path id="Fill 5" fill-rule="evenodd" clip-rule="evenodd" d="M100.038 639.409C100.558 640.522 100.798 641.75 100.874 642.942C100.941 644.1 101.04 645.163 101.141 646.301C101.241 647.44 101.328 648.504 101.463 649.655C101.596 650.843 101.57 652.095 101.249 653.281C100.731 652.146 100.361 651.088 99.9317 650.013C99.5027 648.904 99.2457 647.657 99.1487 646.475C99.0427 645.294 99.0787 644.023 99.3087 642.855C99.5477 641.723 99.7267 640.616 100.038 639.409" fill="#CADBDA"/><path id="Fill 7" fill-rule="evenodd" clip-rule="evenodd" d="M98.4639 630.514H66.0879C64.1629 630.514 62.5869 628.938 62.5869 627.013V627.013C62.5869 625.087 64.1629 623.511 66.0879 623.511H98.4639C100.39 623.511 101.965 625.087 101.965 627.013V627.013C101.965 628.938 100.39 630.514 98.4639 630.514" fill="#16494C"/><path id="Fill 9" fill-rule="evenodd" clip-rule="evenodd" d="M110.221 511.78C106.875 511.091 103.838 510.07 100.856 508.95C97.8867 507.815 95.0127 506.549 92.1847 505.19C89.3567 503.829 86.5938 502.338 83.8588 500.727C81.1408 499.065 78.4288 497.363 75.8438 495.101C79.2597 495.005 82.5297 495.534 85.6827 496.376C88.8417 497.211 91.8838 498.377 94.8018 499.793C97.7228 501.204 100.511 502.887 103.13 504.835C105.731 506.803 108.213 508.996 110.221 511.78" fill="#BF432B"/><path id="Fill 11" fill-rule="evenodd" clip-rule="evenodd" d="M66.0879 630.514C68.8319 630.1 71.5759 629.884 74.3199 629.737C77.0649 629.577 79.8089 629.535 82.5529 629.514C85.2969 629.532 88.0409 629.575 90.7849 629.733C93.5289 629.88 96.2729 630.098 99.0179 630.514C96.2729 630.93 93.5289 631.148 90.7849 631.294C88.0409 631.453 85.2969 631.496 82.5529 631.513C79.8089 631.493 77.0649 631.451 74.3199 631.291C71.5759 631.144 68.8319 630.928 66.0879 630.514" fill="#CADBDA"/><path id="Fill 13" fill-rule="evenodd" clip-rule="evenodd" d="M384.182 630.514C386.989 633.321 390.512 648.844 390.512 658.202C390.512 662.064 389.174 665.932 386.439 666.239C383.487 666.57 383.469 664.49 380.717 664.71C378.568 664.882 378.843 668.275 375.596 668.487C372.018 668.721 371.541 665.491 369.98 665.523C367.338 665.578 367.673 669.311 364.086 669.229C359.959 669.134 360.843 666.019 358.09 666.184C356.441 666.283 356.769 669.321 353.466 669.321C350.164 669.321 348.953 666.374 348.843 663.982C348.733 661.59 349.063 656.688 349.613 653.303C350.164 649.918 340.586 650.771 340.586 642.294C340.586 633.817 352.311 630.514 352.311 630.514H384.182Z" fill="#16494C"/><path id="Fill 15" fill-rule="evenodd" clip-rule="evenodd" d="M351.074 639.453C351.393 640.639 351.417 641.89 351.285 643.078C351.151 644.229 351.064 645.293 350.966 646.432C350.867 647.571 350.769 648.634 350.702 649.791C350.627 650.984 350.385 652.212 349.863 653.324C349.55 652.117 349.369 651.011 349.132 649.879C348.902 648.711 348.865 647.439 348.975 646.258C349.074 645.077 349.33 643.83 349.759 642.721C350.19 641.647 350.558 640.588 351.074 639.453" fill="#CADBDA"/><path id="Fill 17" fill-rule="evenodd" clip-rule="evenodd" d="M352.149 630.514H384.525C386.45 630.514 388.026 628.938 388.026 627.013V627.013C388.026 625.087 386.45 623.511 384.525 623.511H352.149C350.223 623.511 348.648 625.087 348.648 627.013V627.013C348.648 628.938 350.223 630.514 352.149 630.514" fill="#16494C"/><path id="Fill 19" fill-rule="evenodd" clip-rule="evenodd" d="M340.392 511.78C342.4 508.996 344.882 506.803 347.483 504.835C350.102 502.887 352.89 501.204 355.811 499.793C358.729 498.377 361.771 497.211 364.93 496.376C368.083 495.534 371.353 495.005 374.769 495.101C372.184 497.363 369.472 499.065 366.754 500.727C364.019 502.338 361.256 503.829 358.429 505.19C355.6 506.549 352.726 507.815 349.757 508.95C346.775 510.07 343.738 511.091 340.392 511.78" fill="#BF432B"/><path id="Fill 21" fill-rule="evenodd" clip-rule="evenodd" d="M384.525 630.514C381.781 630.928 379.037 631.144 376.293 631.291C373.548 631.451 370.804 631.493 368.06 631.513C365.316 631.496 362.572 631.453 359.828 631.294C357.084 631.148 354.34 630.93 351.595 630.514C354.34 630.098 357.084 629.88 359.828 629.733C362.572 629.575 365.316 629.532 368.06 629.514C370.804 629.535 373.548 629.577 376.293 629.737C379.037 629.884 381.781 630.1 384.525 630.514" fill="#CADBDA"/><g id="Group 25"><path id="Fill 23" fill-rule="evenodd" clip-rule="evenodd" d="M299.16 363.212L268.876 356.836L268.873 356.826L256.362 353.854C244.67 349.285 241.737 346 230.175 346C219.795 346 204.331 353.565 204.331 353.565C204.331 353.565 160.105 356.056 150.552 362.768C167.856 380.166 167.856 414.845 160.121 434.285L251.738 473.634L299.223 433.845C299.223 433.845 305.326 394.808 299.16 363.212" fill="#FDCF3C"/></g><path id="Fill 26" fill-rule="evenodd" clip-rule="evenodd" d="M271.284 392.055H293.412V389.083H271.284V392.055Z" fill="#035A63"/><path id="Fill 28" fill-rule="evenodd" clip-rule="evenodd" d="M271.284 398.661H293.412V395.689H271.284V398.661Z" fill="#035A63"/><path id="Fill 29" fill-rule="evenodd" clip-rule="evenodd" d="M292.796 520.384L171.114 520.405V505.557H292.796V520.384Z" fill="#16494C"/><path id="Fill 30" fill-rule="evenodd" clip-rule="evenodd" d="M260.983 512.981C260.983 518.448 255.631 522.88 249.029 522.88C242.427 522.88 237.075 518.448 237.075 512.981C237.075 507.514 242.427 503.082 249.029 503.082C255.631 503.082 260.983 507.514 260.983 512.981" fill="#FDCF3C"/></g></g></g><g id="Male Head" transform="translate(92 312) scale(1 1)"><g id="Male Head/Long Hair 2"><g id="Head"><g id="Group 3"><path id="Fill 1" fill-rule="evenodd" clip-rule="evenodd" d="M141.511 48.0821C183.245 49.7331 213.951 85.5141 213.951 125.879C213.951 152.228 202.181 176.489 191.647 188.383C161.612 193.155 117.851 194.073 77.6555 188.383C58.0705 168.642 52.9995 149.064 52.9995 126.879C52.9995 88.6851 85.6275 45.8711 141.511 48.0821" fill="#CADBDA"/></g><path id="Fill 4" fill-rule="evenodd" clip-rule="evenodd" d="M141.635 79.0431C120.313 77.3911 100.02 88.7311 100.02 124.401C89.4507 117.575 81.6347 128.475 83.0657 140.475C83.9977 148.287 93.1947 157.208 101.341 150.823C105.621 183.095 138.673 192.101 149.763 192.101C161.72 192.101 172.215 177.986 174.778 166.582C176.421 159.269 176.055 151.668 176.849 144.215C177.665 136.555 179.22 128.974 179.22 121.27C179.22 104.584 170.038 81.2451 141.635 79.0431" fill="#cc4937"/><path id="Fill 6" fill-rule="evenodd" clip-rule="evenodd" d="M101.34 150.823L102.387 191.049C102.387 191.049 121.426 192.313 131.414 192.313C137.799 192.313 149.762 192.1 149.762 192.1C136.395 191.806 105.44 181.732 101.34 150.823" fill="#16494C"/><path id="Fill 8" fill-rule="evenodd" clip-rule="evenodd" d="M100.02 124.401C100.02 124.401 98.6795 143.797 109.028 152.825L108.782 137.707C108.782 137.707 116.074 129.68 116.519 116.48C116.519 116.48 163.524 118.036 176.319 104.793C179.873 116.549 179.982 123.486 177.804 136.732C187.288 124.42 191.958 107.412 184.023 89.8435C173.477 66.4965 140.9 59.8525 117.616 68.7155C93.1355 78.0335 78.0935 97.2575 75.5605 120.157C72.5425 147.428 81.7255 156.128 84.5875 161.412C87.4505 166.697 87.2295 175.944 76.8015 171.568C76.8015 178.895 92.9545 192.1 102.032 177.377L101.341 150.823C93.5045 157.008 84.6425 149.247 83.0655 140.474C81.5035 131.788 87.6705 116.66 100.02 124.401" fill="#751E0D"/><path id="Fill 10" fill-rule="evenodd" clip-rule="evenodd" d="M77.9772 188.412L77.9732 188.406C77.9692 188.405 77.9642 188.405 77.9602 188.405C76.6942 191.212 76.8662 194.899 78.4562 197.287C127.666 205.414 163.006 202.844 190.027 198.147C192.698 196.249 193.474 190.8 191.968 188.412C162.428 193.114 118.171 194.102 77.9772 188.412" fill="#E35A38"/><g id="Group 14"><path id="Fill 12" fill-rule="evenodd" clip-rule="evenodd" d="M190.023 198.149C163.05 202.836 127.787 205.404 78.713 197.329C78.52 197.325 78.415 197.323 78.415 197.323C78.415 197.323 75.848 201.805 79.481 205.438C123.896 216.112 173.878 211 190.061 205.438C192.379 201.2 190.061 198.148 190.061 198.148C190.061 198.148 190.036 198.149 190.023 198.149" fill="#E35A38"/></g><path id="Fill 15" fill-rule="evenodd" clip-rule="evenodd" d="M78.0572 198.735C99.6282 202.827 121.621 204.689 143.574 204.291C156.974 204.047 170.404 203.018 183.638 200.858C185.906 200.488 188.183 200.105 190.425 199.595C192.307 199.167 191.511 196.274 189.628 196.702C183.118 198.184 176.412 198.998 169.783 199.698C152.511 201.522 135.065 201.799 117.735 200.717C104.687 199.902 91.6992 198.279 78.8542 195.841C76.9682 195.484 76.1592 198.375 78.0572 198.735" fill="#8A1B64" fill-opacity="0.35189"/></g></g></g><g id="Expression" transform="translate(92 312) scale(1 1)"><g id="Expression/Laughing Red Lips"><g id="Face 11"><path id="Fill 1" fill-rule="evenodd" clip-rule="evenodd" d="M153.611 139.904C154.304 141.693 155.243 143.245 156.431 144.538C157.033 145.173 157.667 145.765 158.379 146.244C159.055 146.741 159.858 147.086 160.762 147.762C161.195 148.1 161.639 148.559 161.937 149.11C162.235 149.658 162.429 150.371 162.291 151.093C162.152 151.811 161.746 152.367 161.34 152.763C160.926 153.173 160.503 153.452 160.018 153.707C159.082 154.197 158.128 154.436 157.176 154.62C156.219 154.776 155.262 154.874 154.298 154.823C156.039 154.066 157.822 153.358 159.196 152.381C159.834 151.885 160.445 151.231 160.421 150.796C160.463 150.386 160.126 149.772 159.53 149.338C158.945 148.87 158.024 148.42 157.231 147.743C156.455 147.08 155.741 146.344 155.203 145.491C154.085 143.825 153.48 141.827 153.611 139.904" fill="#16494C"/><path id="Fill 3" fill-rule="evenodd" clip-rule="evenodd" d="M163.307 167.653C163.898 166.254 164.225 164.715 164.225 163.1H140.792C140.792 164.715 141.119 166.254 141.71 167.653H163.307Z" fill="#FFFCF8"/><path id="Fill 5" fill-rule="evenodd" clip-rule="evenodd" d="M141.711 167.653C143.488 171.862 147.653 174.816 152.509 174.816C157.365 174.816 161.531 171.862 163.308 167.653H141.711Z" fill="#16494C"/><path id="Fill 7" fill-rule="evenodd" clip-rule="evenodd" d="M166.226 161.1H164.226H140.793H138.793V163.1C138.793 164.947 139.155 166.74 139.868 168.431C142.019 173.525 146.981 176.816 152.51 176.816C158.038 176.816 162.999 173.525 165.15 168.431C165.864 166.74 166.226 164.947 166.226 163.1V161.1ZM164.226 163.1C164.226 164.714 163.899 166.253 163.308 167.653C161.531 171.862 157.365 174.816 152.51 174.816C147.654 174.816 143.488 171.862 141.711 167.653V167.653C141.12 166.253 140.793 164.714 140.793 163.1H164.226V163.1Z" fill="#930000"/><g id="Group 11"><path id="Fill 9" fill-rule="evenodd" clip-rule="evenodd" d="M130.821 126.258C132.223 123.974 134.688 122.317 137.379 122.041C140.24 121.747 143.037 122.904 144.956 125.016C146.258 126.447 148.374 124.321 147.078 122.895C144.605 120.173 140.806 118.654 137.133 119.067C133.454 119.481 130.166 121.59 128.231 124.744C127.218 126.394 129.812 127.903 130.821 126.258" fill="#16494C"/></g><g id="Group 14"><path id="Fill 12" fill-rule="evenodd" clip-rule="evenodd" d="M174.796 123.851C173.063 121.597 170.456 120.147 167.569 120.164C164.688 120.182 162.083 121.659 160.383 123.935C159.898 124.584 160.278 125.611 160.921 125.987C161.687 126.435 162.488 126.1 162.974 125.449C165.185 122.488 169.944 122.424 172.206 125.366C172.699 126.006 173.496 126.349 174.258 125.904C174.889 125.535 175.293 124.497 174.796 123.851" fill="#16494C"/></g><path id="Fill 15" fill-rule="evenodd" clip-rule="evenodd" d="M132.763 137.85C132.319 136.241 133.132 134.358 134.476 133.228C135.813 132.054 137.604 131.454 139.367 131.452C141.13 131.452 142.922 132.052 144.26 133.226C145.605 134.356 146.418 136.241 145.971 137.85C145.54 136.267 144.518 135.186 143.33 134.479C142.129 133.775 140.746 133.466 139.367 133.451C137.988 133.462 136.604 133.773 135.402 134.477C134.213 135.184 133.191 136.267 132.763 137.85" fill="#16494C"/><path id="Fill 17" fill-rule="evenodd" clip-rule="evenodd" d="M160.163 137.854C159.719 136.246 160.532 134.362 161.876 133.232C163.213 132.058 165.004 131.458 166.767 131.456C168.531 131.456 170.322 132.056 171.66 133.23C173.005 134.36 173.818 136.246 173.371 137.854C172.94 136.271 171.919 135.19 170.73 134.484C169.529 133.779 168.146 133.47 166.767 133.455C165.388 133.466 164.004 133.777 162.802 134.481C161.613 135.188 160.591 136.271 160.163 137.854" fill="#16494C"/></g></g></g></g></g></g></svg>