<svg viewBox="0 122.51249999999993 1087.9999999999998 939.2624999999999" fill="none" xmlns="http://www.w3.org/2000/svg" xmlns:xlink="http://www.w3.org/1999/xlink" overflow="visible" width="1087.9999999999998px" height="939.2624999999999px"><g id="Master/Spot Illustrations/Perfect Landing"><path id="Fill 54 Copy" fill-rule="evenodd" clip-rule="evenodd" d="M911.082 930.832C913.006 916.013 906.915 916.899 900.844 903.245C894.772 889.59 892.944 890.402 886.873 876.747C880.8 863.09 882.627 862.277 876.554 848.619C870.481 834.962 868.626 835.785 862.581 822.115C861.584 819.715 858.641 814.012 852.671 808.72C848.791 805.281 843.005 803.054 838.471 799.376C833.913 795.68 830.554 790.49 826.488 787.336C818.831 781.396 818.638 783.73 811.863 778.708C809.267 776.795 807.823 768.645 804.548 759.623C802.447 753.834 798.341 747.887 796.019 741.25C793.735 734.72 793.219 727.451 790.765 721.657C787.501 713.951 782.506 708.704 779.031 705.487C775.833 702.526 771.178 700.955 765.527 702.779C761.335 704.133 757.629 708.231 753.245 710.908C748.976 713.515 743.705 714.85 740.176 717.667C734.672 722.061 732.204 727.153 731.334 728.854C728.414 738.693 727.354 736.463 724.079 748.12C722.427 753.997 722.384 761.326 720.222 768.381C718.253 774.802 714.216 780.844 711.995 787.294C709.648 794.108 709.073 801.401 706.63 807.213C703.772 814.013 698.63 817.592 694.706 821.194C689.947 825.563 685.784 829.931 680.451 832.845C675.285 835.668 668.915 837.061 664.215 841.805C660.5 845.554 658.718 851.5 655.848 858.259C651.294 869.097 649.462 868.328 644.921 879.171C640.38 890.015 642.225 890.787 637.683 901.631C633.141 912.476 631.296 911.703 626.754 922.548C622.212 933.393 614.799 933.45 619.509 944.224C623.957 954.396 628.963 948.714 639.616 951.844C650.269 954.975 650.833 953.056 661.486 956.186C672.141 959.317 671.577 961.236 682.231 964.367C692.886 967.498 692.744 968.415 703.846 968.67C721.892 969.084 721.84 968.184 739.72 965.708C757.6 963.231 757.326 961.25 775.206 958.774C793.087 956.298 793.362 958.279 811.244 955.803C829.126 953.326 828.939 952.175 846.688 948.876C855.03 947.325 855.299 948.457 863.448 946.096C871.598 943.733 871.041 941.812 879.191 939.45C887.342 937.088 887.33 937.008 895.81 936.685C904.849 936.341 909.989 939.248 911.082 930.832" fill="#3C5B5A"/><path id="Fill 56 Copy" fill-rule="evenodd" clip-rule="evenodd" d="M1001.29 978.012C1004.41 960.483 998.828 961.004 992.521 944.356C986.213 927.705 982.473 929.122 976.166 912.472C969.858 895.822 973.569 894.419 967.293 877.757C966.35 875.073 957.654 871.433 950.944 865.014C946.29 860.561 943.732 852.861 938.937 848.627C930.7 841.355 928.891 845.039 921.241 838.66C918.552 836.432 918.9 825.249 915.769 814.354C913.648 806.973 907.574 799.932 905.165 792.472C902.091 782.953 902.1 772.652 898.43 768.837C895.041 765.315 888.161 769.33 881.458 772.018C876.412 774.04 869.202 773.638 864.536 776.813C857.813 781.387 855.509 788.4 854.486 790.215C850.534 801.831 847.681 798.989 843.198 812.297C840.798 819.42 841.745 828.821 838.742 836.764C835.709 844.789 828.809 851.143 825.649 857.864C821.925 865.783 819.926 873.163 814.587 876.828C808.352 881.109 799.36 880.4 793.337 884.267C787.712 887.879 785.651 895.083 782.408 903.233C776.63 916.03 772.815 914.274 766.856 926.988C760.896 939.702 764.518 941.401 758.557 954.116C752.597 966.83 738.057 966.232 742.952 979.394C747.493 991.607 757.783 981.127 770.076 985.446C782.372 989.764 781.046 993.537 793.342 997.857C805.637 1002.17 805.734 1001.7 818.734 1002.61C839.867 1004.08 839.873 1004.61 860.963 1002.61C882.055 1000.62 881.679 996.64 902.772 994.648C923.864 992.656 924.451 997.616 945.426 994.635C955.301 993.232 954.353 988.33 964.039 985.949C973.726 983.566 973.918 985.142 983.894 985.126C994.148 985.11 999.55 987.833 1001.29 978.012" fill="#3C5B5A"/><g id="Group"><path id="Fill 76" fill-rule="evenodd" clip-rule="evenodd" d="M799.359 1036.35C810.672 1035.14 822.51 1038.49 834.012 1039.73C846.168 1041.04 858.316 1040.37 868.695 1042.62C884.547 1046.05 896.858 1052.41 902.54 1052.57C908.479 1052.74 920.552 1047.12 934.507 1043.42C944.857 1040.69 956.726 1040.27 966.903 1037.22C981.702 1032.78 993.64 1025.97 997.953 1024.88C1004.28 1023.28 1011.05 1024.87 1017.31 1023.73C1023.66 1022.59 1029.62 1018.7 1035.98 1017.82C1042.3 1016.94 1048.96 1019.07 1055.37 1018.23C1057.97 1017.89 1061.47 1014.7 1065.52 1014.21C1068.96 1013.79 1073.04 1016.12 1076.31 1015.2C1080.26 1014.1 1082.42 1010.08 1084.35 1007.68C1086.52 1004.98 1088.78 1002.7 1087.74 1000.43C1086.75 998.288 1082.96 998.416 1080.59 997.017C1078.39 995.719 1076.69 992.05 1074.47 991.688C1070.73 991.079 1063.25 993.886 1054.6 993.378C1048.54 993.023 1042.02 989.544 1035.27 988.516C1028.64 987.503 1021.43 988.883 1015.51 986.647C1010.16 984.627 1006.31 979.403 1001.92 976.614C996.826 973.374 990.932 972.211 987.278 968.717C982.011 963.679 980.283 956.92 978.437 953.491C975.435 947.917 967.628 943.566 960.416 937.792C954.418 932.989 948.807 926.006 942.016 922.707C934.121 918.872 925.897 919.386 919.743 919.763C908.169 920.474 897.631 919.148 888.213 921.047C877.064 923.295 867.541 928.866 857.838 930.982C847.436 933.251 837.15 931.96 826.375 931.757C815.033 931.543 805.044 931.749 796.813 927.866C786.913 923.197 780.079 914.169 772.638 907.897C763.932 900.56 754.928 896.082 746.275 892.564C739.621 889.859 732.527 887.416 724.937 888.916C717.98 890.291 711.277 895.488 704.136 897.17C696.758 898.908 689.38 897.088 682.432 895.806C675.721 894.57 667.704 894.582 660.508 891.114C653.546 887.758 647.812 881.126 641.667 877.331C633.374 872.211 625.165 870.031 621.034 867.581C616.054 864.628 608.774 853.139 597.896 843.43C590.208 836.568 580.008 831.824 570.674 826.179C561.215 820.46 551.864 813.567 541.826 813.027C533.445 812.576 525.972 817.834 518.295 821.589C510.859 825.224 502.488 827.473 495.335 832.179C487.978 837.019 481.754 844.346 474.297 847.282C468.149 849.703 461.58 847.834 455.477 847.911C449.255 847.99 442.832 850.035 436.656 848.725C430.546 847.43 424.998 842.827 418.934 841.201C412.148 839.383 405.133 841.763 398.424 842.297C391.625 842.837 384.419 841.595 377.946 844.064C371.5 846.523 366.349 852.489 360.472 856.377C354.422 860.379 347.276 862.395 341.435 866.703C335.522 871.065 330.775 877.792 324.389 880.936C318.133 884.018 310.894 883.322 303.526 883.774C297.025 884.173 290.963 886.586 285.163 885.849C279.009 885.068 273.288 881.111 267.169 880.708C261.358 880.325 255.568 883.417 249.105 884.876C241.67 886.554 234.542 886.003 228.684 888.765C222.242 891.802 217.61 898.064 211.692 902.218C206.225 906.054 199.271 907.838 193.061 912.46C186.441 917.389 179.979 922.301 172.181 923.4C164.818 924.439 156.827 921.545 148.86 921.939C141.324 922.312 133.982 925.903 126.283 928.04C116.35 930.798 108.899 931.968 103.582 936.251C97.1982 941.393 93.8159 949.666 86.229 955.199C80.8723 959.105 73.0673 960.211 63.4656 963.473C55.7367 966.1 47.8938 971.329 39.5906 973.883C30.8263 976.579 21.4715 976.684 14.552 980.201C4.81289 985.151 0 992.72 0 1001.51C0 1007.21 7.88452 1012.41 20.1554 1014.87C27.9742 1016.43 37.275 1014.56 45.7182 1015.26C55.992 1016.11 65.3468 1019.4 70.9776 1019.55C78.2188 1019.74 86.4054 1019.07 94.3499 1021.87C101.745 1024.47 108.54 1030.4 115.953 1032.85C123.923 1035.48 132.048 1034.45 139.355 1034.11C145.885 1033.8 152.199 1035.55 158.018 1034.17C164.115 1032.73 169.536 1028.14 175.67 1026.96C181.498 1025.85 187.674 1028.11 194.27 1028.53C201.636 1029 209.009 1027.83 215.855 1029.9C222.804 1032.01 228.999 1037.32 236.008 1039.18C242.857 1040.99 250.14 1039.33 257.612 1039.11C268.158 1038.8 277.44 1040.14 285.464 1038.18C295.557 1035.72 303.616 1029.77 311.939 1027.88C320.911 1025.84 329.501 1028.04 339.4 1030.94C349.636 1033.95 359.728 1033.62 369.132 1035.7C378.89 1037.86 388.146 1042.44 398.339 1043.61C407.658 1044.68 417.598 1042.39 428.365 1042.63C438.842 1042.87 449.409 1045.82 459.979 1045.56C470.526 1045.29 480.956 1041.81 491.433 1040.96C502.022 1040.09 512.797 1041.84 523.145 1040.28C532.891 1038.81 544.285 1034.48 556.328 1033.4C567.622 1032.38 579.379 1034.58 590.056 1034.31C603.664 1033.97 615.933 1031.46 623.821 1033.05C631.09 1034.51 640.905 1041.31 653.434 1045.38C662.589 1048.36 673.466 1048.54 684.499 1050.76C694.388 1052.75 704.646 1057 715.445 1057C726.718 1057 735.73 1053.06 743.716 1051.51C754.581 1049.4 763.746 1049.16 772.001 1046.28C780.823 1043.19 788.791 1037.47 799.359 1036.35" fill="#83C7C9"/><path id="Fill 79" fill-rule="evenodd" clip-rule="evenodd" d="M111 989.17C112.133 988.756 113.345 988.487 114.586 988.48C115.204 988.462 115.797 988.506 116.362 988.486C116.929 988.469 117.479 988.41 118.031 988.295C119.13 988.086 120.261 987.76 121.261 987.326C121.761 987.098 122.226 986.848 122.711 986.546C123.195 986.249 123.729 985.885 124.33 985.577C125.538 984.948 126.805 984.576 128.05 984.325C129.281 984.043 130.731 983.987 131.986 984.131C133.21 984.267 134.095 984.313 135.175 984.138C136.269 983.986 137.254 983.748 138.126 983.309C138.569 983.091 139.002 982.821 139.528 982.479C140.05 982.143 140.7 981.748 141.414 981.488C142.124 981.233 142.863 981.078 143.547 981.038C143.9 980.994 144.226 981.013 144.566 981C144.929 981.004 145.352 981.036 145.779 981.139C146.652 981.309 147.574 982.001 148.034 982.57C148.53 983.145 148.79 983.511 149.095 983.765C149.398 984.029 149.728 984.196 150.212 984.351C150.673 984.504 151.053 984.559 151.511 984.534C151.966 984.505 152.686 984.352 153.45 984.409C154.21 984.465 154.89 984.672 155.516 984.953C156.143 985.227 156.804 985.629 157.319 986.153C157.845 986.678 158.164 987.137 158.541 987.464C158.907 987.809 159.377 988.075 159.887 988.294C160.398 988.513 160.907 988.644 161.447 988.684C161.984 988.72 162.6 988.608 163.234 988.66C163.865 988.717 164.459 988.907 165 989.188C164.404 989.101 163.813 989.07 163.255 989.188C162.699 989.282 162.159 989.526 161.51 989.651C160.864 989.781 160.18 989.73 159.551 989.6C158.92 989.47 158.267 989.269 157.651 988.89C157.031 988.51 156.554 987.997 156.154 987.722C155.752 987.425 155.328 987.258 154.832 987.125C154.335 986.998 153.842 986.919 153.413 986.949C152.986 986.969 152.54 987.132 151.82 987.266C151.097 987.399 150.274 987.369 149.582 987.209C148.913 987.072 148.109 986.778 147.447 986.289C146.772 985.811 146.26 985.185 145.927 984.847C145.567 984.498 145.45 984.451 145.146 984.389C144.99 984.367 144.818 984.361 144.589 984.365C144.336 984.386 144.065 984.376 143.829 984.419C143.328 984.464 142.896 984.587 142.485 984.748C142.075 984.907 141.681 985.138 141.188 985.465C140.699 985.787 140.111 986.177 139.473 986.493C138.18 987.121 136.813 987.421 135.552 987.566C134.903 987.645 134.22 987.672 133.541 987.641C132.861 987.612 132.2 987.513 131.639 987.422C130.538 987.24 129.589 987.231 128.477 987.368C127.379 987.509 126.31 987.712 125.334 988.098C124.842 988.294 124.332 988.544 123.751 988.814C123.174 989.084 122.542 989.334 121.912 989.5C120.642 989.819 119.427 989.977 118.162 989.999C116.891 990.017 115.617 989.718 114.505 989.441C113.379 989.179 112.203 989.137 111 989.17" fill="#509FA6"/><path id="Fill 85" fill-rule="evenodd" clip-rule="evenodd" d="M221 937.873C221.947 937.586 222.905 937.339 223.881 937.149C224.855 936.969 225.853 936.866 226.839 936.814C227.826 936.755 228.787 936.732 229.734 936.613C230.68 936.501 231.62 936.314 232.557 936.096C234.439 935.65 236.293 935.128 238.014 934.328C238.879 933.93 239.752 933.47 240.703 933.045C241.649 932.617 242.634 932.256 243.616 931.954C245.582 931.381 247.536 930.921 249.616 930.73C250.65 930.633 251.697 930.631 252.658 930.64C253.622 930.645 254.519 930.617 255.434 930.511C256.346 930.401 257.267 930.252 258.194 930.058C259.104 929.861 259.983 929.643 260.818 929.318C261.661 929.005 262.452 928.622 263.299 928.142C264.144 927.675 265.111 927.1 266.198 926.717C267.278 926.33 268.391 926.137 269.451 926.063C269.991 926.003 270.506 926.021 271.033 926C271.574 926.017 272.111 926.021 272.672 926.101C273.774 926.236 274.982 926.587 276.009 927.197C277.04 927.802 277.809 928.44 278.556 928.891C279.305 929.356 280.089 929.702 280.941 929.967C281.785 930.229 282.734 930.454 283.608 930.596C284.502 930.747 285.365 930.772 286.338 930.773C287.321 930.776 288.414 930.816 289.446 930.999C290.485 931.171 291.475 931.426 292.457 931.731C293.438 932.033 294.429 932.395 295.376 932.888C296.333 933.372 297.185 933.964 298.007 934.427C298.831 934.898 299.689 935.276 300.592 935.599C301.491 935.925 302.418 936.215 303.345 936.436C304.275 936.659 305.207 936.772 306.17 936.836C307.133 936.893 308.144 936.916 309.126 937.097C310.108 937.28 311.065 937.547 312 937.878C311.025 937.75 310.053 937.637 309.086 937.64C308.12 937.617 307.171 937.738 306.182 937.832C304.176 938.046 302.14 937.746 300.179 937.305C299.192 937.073 298.195 936.737 297.24 936.308C296.279 935.879 295.424 935.398 294.566 935.069C293.705 934.733 292.82 934.464 291.902 934.254C290.986 934.038 290.054 933.871 289.151 933.787C288.242 933.695 287.374 933.726 286.404 933.789C285.424 933.851 284.326 933.87 283.278 933.747C282.212 933.627 281.235 933.452 280.187 933.165C279.148 932.885 278.089 932.465 277.114 931.903C276.126 931.347 275.308 930.695 274.596 930.313C273.885 929.917 273.165 929.728 272.326 929.635C271.917 929.58 271.475 929.579 271.038 929.567C270.59 929.591 270.125 929.576 269.692 929.631C268.802 929.698 267.97 929.858 267.189 930.142C266.405 930.408 265.633 930.85 264.728 931.347C263.829 931.843 262.826 932.339 261.807 932.691C260.788 933.06 259.75 933.294 258.737 933.489C257.74 933.676 256.722 933.823 255.687 933.903C254.654 933.987 253.593 933.98 252.603 933.937C251.609 933.9 250.7 933.846 249.782 933.888C247.957 933.973 246.049 934.279 244.206 934.674C243.288 934.887 242.396 935.145 241.508 935.472C240.624 935.795 239.704 936.207 238.727 936.538C236.768 937.22 234.774 937.584 232.8 937.832C231.804 937.936 230.8 938.007 229.794 937.999C228.788 937.994 227.792 937.907 226.825 937.805C224.898 937.595 222.96 937.68 221 937.873" fill="#509FA6"/><path id="Fill 87" fill-rule="evenodd" clip-rule="evenodd" d="M487 882.873C487.947 882.586 488.905 882.339 489.881 882.149C490.855 881.969 491.853 881.865 492.839 881.814C493.826 881.755 494.787 881.732 495.734 881.613C496.68 881.501 497.621 881.314 498.557 881.096C500.439 880.65 502.293 880.128 504.014 879.328C504.879 878.93 505.752 878.469 506.703 878.045C507.649 877.617 508.634 877.256 509.616 876.954C511.582 876.381 513.536 875.92 515.616 875.73C516.65 875.633 517.698 875.631 518.658 875.64C519.622 875.645 520.519 875.617 521.434 875.511C522.346 875.401 523.267 875.252 524.195 875.058C525.104 874.861 525.983 874.643 526.817 874.318C527.661 874.005 528.451 873.622 529.299 873.142C530.144 872.675 531.111 872.1 532.198 871.717C533.278 871.329 534.391 871.136 535.451 871.063C535.991 871.003 536.506 871.021 537.033 871C537.574 871.017 538.111 871.021 538.672 871.101C539.774 871.236 540.982 871.587 542.009 872.197C543.04 872.802 543.809 873.44 544.556 873.891C545.305 874.356 546.089 874.702 546.941 874.967C547.785 875.229 548.734 875.454 549.609 875.596C550.502 875.747 551.365 875.772 552.338 875.773C553.321 875.776 554.414 875.815 555.446 875.998C556.485 876.171 557.475 876.426 558.457 876.73C559.438 877.033 560.429 877.395 561.376 877.888C562.333 878.372 563.185 878.964 564.007 879.426C564.831 879.898 565.689 880.276 566.592 880.599C567.491 880.925 568.418 881.215 569.345 881.436C570.275 881.659 571.206 881.772 572.17 881.836C573.133 881.893 574.144 881.916 575.126 882.097C576.108 882.28 577.065 882.546 578 882.878C577.025 882.75 576.053 882.637 575.086 882.64C574.12 882.617 573.171 882.738 572.182 882.832C570.176 883.046 568.14 882.746 566.179 882.305C565.191 882.073 564.195 881.737 563.24 881.308C562.279 880.879 561.424 880.398 560.566 880.069C559.705 879.732 558.82 879.464 557.902 879.253C556.986 879.038 556.054 878.87 555.151 878.787C554.242 878.695 553.374 878.725 552.404 878.789C551.424 878.851 550.326 878.87 549.278 878.747C548.212 878.627 547.235 878.452 546.187 878.165C545.148 877.884 544.089 877.465 543.114 876.903C542.127 876.347 541.308 875.694 540.596 875.313C539.885 874.916 539.165 874.727 538.327 874.635C537.917 874.58 537.475 874.579 537.038 874.567C536.59 874.591 536.125 874.576 535.692 874.631C534.802 874.698 533.97 874.858 533.189 875.142C532.405 875.408 531.633 875.85 530.728 876.347C529.829 876.843 528.826 877.339 527.807 877.691C526.788 878.06 525.75 878.294 524.737 878.489C523.74 878.675 522.722 878.823 521.687 878.903C520.654 878.987 519.593 878.98 518.603 878.937C517.609 878.9 516.7 878.846 515.782 878.888C513.957 878.973 512.049 879.279 510.206 879.673C509.288 879.887 508.396 880.145 507.508 880.472C506.624 880.795 505.704 881.207 504.727 881.538C502.768 882.219 500.775 882.584 498.8 882.832C497.804 882.936 496.8 883.007 495.794 882.999C494.788 882.994 493.792 882.907 492.825 882.805C490.898 882.595 488.96 882.68 487 882.873" fill="#509FA6"/><path id="Fill 89" fill-rule="evenodd" clip-rule="evenodd" d="M532 1005.87C532.947 1005.59 533.905 1005.34 534.881 1005.15C535.855 1004.97 536.853 1004.87 537.839 1004.81C538.826 1004.75 539.787 1004.73 540.734 1004.61C541.68 1004.5 542.62 1004.31 543.557 1004.1C545.439 1003.65 547.293 1003.13 549.014 1002.33C549.879 1001.93 550.752 1001.47 551.703 1001.04C552.649 1000.62 553.634 1000.26 554.616 999.954C556.582 999.381 558.536 998.92 560.616 998.73C561.65 998.633 562.697 998.632 563.658 998.64C564.622 998.645 565.519 998.617 566.434 998.511C567.346 998.401 568.267 998.252 569.194 998.058C570.103 997.862 570.982 997.643 571.817 997.318C572.661 997.005 573.451 996.622 574.299 996.143C575.144 995.675 576.111 995.101 577.198 994.717C578.278 994.33 579.391 994.137 580.451 994.064C580.99 994.003 581.506 994.021 582.033 994C582.574 994.017 583.111 994.021 583.672 994.102C584.773 994.237 585.982 994.588 587.009 995.197C588.04 995.803 588.809 996.44 589.555 996.891C590.305 997.357 591.089 997.703 591.941 997.967C592.784 998.23 593.734 998.455 594.608 998.596C595.502 998.748 596.364 998.772 597.338 998.773C598.321 998.776 599.414 998.816 600.446 998.999C601.485 999.171 602.475 999.426 603.457 999.73C604.438 1000.03 605.429 1000.39 606.376 1000.89C607.333 1001.37 608.185 1001.96 609.007 1002.43C609.831 1002.9 610.689 1003.28 611.591 1003.6C612.491 1003.93 613.418 1004.22 614.345 1004.44C615.275 1004.66 616.206 1004.77 617.17 1004.84C618.133 1004.89 619.144 1004.92 620.126 1005.1C621.108 1005.28 622.065 1005.55 623 1005.88C622.025 1005.75 621.053 1005.64 620.086 1005.64C619.119 1005.62 618.171 1005.74 617.182 1005.83C615.176 1006.05 613.14 1005.75 611.179 1005.31C610.191 1005.07 609.195 1004.74 608.24 1004.31C607.279 1003.88 606.424 1003.4 605.566 1003.07C604.705 1002.73 603.82 1002.47 602.902 1002.25C601.985 1002.04 601.054 1001.87 600.151 1001.79C599.242 1001.7 598.374 1001.73 597.404 1001.79C596.424 1001.85 595.325 1001.87 594.277 1001.75C593.212 1001.63 592.235 1001.45 591.187 1001.16C590.148 1000.88 589.088 1000.47 588.114 999.904C587.126 999.348 586.308 998.695 585.595 998.313C584.885 997.916 584.165 997.727 583.326 997.635C582.917 997.581 582.475 997.58 582.038 997.567C581.59 997.591 581.125 997.576 580.691 997.631C579.802 997.698 578.97 997.859 578.189 998.142C577.405 998.409 576.632 998.85 575.728 999.348C574.829 999.844 573.826 1000.34 572.807 1000.69C571.788 1001.06 570.749 1001.29 569.737 1001.49C568.74 1001.68 567.721 1001.82 566.687 1001.9C565.654 1001.99 564.592 1001.98 563.602 1001.94C562.609 1001.9 561.7 1001.85 560.782 1001.89C558.957 1001.97 557.048 1002.28 555.205 1002.67C554.288 1002.89 553.396 1003.15 552.508 1003.47C551.624 1003.8 550.704 1004.21 549.726 1004.54C547.767 1005.22 545.774 1005.58 543.799 1005.83C542.803 1005.94 541.8 1006.01 540.794 1006C539.787 1005.99 538.791 1005.91 537.825 1005.81C535.898 1005.59 533.959 1005.68 532 1005.87" fill="#509FA6"/><path id="Fill 91" fill-rule="evenodd" clip-rule="evenodd" d="M703 947.873C703.947 947.587 704.905 947.339 705.881 947.148C706.855 946.97 707.853 946.866 708.839 946.813C709.826 946.754 710.787 946.732 711.734 946.614C712.68 946.501 713.62 946.315 714.557 946.095C716.439 945.65 718.293 945.127 720.014 944.328C720.879 943.93 721.752 943.47 722.703 943.044C723.649 942.618 724.634 942.255 725.616 941.954C727.582 941.381 729.536 940.92 731.616 940.73C732.65 940.633 733.697 940.632 734.658 940.639C735.622 940.645 736.519 940.617 737.434 940.51C738.346 940.4 739.267 940.252 740.194 940.057C741.104 939.861 741.982 939.642 742.817 939.318C743.661 939.005 744.451 938.621 745.299 938.143C746.144 937.675 747.111 937.101 748.198 936.717C749.278 936.33 750.391 936.137 751.451 936.063C751.991 936.003 752.506 936.02 753.033 936C753.574 936.017 754.111 936.02 754.672 936.102C755.773 936.237 756.982 936.588 758.009 937.197C759.04 937.803 759.809 938.44 760.556 938.891C761.305 939.357 762.089 939.703 762.941 939.967C763.784 940.23 764.734 940.455 765.608 940.596C766.502 940.748 767.365 940.771 768.338 940.773C769.321 940.776 770.414 940.816 771.446 940.999C772.485 941.171 773.475 941.426 774.457 941.73C775.438 942.033 776.429 942.395 777.376 942.889C778.333 943.372 779.185 943.964 780.007 944.427C780.831 944.899 781.689 945.276 782.591 945.599C783.491 945.925 784.418 946.216 785.345 946.436C786.275 946.659 787.206 946.772 788.17 946.836C789.133 946.893 790.144 946.916 791.126 947.097C792.108 947.28 793.065 947.546 794 947.879C793.025 947.75 792.053 947.637 791.086 947.64C790.119 947.617 789.171 947.739 788.182 947.832C786.176 948.046 784.14 947.746 782.179 947.306C781.191 947.072 780.195 946.738 779.24 946.309C778.279 945.879 777.424 945.399 776.566 945.069C775.705 944.732 774.82 944.465 773.902 944.253C772.985 944.038 772.054 943.871 771.151 943.787C770.242 943.694 769.374 943.725 768.404 943.79C767.424 943.851 766.325 943.87 765.278 943.747C764.212 943.627 763.235 943.453 762.187 943.165C761.148 942.885 760.088 942.465 759.114 941.904C758.126 941.348 757.308 940.695 756.596 940.313C755.885 939.916 755.165 939.727 754.326 939.635C753.917 939.581 753.475 939.58 753.038 939.567C752.59 939.59 752.125 939.575 751.692 939.631C750.802 939.698 749.97 939.859 749.189 940.142C748.405 940.409 747.632 940.85 746.728 941.347C745.829 941.844 744.826 942.339 743.807 942.691C742.788 943.061 741.75 943.294 740.737 943.489C739.74 943.675 738.721 943.824 737.687 943.903C736.654 943.987 735.593 943.98 734.602 943.938C733.609 943.9 732.7 943.846 731.782 943.887C729.957 943.973 728.049 944.278 726.205 944.673C725.288 944.887 724.396 945.145 723.508 945.473C722.624 945.795 721.704 946.208 720.727 946.538C718.767 947.22 716.774 947.584 714.8 947.832C713.804 947.937 712.8 948.007 711.794 947.999C710.787 947.994 709.791 947.907 708.825 947.806C706.898 947.595 704.959 947.679 703 947.873" fill="#509FA6"/></g><g id="Spaceship" transform="translate(176 474.888) scale(1 1)"><g id="Spaceship/Rocket 3"><path id="Fill 93" opacity="0.1" fill-rule="evenodd" clip-rule="evenodd" d="M163.323 458.879C159.236 459.828 155.214 460.881 150.948 461.406C149.059 461.639 147.221 461.79 145.357 462.083C142.302 462.564 139.263 462.113 136.151 462.113C132.441 462.113 130.887 460.558 126.188 460.455C121.488 460.352 116.095 462.178 111.558 462.633C106.249 463.165 102.564 462.633 97.68 464.469C93.247 466.136 89.998 465.363 85.242 465.137C78.867 464.834 76.193 470.195 82.95 471.282C88.302 472.142 94.306 471.252 99.615 472.344C102.522 472.942 104.846 474.61 107.782 475.227C111.67 476.043 116.197 477.417 120.215 477.165C127.598 476.704 134.56 474.984 141.969 475.872C149.166 476.734 155.504 478.596 162.992 477.931C166.974 477.578 170.802 476.474 174.721 475.868C177.768 475.398 180.9 475.643 183.945 475.11C187.455 474.497 190.854 473.303 194.572 473.114C198.461 472.917 200.083 474.433 205.885 474.63C209.46 474.752 216.2 474.108 219.671 474.202C225.488 474.359 227.937 475.871 233.724 476.171C240.842 476.54 247.671 476.5 254.648 475.44C257.527 475.001 260.482 475.327 263.361 474.797C266.445 474.228 269.422 473.158 272.592 472.789C275.159 472.489 291.633 471.689 288.267 467.389C286.794 465.507 281.403 465.596 278.863 465.338C270.844 464.524 273.106 462.867 266.281 462.374C259.381 461.876 253.158 460.455 247.264 459.965C241.994 459.526 235.696 460.202 230.381 460.455C226.444 460.642 217.674 458.306 213.746 458.614C206.104 459.214 204.333 460.241 197.806 460.455C192.628 460.624 188.438 459.74 183.479 459.081C177.95 458.347 171.992 457.041 166.45 458.187C165.4 458.403 164.359 458.638 163.323 458.879" fill="#020202"/><g id="Group 26"><path id="Fill 4" fill-rule="evenodd" clip-rule="evenodd" d="M159.891 358.384C150.343 363.932 126.357 377.905 121.397 381.145C116.584 384.287 115.265 380.755 115.209 378.198C115.154 375.642 114.845 361.402 114.845 361.402C114.845 361.402 114.747 356.688 112.489 356.688C110.229 356.688 109.836 361.107 109.836 361.107L100.054 465.799C100.054 465.799 99.0751 471.774 101.695 472.187C104.495 472.629 105.884 465.955 105.884 465.955L113.737 432.116C113.737 432.116 115.562 421.917 127.683 417.483C136.006 414.438 152.142 408.535 161.435 405.136C160.763 388.558 160.261 372.961 159.891 358.384" fill="#8BC9C1"/><path id="Fill 6" fill-rule="evenodd" clip-rule="evenodd" d="M159.215 243.118L135.587 275.469C134.547 276.796 132.416 276.071 132.402 274.386L132.298 257.988C132.298 257.988 132.3 253.693 130.236 253.568C127.803 253.421 127.879 257.988 127.879 257.988V308.664C127.879 308.664 127.437 318.682 130.089 318.682C132.2 318.682 132.349 311.813 132.465 308.439C132.465 308.439 132.2 305.325 135.306 303.345C138.705 301.176 152.291 293.212 158.944 289.322C158.912 270.443 159.071 254.97 159.215 243.118" fill="#8BC9C1"/><path id="Fill 8" fill-rule="evenodd" clip-rule="evenodd" d="M183.859 425.929H168.49L170.836 448.254C171.156 451.307 173.73 453.625 176.799 453.625H183.859H190.919C193.988 453.625 196.562 451.307 196.882 448.254L199.228 425.929H183.859Z" fill="#A4DDD8"/><g id="Group 12"><mask id="mask0_122_21813dc903043-841d-43f5-85f5-740e177bfe83" style="mask-type:alpha" maskUnits="userSpaceOnUse" x="158" y="107" width="51" height="319" fill="#ffffff"><path id="Clip 11" fill-rule="evenodd" clip-rule="evenodd" d="M158.941 107H208.779V425.929H158.941V107Z" fill="#ffffff"/></mask><g mask="url(#mask0_122_21813dc903043-841d-43f5-85f5-740e177bfe83)"><path id="Fill 10" fill-rule="evenodd" clip-rule="evenodd" d="M208.304 220.274C208.846 160.757 194.468 119.312 183.861 107C173.254 119.312 158.875 160.757 159.417 220.274C159.591 239.366 157.094 309.587 162.062 419.777C162.217 423.216 165.048 425.929 168.491 425.929H183.861H199.23C202.672 425.929 205.504 423.216 205.659 419.777C210.627 309.587 208.129 239.366 208.304 220.274" fill="#DFEFED"/></g></g><path id="Fill 13" fill-rule="evenodd" clip-rule="evenodd" d="M207.829 358.384C217.377 363.932 241.362 377.905 246.323 381.145C251.135 384.287 252.455 380.755 252.511 378.198C252.565 375.642 252.875 361.402 252.875 361.402C252.875 361.402 252.973 356.688 255.231 356.688C257.49 356.688 257.884 361.107 257.884 361.107L267.666 465.799C267.666 465.799 268.645 471.774 266.025 472.187C263.225 472.629 261.836 465.955 261.836 465.955L253.983 432.116C253.983 432.116 252.157 421.917 240.037 417.483C231.714 414.438 215.578 408.535 206.285 405.136C206.957 388.558 207.458 372.961 207.829 358.384" fill="#8BC9C1"/><path id="Fill 15" fill-rule="evenodd" clip-rule="evenodd" d="M208.504 243.118L232.133 275.469C233.172 276.796 235.304 276.071 235.318 274.386L235.421 257.988C235.421 257.988 235.42 253.693 237.483 253.568C239.917 253.421 239.841 257.988 239.841 257.988V308.664C239.841 308.664 240.283 318.682 237.631 318.682C235.52 318.682 235.371 311.813 235.255 308.439C235.255 308.439 235.52 305.325 232.414 303.345C229.015 301.176 215.428 293.212 208.775 289.322C208.808 270.443 208.649 254.97 208.504 243.118" fill="#8BC9C1"/><path id="Fill 17" fill-rule="evenodd" clip-rule="evenodd" d="M183.859 347.672C183.306 347.672 182.859 347.225 182.859 346.672V153.489C182.859 152.937 183.306 152.489 183.859 152.489C184.412 152.489 184.859 152.937 184.859 153.489V346.672C184.859 347.225 184.412 347.672 183.859 347.672" fill="#A4DDD8"/><path id="Fill 19" fill-rule="evenodd" clip-rule="evenodd" d="M183.86 317.071C181.208 317.071 181.209 313.029 181.209 311.721V250.502C181.209 249.194 181.714 244.729 183.86 244.729C186.006 244.729 186.511 249.194 186.511 250.502V311.721C186.511 313.029 186.512 317.071 183.86 317.071" fill="#8BC9C1"/><g id="Group 23"><mask id="mask1_122_21813dc903043-841d-43f5-85f5-740e177bfe83" style="mask-type:alpha" maskUnits="userSpaceOnUse" x="165" y="107" width="38" height="47" fill="#ffffff"><path id="Clip 22" fill-rule="evenodd" clip-rule="evenodd" d="M165.701 107H202.017V153.489H165.701V107Z" fill="#ffffff"/></mask><g mask="url(#mask1_122_21813dc903043-841d-43f5-85f5-740e177bfe83)"><path id="Fill 21" fill-rule="evenodd" clip-rule="evenodd" d="M183.859 107C177.89 113.929 170.727 130.083 165.701 153.49H202.017C196.991 130.083 189.828 113.929 183.859 107" fill="#8BC9C1"/></g></g><path id="Fill 24" fill-rule="evenodd" clip-rule="evenodd" d="M183.859 472.187C179.733 472.187 179.734 465.175 179.734 462.906V356.688C179.734 354.418 180.52 346.672 183.859 346.672C187.198 346.672 187.984 354.418 187.984 356.688V462.906C187.984 465.175 187.985 472.187 183.859 472.187" fill="#8BC9C1"/></g></g></g><path id="Fill 40" fill-rule="evenodd" clip-rule="evenodd" d="M520.805 215.746C520.805 265.312 480.624 305.493 431.058 305.493C381.492 305.493 341.311 265.312 341.311 215.746C341.311 166.181 381.492 126 431.058 126C480.624 126 520.805 166.181 520.805 215.746" fill="#F9CD6B"/><path id="Stroke 46" fill-rule="evenodd" clip-rule="evenodd" d="M741.569 425.785C741.569 449.966 721.966 469.569 697.785 469.569C673.603 469.569 654 449.966 654 425.785C654 401.603 673.603 382 697.785 382C721.966 382 741.569 401.603 741.569 425.785Z" fill="#F9CD6B"/><path id="Stroke 50" fill-rule="evenodd" clip-rule="evenodd" d="M872.414 282.206C872.414 295.023 862.024 305.413 849.207 305.413C836.39 305.413 826 295.023 826 282.206C826 269.39 836.39 259 849.207 259C862.024 259 872.414 269.39 872.414 282.206Z" fill="#F9CD6B"/><path id="Fill 81" fill-rule="evenodd" clip-rule="evenodd" d="M871 967.643C872.133 967.052 873.345 966.669 874.586 966.658C875.204 966.632 875.797 966.695 876.362 966.667C876.929 966.642 877.479 966.558 878.031 966.394C879.13 966.095 880.262 965.629 881.261 965.009C881.761 964.683 882.226 964.326 882.711 963.896C883.195 963.471 883.729 962.951 884.33 962.513C885.538 961.614 886.805 961.083 888.05 960.724C889.281 960.322 890.731 960.242 891.986 960.447C893.21 960.64 894.095 960.707 895.176 960.456C896.269 960.24 897.254 959.9 898.126 959.272C898.569 958.961 899.002 958.575 899.529 958.088C900.05 957.609 900.7 957.044 901.414 956.672C902.124 956.308 902.863 956.087 903.547 956.029C903.9 955.968 904.226 955.994 904.566 955.976C904.93 955.98 905.352 956.027 905.779 956.175C906.652 956.418 907.574 957.406 908.034 958.218C908.53 959.039 908.79 959.561 909.095 959.925C909.398 960.302 909.728 960.54 910.213 960.76C910.673 960.98 911.053 961.058 911.511 961.023C911.966 960.98 912.686 960.763 913.45 960.843C914.21 960.924 914.889 961.219 915.516 961.62C916.143 962.012 916.804 962.587 917.319 963.335C917.845 964.085 918.164 964.74 918.541 965.206C918.907 965.699 919.377 966.079 919.887 966.391C920.398 966.705 920.907 966.892 921.447 966.949C921.984 967 922.6 966.841 923.234 966.914C923.865 966.996 924.459 967.267 925 967.669C924.404 967.544 923.812 967.501 923.255 967.669C922.699 967.803 922.159 968.152 921.51 968.331C920.864 968.517 920.181 968.443 919.55 968.257C918.921 968.072 918.267 967.784 917.651 967.244C917.031 966.701 916.555 965.967 916.154 965.576C915.752 965.152 915.328 964.913 914.832 964.722C914.335 964.542 913.842 964.429 913.413 964.472C912.986 964.499 912.54 964.732 911.819 964.925C911.097 965.113 910.274 965.072 909.582 964.843C908.913 964.648 908.109 964.228 907.447 963.529C906.772 962.845 906.259 961.953 905.927 961.47C905.567 960.97 905.45 960.904 905.146 960.816C904.99 960.784 904.818 960.775 904.589 960.78C904.336 960.811 904.065 960.798 903.829 960.859C903.328 960.923 902.896 961.098 902.485 961.328C902.075 961.555 901.681 961.886 901.188 962.353C900.699 962.812 900.111 963.369 899.473 963.819C898.18 964.718 896.813 965.145 895.552 965.353C894.903 965.466 894.22 965.504 893.541 965.46C892.861 965.419 892.2 965.277 891.639 965.148C890.538 964.886 889.59 964.873 888.477 965.07C887.378 965.271 886.31 965.562 885.334 966.113C884.842 966.391 884.332 966.749 883.751 967.136C883.173 967.521 882.542 967.878 881.912 968.114C880.642 968.57 879.427 968.795 878.162 968.828C876.891 968.852 875.617 968.426 874.505 968.03C873.379 967.655 872.203 967.595 871 967.643" fill="#509FA6"/></g></svg>