<svg viewBox="154.80000000000007 67.08582089552237 378.4 387.0335820895522" fill="none" xmlns="http://www.w3.org/2000/svg" xmlns:xlink="http://www.w3.org/1999/xlink" overflow="visible" width="378.4px" height="387.0335820895522px"><g id="Master/Stickers/Plane"><g id="Delivery"><g id="Plane"><path id="Fill 1" fill-rule="evenodd" clip-rule="evenodd" d="M234.965 318.299L187.321 323.236C177.334 324.271 168.007 328.711 160.906 335.812L155.179 341.539L219.361 375.515L234.965 318.299Z" fill="#EEF2F8"/><path id="Fill 4" fill-rule="evenodd" clip-rule="evenodd" d="M156.274 341.373L218.941 374.548L234.077 319.052L187.388 323.89C177.583 324.905 168.343 329.304 161.371 336.275L156.274 341.373ZM219.36 376.172C219.253 376.172 219.148 376.146 219.052 376.096L154.871 342.12C154.686 342.021 154.558 341.843 154.528 341.636C154.497 341.43 154.565 341.221 154.713 341.073L160.441 335.346C167.626 328.16 177.148 323.627 187.253 322.581L234.897 317.644C235.119 317.617 235.326 317.706 235.466 317.872C235.607 318.037 235.657 318.262 235.599 318.471L219.995 375.686C219.942 375.88 219.805 376.038 219.622 376.117C219.538 376.153 219.449 376.172 219.36 376.172V376.172Z" fill="black"/><path id="Fill 13" fill-rule="evenodd" clip-rule="evenodd" d="M285.8 369.135L280.863 416.779C279.828 426.766 275.388 436.094 268.287 443.194L262.56 448.922L228.584 384.74L285.8 369.135Z" fill="#EEF2F8"/><path id="Fill 16" fill-rule="evenodd" clip-rule="evenodd" d="M229.551 385.159L262.726 447.826L267.823 442.728C274.794 435.758 279.194 426.517 280.21 416.711L285.047 370.022L229.551 385.159ZM262.561 449.58C262.529 449.58 262.495 449.577 262.463 449.572C262.256 449.542 262.077 449.414 261.979 449.229L228.003 385.048C227.91 384.871 227.902 384.662 227.982 384.478C228.061 384.295 228.219 384.158 228.412 384.105L285.628 368.5C285.834 368.441 286.062 368.492 286.227 368.633C286.393 368.773 286.478 368.986 286.455 369.202L281.519 416.846C280.472 426.953 275.938 436.475 268.753 443.658L263.026 449.387C262.902 449.512 262.734 449.58 262.561 449.58V449.58Z" fill="black"/><path id="Combined Shape" fill-rule="evenodd" clip-rule="evenodd" d="M222.322 364.655L219.36 375.515L155.178 341.539L160.906 335.812L217.048 363.048L222.322 364.655ZM239.444 381.777L228.584 384.74L262.56 448.922L268.287 443.193L241.051 387.051L239.444 381.777Z" fill="#4B69FD"/><path id="Combined Shape_2" fill-rule="evenodd" clip-rule="evenodd" d="M218.941 374.549L156.274 341.374L161.04 336.608L216.761 363.64C216.792 363.655 216.824 363.667 216.857 363.678L221.519 365.098L218.941 374.549ZM219.052 376.097C219.148 376.147 219.253 376.173 219.36 376.173C219.449 376.173 219.538 376.154 219.622 376.118C219.805 376.039 219.942 375.881 219.995 375.687L222.957 364.827C223.05 364.484 222.854 364.129 222.513 364.024L217.29 362.434L161.193 335.22C160.94 335.097 160.639 335.147 160.441 335.347L154.713 341.074C154.565 341.222 154.497 341.431 154.528 341.637C154.558 341.844 154.686 342.022 154.871 342.121L219.052 376.097ZM262.725 447.826L229.55 385.159L239.001 382.58L240.421 387.242C240.432 387.275 240.444 387.307 240.459 387.338L267.49 443.059L262.725 447.826ZM262.462 449.572C262.494 449.577 262.528 449.58 262.56 449.58C262.733 449.58 262.901 449.512 263.025 449.387L268.752 443.658C268.95 443.46 269.002 443.158 268.879 442.906L241.665 386.809L240.074 381.586C239.971 381.246 239.621 381.051 239.272 381.142L228.411 384.105C228.218 384.158 228.06 384.295 227.981 384.478C227.901 384.662 227.909 384.871 228.002 385.048L261.978 449.229C262.076 449.414 262.255 449.542 262.462 449.572Z" fill="black"/><path id="Fill 25" fill-rule="evenodd" clip-rule="evenodd" d="M395.402 146.126L343.93 131.844C347.576 127.81 344.183 118.246 336.204 110.267C328.101 102.164 318.354 98.7746 314.432 102.697L298.024 119.105L218.305 96.9836C201.815 92.4076 184.138 97.0616 172.038 109.162C168.127 113.073 168.847 119.6 173.517 122.564L326.287 219.51L395.402 146.126Z" fill="#EEF2F8"/><path id="Fill 28" fill-rule="evenodd" clip-rule="evenodd" d="M205.646 95.9061C193.382 95.9061 181.386 100.725 172.494 109.618C170.769 111.343 169.933 113.722 170.201 116.147C170.468 118.571 171.803 120.712 173.863 122.018L326.182 218.679L394.2 146.462L342.751 132.186L343.452 131.411C346.85 127.65 343.394 118.369 335.748 110.722C328.042 103.016 318.492 99.5521 314.888 103.153L298.214 119.828L218.132 97.6061C214.014 96.4631 209.814 95.9061 205.646 95.9061V95.9061ZM326.391 220.34L325.941 220.054L173.171 123.108C170.779 121.59 169.229 119.104 168.918 116.288C168.607 113.472 169.578 110.709 171.582 108.706C183.825 96.4631 201.793 91.7361 218.478 96.3621L297.834 118.383L313.976 102.241C318.215 98.0041 328.179 101.33 336.66 109.81C344.447 117.597 347.918 126.811 345.013 131.474L396.604 145.79L326.391 220.34Z" fill="black"/><path id="Fill 31" fill-rule="evenodd" clip-rule="evenodd" d="M343.93 131.843L298.024 119.105Z" fill="#EEF2F8"/><path id="Fill 34" fill-rule="evenodd" clip-rule="evenodd" d="M343.93 132.501C343.872 132.501 343.813 132.493 343.754 132.477L297.848 119.738C297.497 119.642 297.292 119.278 297.39 118.929C297.488 118.58 297.848 118.371 298.2 118.471L344.106 131.209C344.456 131.306 344.661 131.669 344.564 132.019C344.483 132.31 344.219 132.501 343.93 132.501" fill="black"/><path id="Fill 43" fill-rule="evenodd" clip-rule="evenodd" d="M457.973 208.697L472.255 260.169C476.289 256.524 485.853 259.916 493.833 267.895C501.935 275.998 505.324 285.745 501.402 289.667L484.994 306.075L507.115 385.794C511.691 402.284 507.038 419.961 494.937 432.062C491.027 435.972 484.499 435.252 481.536 430.583L384.59 277.813L457.973 208.697Z" fill="#EEF2F8"/><path id="Fill 46" fill-rule="evenodd" clip-rule="evenodd" d="M385.421 277.918L482.082 430.237C483.389 432.297 485.528 433.631 487.953 433.898C490.375 434.169 492.757 433.331 494.482 431.606C506.397 419.691 510.999 402.203 506.493 385.967L484.272 305.885L500.946 289.211C504.548 285.609 501.082 276.057 493.378 268.352C485.732 260.707 476.451 257.248 472.689 260.647L471.913 261.348L457.638 209.899L385.421 277.918ZM488.845 435.238C488.502 435.238 488.157 435.22 487.812 435.182C484.995 434.87 482.51 433.32 480.992 430.929L383.761 277.709L458.31 207.495L472.625 259.087C477.286 256.18 486.503 259.652 494.29 267.439C502.772 275.922 506.096 285.886 501.858 290.123L485.717 306.266L507.737 385.621C512.367 402.306 507.637 420.275 495.394 432.519C493.637 434.275 491.294 435.238 488.845 435.238V435.238Z" fill="black"/><path id="Wings" fill-rule="evenodd" clip-rule="evenodd" d="M326.287 219.509L173.517 122.563C168.847 119.599 168.126 113.073 172.038 109.162L336.545 208.617L326.287 219.509ZM384.591 277.813L481.537 430.583C484.5 435.252 491.027 435.973 494.937 432.062L395.482 267.555L384.591 277.813Z" fill="#4B69FD"/><path id="Fill 40" fill-rule="evenodd" clip-rule="evenodd" d="M173.87 122.007L326.181 218.662L335.509 208.758L172.153 110C170.669 111.684 169.966 113.895 170.214 116.145C170.481 118.566 171.813 120.702 173.87 122.007M326.287 220.167C326.165 220.167 326.043 220.133 325.934 220.065L173.165 123.118C170.769 121.598 169.217 119.109 168.906 116.289C168.595 113.47 169.566 110.702 171.573 108.696C171.785 108.482 172.12 108.442 172.379 108.598L336.887 208.053C337.057 208.156 337.171 208.33 337.198 208.528C337.224 208.724 337.161 208.923 337.025 209.068L326.766 219.96C326.638 220.096 326.463 220.167 326.287 220.167" fill="black"/><path id="Fill 49" fill-rule="evenodd" clip-rule="evenodd" d="M472.256 260.169L484.994 306.075Z" fill="#EEF2F8"/><path id="Fill 52" fill-rule="evenodd" clip-rule="evenodd" d="M484.993 306.733C484.704 306.733 484.44 306.542 484.359 306.251L471.621 260.344C471.523 259.995 471.728 259.631 472.079 259.535C472.433 259.435 472.792 259.644 472.889 259.993L485.627 305.899C485.724 306.249 485.519 306.612 485.169 306.709C485.11 306.725 485.051 306.733 484.993 306.733" fill="black"/><path id="Fill 58" fill-rule="evenodd" clip-rule="evenodd" d="M482.092 430.231C483.397 432.287 485.533 433.619 487.953 433.886C490.201 434.139 492.415 433.432 494.098 431.948L395.34 268.592L385.437 277.92L482.092 430.231ZM488.844 435.252C488.5 435.252 488.155 435.233 487.809 435.195C484.989 434.883 482.5 433.331 480.981 430.936L384.034 278.167C383.865 277.9 383.909 277.551 384.139 277.335L395.03 267.077C395.175 266.94 395.375 266.876 395.571 266.903C395.768 266.93 395.942 267.044 396.045 267.214L495.5 431.722C495.656 431.982 495.616 432.314 495.402 432.528C493.643 434.288 491.297 435.252 488.844 435.252V435.252Z" fill="black"/><path id="Fill 61" fill-rule="evenodd" clip-rule="evenodd" d="M451.844 224.314C513.225 162.932 546.854 97.0423 526.955 77.1433C507.057 57.2453 441.166 90.8743 379.785 152.255C364.107 167.933 307.221 224.819 291.542 240.498C230.16 301.879 206.349 377.586 216.431 387.668C227.365 398.602 302.219 373.938 363.601 312.556C379.28 296.877 436.165 239.992 451.844 224.314" fill="#EEF2F8"/><path id="Fill 64" fill-rule="evenodd" clip-rule="evenodd" d="M510.394 72.0203C499.837 72.0203 485.839 76.3123 469.221 84.7933C441.483 98.9513 409.883 123.071 380.243 152.711L291.999 240.954C255.847 277.106 236.246 314.506 227.779 333.582C214.757 362.919 212.444 382.768 216.888 387.212C221.431 391.756 240.252 390.385 270.834 376.642C289.67 368.177 326.708 348.537 363.146 312.1L451.389 223.858C512.42 162.826 546.115 97.2143 526.5 77.5993C522.771 73.8713 517.325 72.0203 510.394 72.0203M225.735 390.857C221.179 390.857 217.818 389.966 215.976 388.124C205.691 377.84 228.977 302.152 291.087 240.041L379.331 151.799C409.063 122.066 440.779 97.8613 468.634 83.6443C496.702 69.3193 517.576 66.8503 527.413 76.6873C537.25 86.5253 534.78 107.399 520.456 135.465C506.239 163.321 482.035 195.037 452.301 224.77L364.058 313.012C327.475 349.595 290.28 369.318 271.364 377.819C252.548 386.275 236.07 390.857 225.735 390.857" fill="black"/><path id="Windows" fill-rule="evenodd" clip-rule="evenodd" d="M515.049 128.659C514.278 130.249 512.164 130.609 510.915 129.359L474.739 93.1835C473.49 91.9345 473.85 89.8205 475.439 89.0495C497.63 78.2865 515.248 75.6575 521.846 82.2545C528.442 88.8505 525.812 106.468 515.049 128.659ZM374.779 162.553C368.058 169.274 364.505 176.616 366.842 178.954C369.178 181.291 376.521 177.738 383.242 171.016C389.964 164.295 393.517 156.952 391.179 154.616C388.842 152.279 381.5 155.832 374.779 162.553ZM441.546 229.319C434.825 236.041 427.483 239.594 425.146 237.256C422.808 234.92 426.362 227.577 433.083 220.856C439.804 214.135 447.147 210.582 449.483 212.919C451.821 215.256 448.268 222.598 441.546 229.319ZM405.076 265.79C398.355 272.511 391.013 276.064 388.675 273.727C386.338 271.391 389.891 264.047 396.613 257.326C403.334 250.605 410.677 247.052 413.013 249.389C415.35 251.726 411.797 259.068 405.076 265.79ZM352.205 310.197C354.542 312.534 361.885 308.981 368.606 302.26C375.327 295.539 378.88 288.196 376.543 285.859C374.207 283.522 366.864 287.075 360.142 293.796C353.421 300.518 349.868 307.861 352.205 310.197ZM330.372 215.424C328.035 213.087 331.588 205.744 338.31 199.023C345.031 192.302 352.373 188.749 354.71 191.086C357.047 193.422 353.494 200.765 346.773 207.487C340.052 214.208 332.709 217.761 330.372 215.424ZM301.839 235.492C295.118 242.214 291.565 249.556 293.902 251.893C296.238 254.23 303.582 250.677 310.303 243.956C317.024 237.235 320.577 229.891 318.24 227.555C315.903 225.218 308.561 228.771 301.839 235.492Z" fill="#4B69FD"/><path id="Combined Shape_3" fill-rule="evenodd" clip-rule="evenodd" d="M475.728 89.6418C489.71 82.8588 501.912 79.3318 510.541 79.3318C515.388 79.3318 519.107 80.4448 521.382 82.7188C527.703 89.0408 525.051 106.534 514.458 128.372C514.184 128.937 513.671 129.321 513.05 129.426C512.43 129.528 511.823 129.336 511.382 128.895H511.381L475.205 92.7188C474.764 92.2758 474.57 91.6678 474.674 91.0488C474.779 90.4288 475.163 89.9158 475.728 89.6418ZM510.451 129.824C511.065 130.439 511.869 130.77 512.717 130.77C512.898 130.77 513.083 130.755 513.269 130.724C514.314 130.548 515.18 129.899 515.642 128.946C526.651 106.25 529.145 88.6208 522.312 81.7888C515.481 74.9558 497.85 77.4488 475.153 88.4578C474.2 88.9198 473.553 89.7838 473.377 90.8298C473.2 91.8738 473.528 92.9008 474.275 93.6478L510.45 129.824H510.451ZM389.131 154.559C386.272 154.559 380.793 157.47 375.245 163.017C368.349 169.914 365.527 176.706 367.309 178.489C368.198 179.378 370.368 179.118 373.112 177.788C376.146 176.321 379.578 173.749 382.778 170.55C385.979 167.35 388.549 163.917 390.017 160.884C391.345 158.14 391.607 155.97 390.716 155.08C390.367 154.732 389.826 154.559 389.131 154.559ZM368.903 180.323C367.838 180.323 366.982 180.023 366.378 179.418C364.101 177.141 366.11 170.292 374.316 162.087C382.52 153.881 389.369 151.87 391.646 154.15C392.99 155.493 392.832 158.088 391.201 161.457C389.671 164.62 387.01 168.179 383.708 171.48C380.407 174.782 376.848 177.443 373.686 178.974C371.83 179.871 370.21 180.323 368.903 180.323ZM447.434 212.863C444.575 212.863 439.096 215.774 433.548 221.321C430.349 224.521 427.778 227.954 426.31 230.987C424.982 233.731 424.72 235.901 425.611 236.791C426.502 237.682 428.672 237.422 431.415 236.092C434.449 234.625 437.881 232.054 441.081 228.854C444.282 225.654 446.852 222.221 448.32 219.188C449.648 216.444 449.91 214.274 449.019 213.384C448.67 213.036 448.129 212.863 447.434 212.863ZM427.207 238.627C426.141 238.627 425.285 238.326 424.68 237.721C423.336 236.379 423.495 233.783 425.125 230.414C426.656 227.252 429.317 223.692 432.619 220.391C435.919 217.09 439.479 214.429 442.641 212.898C446.009 211.269 448.605 211.108 449.949 212.454C451.293 213.797 451.135 216.392 449.504 219.761C447.974 222.924 445.313 226.483 442.011 229.784C438.71 233.086 435.151 235.747 431.989 237.277C430.134 238.175 428.513 238.627 427.207 238.627ZM410.965 249.333C408.106 249.333 402.627 252.244 397.079 257.791C393.88 260.991 391.308 264.424 389.841 267.457C388.512 270.202 388.251 272.372 389.14 273.263C390.921 275.039 397.716 272.221 404.612 265.325C411.509 258.427 414.33 251.635 412.55 249.853C412.201 249.506 411.66 249.333 410.965 249.333ZM390.746 275.067C389.645 275.067 388.783 274.766 388.211 274.193C386.867 272.85 387.025 270.254 388.655 266.884C390.186 263.722 392.848 260.162 396.149 256.861C399.45 253.56 403.01 250.899 406.172 249.368C409.541 247.738 412.136 247.578 413.479 248.924C415.757 251.2 413.748 258.048 405.542 266.255C399.401 272.396 394.019 275.067 390.746 275.067ZM360.608 294.26C366.157 288.713 371.637 285.802 374.495 285.802C375.19 285.802 375.731 285.975 376.08 286.323C377.861 288.105 375.04 294.897 368.142 301.794C361.246 308.69 354.45 311.514 352.671 309.732C350.891 307.95 353.712 301.158 360.608 294.26ZM351.741 310.661C352.345 311.266 353.201 311.566 354.266 311.566C355.573 311.566 357.194 311.114 359.05 310.217C362.212 308.686 365.771 306.026 369.072 302.724C372.374 299.423 375.034 295.864 376.565 292.701C378.195 289.331 378.353 286.736 377.01 285.393C374.736 283.116 367.886 285.123 359.679 293.33C351.473 301.537 349.464 308.385 351.741 310.661ZM338.775 199.487C344.323 193.94 349.802 191.029 352.661 191.029C353.356 191.029 353.897 191.202 354.246 191.549C356.026 193.331 353.205 200.123 346.308 207.021C339.412 213.917 332.618 216.736 330.836 214.959C329.947 214.068 330.207 211.898 331.537 209.153C333.004 206.12 335.576 202.687 338.775 199.487ZM329.907 215.889C330.479 216.461 331.341 216.763 332.442 216.763C335.715 216.762 341.097 214.092 347.238 207.951C355.444 199.744 357.453 192.896 355.175 190.62C353.832 189.274 351.237 189.434 347.868 191.064C344.706 192.595 341.146 195.255 337.845 198.557C334.543 201.858 331.882 205.418 330.351 208.58C328.721 211.95 328.563 214.545 329.907 215.889ZM302.304 235.957C295.408 242.855 292.586 249.647 294.367 251.429C296.147 253.212 302.942 250.387 309.838 243.491C316.736 236.594 319.557 229.802 317.776 228.02C315.993 226.244 309.202 229.061 302.304 235.957ZM295.962 253.263C294.897 253.263 294.04 252.963 293.437 252.358C291.159 250.082 293.168 243.234 301.374 235.027C309.581 226.821 316.431 224.813 318.705 227.09C320.049 228.433 319.891 231.028 318.261 234.398C316.73 237.561 314.07 241.12 310.768 244.421C307.467 247.723 303.908 250.383 300.745 251.914C298.89 252.811 297.269 253.263 295.962 253.263Z" fill="black"/><path id="Fill 109" fill-rule="evenodd" clip-rule="evenodd" d="M521.846 82.2539L492.827 111.273Z" fill="#EEF2F8"/><path id="Fill 112" fill-rule="evenodd" clip-rule="evenodd" d="M492.827 111.93C492.659 111.93 492.49 111.866 492.362 111.737C492.104 111.48 492.104 111.064 492.362 110.807L521.381 81.7885C521.637 81.5315 522.055 81.5315 522.31 81.7885C522.568 82.0455 522.568 82.4615 522.31 82.7185L493.292 111.737C493.164 111.866 492.995 111.93 492.827 111.93" fill="black"/><path id="Fill 115" fill-rule="evenodd" clip-rule="evenodd" d="M478.676 97.1201L506.979 125.424C505.33 119.692 501.607 113.46 496.123 107.976C490.64 102.493 484.406 98.7681 478.676 97.1201" fill="black"/><path id="Fill 118" fill-rule="evenodd" clip-rule="evenodd" d="M481.134 98.647L505.451 122.965C503.494 117.942 500.087 112.87 495.658 108.441C491.229 104.012 486.157 100.604 481.134 98.647M506.979 126.082C506.809 126.082 506.64 126.015 506.514 125.888L478.211 97.585C477.998 97.373 477.957 97.043 478.11 96.786C478.261 96.527 478.573 96.408 478.858 96.487C484.93 98.234 491.227 102.149 496.588 107.511C501.95 112.873 505.864 119.169 507.612 125.242C507.694 125.53 507.571 125.837 507.313 125.99C507.209 126.051 507.094 126.082 506.979 126.082" fill="black"/></g></g></g></svg>